<svg xmlns="http://www.w3.org/2000/svg" 				height="80px" width="60px"><defs>
    <g id="fur_217_PiedG_shape0" transform="matrix(1.0, 0.0, 0.0, 1.0, 4.6, 1.9)">
      <path d="M3.65 -0.2 Q3.9 -0.4 3.35 -0.95 1.2 -0.45 0.55 0.8 0.85 1.65 2.85 1.35 2.85 0.65 1.5 0.35 2.85 0.3 3.25 0.65 3.55 1.1 3.2 1.65 L2.75 1.7 1.95 1.9 -0.65 1.55 -3.0 0.65 Q-3.75 0.3 -4.5 0.1 -4.75 -0.45 -4.45 -0.95 -4.15 -1.55 -2.55 -1.8 L0.25 -1.65 3.35 -0.95 3.85 -0.65 Q4.9 0.0 4.5 0.7 L4.1 1.05 Q4.55 0.2 3.65 -0.2 M2.85 1.35 L2.75 1.7 2.85 1.35" fill="#170436" fill-rule="evenodd" stroke="none"/>
      <path d="M2.85 1.35 Q0.85 1.65 0.55 0.8 1.2 -0.45 3.35 -0.95 3.9 -0.4 3.65 -0.2 4.55 0.2 4.1 1.05 4.1 1.45 3.2 1.65 3.55 1.1 3.25 0.65 2.85 0.3 1.5 0.35 2.85 0.65 2.85 1.35 M2.85 -0.5 L3.65 -0.2 2.85 -0.5" fill="#292045" fill-rule="evenodd" stroke="none"/>
      <path d="M2.85 1.35 Q2.85 0.65 1.5 0.35 M3.2 1.65 Q4.1 1.45 4.1 1.05 4.55 0.2 3.65 -0.2 L2.85 -0.5 M3.2 1.65 L2.75 1.7 1.95 1.9 -0.65 1.55 -3.0 0.65 Q-3.75 0.3 -4.5 0.1 -4.75 -0.45 -4.45 -0.95 -4.15 -1.55 -2.55 -1.8 L0.25 -1.65 3.35 -0.95 3.85 -0.65 Q4.9 0.0 4.5 0.7 L4.1 1.05 M2.75 1.7 L2.85 1.35 Z" fill="none" stroke="#000000" stroke-linecap="round" stroke-linejoin="round" stroke-opacity="0.3019608" stroke-width="0.05"/>
    </g>
  </defs><defs>
    <g id="fur_217_CuisseG_shape0" transform="matrix(1.0, 0.0, 0.0, 1.0, 6.95, 6.8)">
      <path d="M-2.55 -6.5 L0.05 -6.8 Q2.9 -6.65 4.85 -4.55 L5.0 -4.35 6.25 -2.5 Q6.85 -1.15 6.85 0.4 6.85 3.25 4.85 5.15 2.9 7.0 0.05 6.85 -2.8 6.7 -4.8 4.55 -6.8 2.45 -6.8 -0.4 -6.8 -1.95 -6.2 -3.2 -5.7 -4.25 -4.8 -5.1 -3.8 -6.05 -2.55 -6.5" fill="#110b1a" fill-rule="evenodd" stroke="none"/>
      <path d="M5.0 -4.35 L6.25 -2.5 Q6.85 -1.15 6.85 0.4 6.85 3.25 4.85 5.15 2.9 7.0 0.05 6.85 -2.8 6.7 -4.8 4.55 -6.8 2.45 -6.8 -0.4 -6.8 -1.95 -6.2 -3.2 -5.7 -4.25 -4.8 -5.1 -3.8 -6.05 -2.55 -6.5" fill="none" stroke="#000000" stroke-linecap="round" stroke-linejoin="miter-clip" stroke-miterlimit="5.0" stroke-opacity="0.4" stroke-width="0.30000000000000004"/>
    </g>
  </defs><defs>
    <g id="fur_217_PiedD_shape0" transform="matrix(1.0, 0.0, 0.0, 1.0, 4.4, 1.85)">
      <path d="M1.6 1.85 L1.1 1.85 0.35 1.9 Q-0.5 1.95 -1.6 1.4 L-3.5 0.55 -4.2 0.05 Q-4.7 -0.9 -4.0 -1.35 -3.1 -1.95 -1.7 -1.8 L1.0 -1.25 3.6 -0.45 Q4.05 -0.45 4.3 0.2 4.55 0.8 3.9 1.05 L2.95 1.4 Q3.8 1.05 3.45 0.15 3.8 0.0 3.6 -0.45 L2.85 -0.35 Q0.95 -0.1 -0.35 0.75 -0.65 1.55 1.45 1.55 2.05 0.9 0.95 0.4 2.25 0.5 2.45 0.9 L1.6 1.85 M1.1 1.85 L1.45 1.55 1.1 1.85" fill="#170436" fill-rule="evenodd" stroke="none"/>
      <path d="M2.95 1.4 L1.6 1.85 2.45 0.9 Q2.25 0.5 0.95 0.4 2.05 0.9 1.45 1.55 -0.65 1.55 -0.35 0.75 0.95 -0.1 2.85 -0.35 L3.6 -0.45 Q3.8 0.0 3.45 0.15 3.8 1.05 2.95 1.4 M3.45 0.15 L2.85 -0.35 3.45 0.15" fill="#292045" fill-rule="evenodd" stroke="none"/>
      <path d="M1.6 1.85 L1.1 1.85 0.35 1.9 Q-0.5 1.95 -1.6 1.4 L-3.5 0.55 -4.2 0.05 Q-4.7 -0.9 -4.0 -1.35 -3.1 -1.95 -1.7 -1.8 L1.0 -1.25 3.6 -0.45 Q4.05 -0.45 4.3 0.2 4.55 0.8 3.9 1.05 L2.95 1.4 1.6 1.85 M0.95 0.4 Q2.05 0.9 1.45 1.55 L1.1 1.85 M3.45 0.15 Q3.8 1.05 2.95 1.4 M2.85 -0.35 L3.45 0.15" fill="none" stroke="#000000" stroke-linecap="round" stroke-linejoin="round" stroke-opacity="0.3019608" stroke-width="0.05"/>
    </g>
  </defs><defs>
    <g id="fur_217_Corps_shape0" transform="matrix(1.0, 0.0, 0.0, 1.0, 9.55, 9.8)">
      <path d="M6.7 -9.15 Q7.5 -8.55 8.6 -6.35 L9.15 -4.9 Q10.5 -3.8 12.0 -4.15 11.7 -3.15 10.9 -2.8 L12.0 -2.8 Q11.0 -1.25 9.05 -0.1 L8.65 4.05 Q8.5 7.05 5.45 8.75 2.4 10.45 -1.15 10.15 -4.75 9.8 -7.2 7.25 L-8.7 5.15 -8.4 2.9 Q-7.45 5.25 -3.85 6.8 6.3 9.65 7.9 -2.3 8.1 -5.4 6.7 -9.15" fill="#110b1a" fill-rule="evenodd" stroke="none"/>
      <path d="M2.7 -9.65 L2.75 -9.7 Q5.4 -10.1 6.7 -9.15 8.1 -5.4 7.9 -2.3 6.3 9.65 -3.85 6.8 -7.45 5.25 -8.4 2.9 L-8.45 2.9 Q-8.05 -0.8 -6.3 -3.0 L-2.2 -3.5 -1.8 -3.9 Q-2.6 -3.9 -2.9 -4.4 L-3.05 -5.45 Q-2.8 -6.35 -2.15 -6.75 -1.15 -7.4 -0.65 -7.0 -0.2 -6.65 -1.0 -5.6 L-0.85 -6.15 -1.0 -6.55 Q-1.25 -6.75 -2.0 -5.95 -2.4 -5.25 -2.2 -5.0 -2.0 -4.75 -1.2 -4.7 L2.7 -9.65" fill="url(#fur_217_Corps_gradient0)" fill-rule="evenodd" stroke="none"/>
      <path d="M-7.85 -2.15 L-7.1 -2.9 -5.7 -4.2 -5.05 -4.85 Q-6.5 -4.8 -7.5 -5.75 -8.35 -6.6 -8.2 -7.4 L-7.75 -8.15 -7.25 -8.3 Q-6.75 -8.3 -6.55 -7.7 -7.4 -8.05 -7.15 -7.15 -6.75 -5.9 -4.35 -6.7 -6.3 -7.55 -5.8 -8.75 L-5.35 -9.35 -4.8 -9.55 -4.2 -9.3 Q-5.15 -9.45 -5.05 -8.75 -4.95 -8.05 -3.8 -7.8 -1.9 -7.75 -0.6 -8.5 L0.2 -9.1 2.7 -9.65 -1.2 -4.7 Q-2.0 -4.75 -2.2 -5.0 -2.4 -5.25 -2.0 -5.95 -1.25 -6.75 -1.0 -6.55 L-0.85 -6.15 -1.0 -5.6 Q-0.2 -6.65 -0.65 -7.0 -1.15 -7.4 -2.15 -6.75 -2.8 -6.35 -3.05 -5.45 L-2.9 -4.4 Q-2.6 -3.9 -1.8 -3.9 L-2.2 -3.5 -6.3 -3.0 Q-8.05 -0.8 -8.45 2.9 -9.35 0.7 -7.85 -2.15" fill="url(#fur_217_Corps_gradient1)" fill-rule="evenodd" stroke="none"/>
      <path d="M-8.7 5.15 L-9.1 4.3 Q-9.5 3.1 -9.4 1.9 -9.25 0.05 -7.85 -2.15 -9.35 0.7 -8.45 2.9 L-8.4 2.9 -8.7 5.15" fill="#170436" fill-rule="evenodd" stroke="none"/>
      <path d="M6.7 -9.15 Q7.5 -8.55 8.6 -6.35 L9.15 -4.9 Q10.5 -3.8 12.0 -4.15 11.7 -3.15 10.9 -2.8 L12.0 -2.8 Q11.0 -1.25 9.05 -0.1 L8.65 4.05 Q8.5 7.05 5.45 8.75 2.4 10.45 -1.15 10.15 -4.75 9.8 -7.2 7.25 L-8.7 5.15 -9.1 4.3 Q-9.5 3.1 -9.4 1.9 -9.25 0.05 -7.85 -2.15 L-7.1 -2.9 -5.7 -4.2 -5.05 -4.85 Q-6.5 -4.8 -7.5 -5.75 -8.35 -6.6 -8.2 -7.4 L-7.75 -8.15 -7.25 -8.3 Q-6.75 -8.3 -6.55 -7.7 -7.4 -8.05 -7.15 -7.15 -6.75 -5.9 -4.35 -6.7 -6.3 -7.55 -5.8 -8.75 L-5.35 -9.35 -4.8 -9.55 -4.2 -9.3 Q-5.15 -9.45 -5.05 -8.75 -4.95 -8.05 -3.8 -7.8 -1.9 -7.75 -0.6 -8.5 L0.2 -9.1" fill="none" stroke="#000000" stroke-linecap="round" stroke-linejoin="miter-clip" stroke-miterlimit="5.0" stroke-opacity="0.4" stroke-width="0.30000000000000004"/>
    </g>
    <linearGradient gradientTransform="matrix(-0.0078, -0.0089, 0.0078, -0.0069, -7.45, -7.8)" gradientUnits="userSpaceOnUse" id="fur_217_Corps_gradient0" spreadMethod="pad" x1="-819.2" x2="819.2">
      <stop offset="0.0" stop-color="#1d192b"/>
      <stop offset="1.0" stop-color="#403552"/>
    </linearGradient>
    <linearGradient gradientTransform="matrix(-0.0049, -0.005, 0.0055, -0.0053, -7.75, -8.45)" gradientUnits="userSpaceOnUse" id="fur_217_Corps_gradient1" spreadMethod="pad" x1="-819.2" x2="819.2">
      <stop offset="0.0" stop-color="#292045"/>
      <stop offset="1.0" stop-color="#5d5075"/>
    </linearGradient>
  </defs><defs>
    <g id="fur_217_Oeil_shape0" transform="matrix(1.0, 0.0, 0.0, 1.0, 2.1, 5.4)">
      <path d="M0.3 -3.5 L-0.6 -3.35 Q-1.0 -3.4 -1.3 -3.7 L-1.65 -4.4 -1.55 -5.35 -0.7 -5.4 0.05 -5.0 0.4 -4.3 0.3 -3.5" fill="url(#fur_217_Oeil_gradient0)" fill-rule="evenodd" stroke="none"/>
      <path d="M0.05 2.15 Q-0.8 2.15 -1.4 1.5 -2.05 0.85 -2.1 0.0 -2.15 -0.9 -1.8 -2.05 L-0.05 -2.15 Q0.8 -2.15 1.45 -1.5 2.1 -0.85 2.15 0.0 L1.95 1.75 0.05 2.15" fill="url(#fur_217_Oeil_gradient1)" fill-rule="evenodd" stroke="none"/>
      <path d="M0.3 -3.5 L-0.6 -3.35 Q-1.0 -3.4 -1.3 -3.7 L-1.65 -4.4 -1.55 -5.35 -0.7 -5.4 0.05 -5.0 0.4 -4.3 0.3 -3.5 M0.05 2.15 Q-0.8 2.15 -1.4 1.5 -2.05 0.85 -2.1 0.0 -2.15 -0.9 -1.8 -2.05 L-0.05 -2.15 Q0.8 -2.15 1.45 -1.5 2.1 -0.85 2.15 0.0 L1.95 1.75 0.05 2.15" fill="none" stroke="#000000" stroke-linecap="round" stroke-linejoin="round" stroke-opacity="0.3019608" stroke-width="0.05"/>
    </g>
    <radialGradient cx="0" cy="0" gradientTransform="matrix(0.0022, 0.0, 0.0, 0.0022, -0.6, -4.25)" gradientUnits="userSpaceOnUse" id="fur_217_Oeil_gradient0" r="819.2" spreadMethod="pad">
      <stop offset="0.0" stop-color="#fffeff"/>
      <stop offset="1.0" stop-color="#daccdb"/>
    </radialGradient>
    <radialGradient cx="0" cy="0" gradientTransform="matrix(0.0044, 0.0, 0.0, 0.0044, 0.05, 0.15)" gradientUnits="userSpaceOnUse" id="fur_217_Oeil_gradient1" r="819.2" spreadMethod="pad">
      <stop offset="0.0" stop-color="#fffeff"/>
      <stop offset="1.0" stop-color="#daccdb"/>
    </radialGradient>
  </defs><defs>
    <g id="fur_217_CuisseD_shape0" transform="matrix(1.0, 0.0, 0.0, 1.0, 8.7, 6.8)">
      <path d="M-2.5 -6.5 Q0.1 -6.35 1.9 -5.1 3.9 -3.65 4.5 -1.8 5.4 1.05 3.7 3.6 3.1 4.55 1.85 5.05 L0.25 5.1 0.2 5.1 Q-4.55 4.4 -5.85 0.9 L-5.85 0.75 -5.8 -0.3 Q-5.35 2.15 -3.55 3.3 -2.05 4.3 -0.45 4.1 1.2 3.9 2.15 2.55 3.05 1.25 3.05 -0.2 3.05 -1.55 2.4 -2.25 1.85 -2.85 0.9 -2.95 L-0.65 -2.65 Q-1.35 -2.25 -1.5 -1.5 -1.7 -0.8 -1.35 -0.1 -1.5 -1.1 -1.0 -1.65 -0.55 -2.2 0.45 -2.2 1.45 -2.2 1.85 -1.05 2.3 0.2 1.45 1.65 0.65 2.85 -0.85 3.0 -1.8 3.1 -2.7 2.35 -3.75 1.5 -4.0 0.15 -4.45 -2.75 -0.7 -4.15 L-3.75 -4.4 Q-5.0 -4.15 -6.2 -3.3 -5.7 -4.3 -4.85 -5.1 L-4.6 -5.3 -4.45 -5.4 -2.6 -6.5 -2.5 -6.5" fill="#292045" fill-rule="evenodd" stroke="none"/>
      <path d="M-2.5 -6.5 L0.0 -6.8 Q2.85 -6.65 4.8 -4.55 L4.95 -4.35 5.55 -3.65 6.2 -2.5 Q7.3 1.75 5.45 3.65 4.45 4.65 2.55 5.0 L1.85 5.05 Q3.1 4.55 3.7 3.6 5.4 1.05 4.5 -1.8 3.9 -3.65 1.9 -5.1 0.1 -6.35 -2.5 -6.5 M-6.2 -3.3 Q-5.0 -4.15 -3.75 -4.4 L-0.7 -4.15 Q-4.45 -2.75 -4.0 0.15 -3.75 1.5 -2.7 2.35 -1.8 3.1 -0.85 3.0 0.65 2.85 1.45 1.65 2.3 0.2 1.85 -1.05 1.45 -2.2 0.45 -2.2 -0.55 -2.2 -1.0 -1.65 -1.5 -1.1 -1.35 -0.1 -1.7 -0.8 -1.5 -1.5 -1.35 -2.25 -0.65 -2.65 L0.9 -2.95 Q1.85 -2.85 2.4 -2.25 3.05 -1.55 3.05 -0.2 3.05 1.25 2.15 2.55 1.2 3.9 -0.45 4.1 -2.05 4.3 -3.55 3.3 -5.35 2.15 -5.8 -0.3 L-5.85 0.75 Q-6.4 -0.85 -6.25 -3.05 L-6.25 -3.2 -6.2 -3.3" fill="url(#fur_217_CuisseD_gradient0)" fill-rule="evenodd" stroke="none"/>
      <path d="M1.85 5.05 L2.55 5.0 Q4.45 4.65 5.45 3.65 7.3 1.75 6.2 -2.5 6.8 -1.15 6.8 0.4 6.8 3.25 4.8 5.15 2.85 7.0 0.0 6.85 -1.8 6.75 -3.25 5.9 -4.95 5.5 -6.8 3.95 -8.3 2.0 -8.5 -0.65 -7.75 0.7 -6.7 1.05 L-6.85 -0.4 Q-6.85 -1.95 -6.25 -3.2 L-6.25 -3.05 Q-6.4 -0.85 -5.85 0.75 L-5.85 0.9 -5.8 1.05 Q-5.4 3.65 -3.05 4.95 -2.05 5.5 -0.9 5.65 L0.8 5.4 1.85 5.05" fill="#110b1a" fill-rule="evenodd" stroke="none"/>
      <path d="M-5.85 0.9 Q-4.55 4.4 0.2 5.1 L0.25 5.1 1.85 5.05 0.8 5.4 -0.9 5.65 Q-2.05 5.5 -3.05 4.95 -5.4 3.65 -5.8 1.05 L-5.85 0.9" fill="#170436" fill-rule="evenodd" stroke="none"/>
      <path d="M6.2 -2.5 L5.55 -3.65 4.95 -4.35 M6.2 -2.5 Q6.8 -1.15 6.8 0.4 6.8 3.25 4.8 5.15 2.85 7.0 0.0 6.85 -1.8 6.75 -3.25 5.9 -4.95 5.5 -6.8 3.95 -8.3 2.0 -8.5 -0.65 -7.75 0.7 -6.7 1.05 L-6.85 -0.4 Q-6.85 -1.95 -6.25 -3.2 L-6.2 -3.3 Q-5.7 -4.3 -4.85 -5.1 L-4.6 -5.3 M-4.45 -5.4 L-2.6 -6.5" fill="none" stroke="#000000" stroke-linecap="round" stroke-linejoin="miter-clip" stroke-miterlimit="5.0" stroke-opacity="0.4" stroke-width="0.30000000000000004"/>
    </g>
    <radialGradient cx="0" cy="0" gradientTransform="matrix(0.0146, 0.0, 0.0, 0.0146, -5.7, -13.15)" gradientUnits="userSpaceOnUse" id="fur_217_CuisseD_gradient0" r="819.2" spreadMethod="pad">
      <stop offset="0.0" stop-color="#403552"/>
      <stop offset="1.0" stop-color="#1d192b"/>
    </radialGradient>
  </defs><defs>
    <g id="fur_217_Tete_shape0" transform="matrix(1.0, 0.0, 0.0, 1.0, 14.1, 13.7)">
      <path d="M2.25 -10.05 Q3.4 -11.1 5.8 -10.3 L5.7 -10.25 Q3.25 -10.0 2.75 -9.4 L4.1 -9.4 Q5.3 -8.95 5.85 -8.5 7.15 -6.95 7.75 -4.8 3.7 -8.5 -4.3 -8.15 L-3.4 -9.2 -3.05 -9.85 Q-2.45 -11.4 -4.15 -13.35 L-3.2 -12.95 Q-1.55 -11.4 -1.95 -9.4 L-0.9 -10.45 Q0.35 -11.85 3.3 -12.1 1.1 -10.8 1.3 -9.25 L2.25 -10.05" fill="url(#fur_217_Tete_gradient0)" fill-rule="evenodd" stroke="none"/>
      <path d="M5.85 -8.5 L6.5 -7.9 Q8.35 -6.0 9.15 -4.05 9.65 -2.75 10.25 -2.05 7.35 1.35 1.1 -1.05 -3.05 -2.25 -4.4 -4.4 -5.75 -6.55 -4.55 -7.95 L-4.3 -8.15 Q3.7 -8.5 7.75 -4.8 7.15 -6.95 5.85 -8.5" fill="url(#fur_217_Tete_gradient1)" fill-rule="evenodd" stroke="none"/>
      <path d="M5.7 -10.25 L3.95 -9.45 4.1 -9.4 2.75 -9.4 Q3.25 -10.0 5.7 -10.25 M-3.2 -12.95 Q-1.0 -11.9 -0.9 -10.45 L-1.95 -9.4 Q-1.55 -11.4 -3.2 -12.95 M3.3 -12.1 Q2.5 -11.25 2.25 -10.05 L1.3 -9.25 Q1.1 -10.8 3.3 -12.1" fill="#170436" fill-rule="evenodd" stroke="none"/>
      <path d="M10.25 -2.05 L10.8 -1.55 11.9 -0.7 Q9.75 2.2 5.4 3.1 L4.15 3.95 Q0.75 4.55 -1.4 3.85 -7.75 1.1 -7.0 -2.4 L-6.15 -6.2 -5.15 -7.4 -4.65 -7.9 -4.55 -7.95 Q-5.75 -6.55 -4.4 -4.4 -3.05 -2.25 1.1 -1.05 7.35 1.35 10.25 -2.05 M-4.2 1.15 Q-3.6 2.05 -1.1 2.0 -3.9 0.8 -3.7 -2.1 -4.8 0.25 -4.2 1.15" fill="#1d192b" fill-rule="evenodd" stroke="none"/>
      <path d="M11.9 -0.7 L12.1 0.7 Q11.95 3.2 9.0 5.1 L4.55 7.55 2.5 8.25 Q-0.95 6.4 -3.0 5.9 -5.85 6.3 -9.5 4.45 L-6.5 4.1 Q-9.55 4.35 -13.65 1.25 -10.0 1.5 -7.7 0.55 L-7.75 -0.65 Q-7.7 -4.0 -6.15 -6.2 L-7.0 -2.4 Q-7.75 1.1 -1.4 3.85 0.75 4.55 4.15 3.95 L5.4 3.1 Q9.75 2.2 11.9 -0.7" fill="#110b1a" fill-rule="evenodd" stroke="none"/>
      <path d="M-4.2 1.15 Q-4.8 0.25 -3.7 -2.1 -3.9 0.8 -1.1 2.0 -3.6 2.05 -4.2 1.15" fill="#292045" fill-rule="evenodd" stroke="none"/>
      <path d="M2.25 -10.05 Q3.4 -11.1 5.8 -10.3 L5.7 -10.25 3.95 -9.45 4.1 -9.4 Q5.3 -8.95 5.85 -8.5 L6.5 -7.9 Q8.35 -6.0 9.15 -4.05 9.65 -2.75 10.25 -2.05 L10.8 -1.55 11.9 -0.7 12.1 0.7 Q11.95 3.2 9.0 5.1 L4.55 7.55 M-3.0 5.9 Q-5.85 6.3 -9.5 4.45 L-6.5 4.1 Q-9.55 4.35 -13.65 1.25 -10.0 1.5 -7.7 0.55 L-7.75 -0.65 Q-7.7 -4.0 -6.15 -6.2 L-5.15 -7.4 -4.65 -7.9 -4.55 -7.95 -4.3 -8.15 -3.4 -9.2 -3.05 -9.85 Q-2.45 -11.4 -4.15 -13.35 L-3.2 -12.95 Q-1.0 -11.9 -0.9 -10.45 0.35 -11.85 3.3 -12.1 2.5 -11.25 2.25 -10.05 Z" fill="none" stroke="#000000" stroke-linecap="round" stroke-linejoin="miter-clip" stroke-miterlimit="5.0" stroke-opacity="0.4" stroke-width="0.30000000000000004"/>
      <path d="M4.25 2.8 Q-5.05 2.95 -12.1 7.9" fill="none" stroke="#000000" stroke-linecap="round" stroke-linejoin="miter-clip" stroke-miterlimit="5.0" stroke-opacity="0.5019608" stroke-width="0.5"/>
      <path d="M5.75 3.75 Q-2.0 5.95 -6.8 11.65" fill="none" stroke="#000000" stroke-linecap="round" stroke-linejoin="miter-clip" stroke-miterlimit="5.0" stroke-opacity="0.5019608" stroke-width="0.5"/>
      <path d="M11.25 -0.8 Q10.9 0.35 9.5 -0.35 10.35 -0.85 11.25 -0.8" fill="#5d5075" fill-rule="evenodd" stroke="none"/>
      <path d="M9.5 -0.35 Q10.9 0.35 11.25 -0.8 L11.55 -0.8 11.9 -0.15 Q11.0 0.95 11.25 1.3 L10.75 1.6 Q10.95 1.0 10.15 0.6 9.15 0.6 9.0 -0.05 L9.5 -0.35" fill="#292045" fill-rule="evenodd" stroke="none"/>
      <path d="M9.0 -0.05 Q9.15 0.6 10.15 0.6 10.95 1.0 10.75 1.6 L10.4 1.75 Q10.05 0.6 9.05 0.9 L8.7 0.2 9.0 -0.05" fill="#170436" fill-rule="evenodd" stroke="none"/>
      <path d="M9.5 -0.35 L9.0 -0.05 8.7 0.2 9.05 0.9 Q10.05 0.6 10.4 1.75 L10.75 1.6 11.25 1.3 Q11.0 0.95 11.9 -0.15 L11.55 -0.8 11.25 -0.8 Q10.35 -0.85 9.5 -0.35 Z" fill="none" stroke="#000000" stroke-linecap="round" stroke-linejoin="round" stroke-opacity="0.3019608" stroke-width="0.05"/>
    </g>
    <linearGradient gradientTransform="matrix(0.0014, -0.0072, 0.0051, 0.001, 1.95, -14.2)" gradientUnits="userSpaceOnUse" id="fur_217_Tete_gradient0" spreadMethod="pad" x1="-819.2" x2="819.2">
      <stop offset="0.0" stop-color="#292045"/>
      <stop offset="1.0" stop-color="#5d5075"/>
    </linearGradient>
    <linearGradient gradientTransform="matrix(0.0025, -0.009, 0.005, 0.0014, 3.5, -11.55)" gradientUnits="userSpaceOnUse" id="fur_217_Tete_gradient1" spreadMethod="pad" x1="-819.2" x2="819.2">
      <stop offset="0.0" stop-color="#1d192b"/>
      <stop offset="1.0" stop-color="#403552"/>
    </linearGradient>
  </defs><defs>
    <g id="fur_217_PiedD2_shape0" transform="matrix(1.0, 0.0, 0.0, 1.0, 4.4, 1.85)">
      <path d="M1.6 1.85 L1.1 1.85 0.35 1.9 Q-0.5 1.95 -1.6 1.4 L-3.5 0.55 -4.2 0.05 Q-4.7 -0.9 -4.0 -1.35 -3.1 -1.95 -1.7 -1.8 L1.0 -1.25 3.6 -0.45 Q4.05 -0.45 4.3 0.2 4.55 0.8 3.9 1.05 L2.95 1.4 Q3.8 1.05 3.45 0.15 3.8 0.0 3.6 -0.45 L2.85 -0.35 Q0.95 -0.1 -0.35 0.75 -0.65 1.55 1.45 1.55 2.05 0.9 0.95 0.4 2.25 0.5 2.45 0.9 L1.6 1.85 M1.1 1.85 L1.45 1.55 1.1 1.85" fill="#170436" fill-rule="evenodd" stroke="none"/>
      <path d="M2.95 1.4 L1.6 1.85 2.45 0.9 Q2.25 0.5 0.95 0.4 2.05 0.9 1.45 1.55 -0.65 1.55 -0.35 0.75 0.95 -0.1 2.85 -0.35 L3.6 -0.45 Q3.8 0.0 3.45 0.15 3.8 1.05 2.95 1.4 M3.45 0.15 L2.85 -0.35 3.45 0.15" fill="#292045" fill-rule="evenodd" stroke="none"/>
      <path d="M1.6 1.85 L1.1 1.85 0.35 1.9 Q-0.5 1.95 -1.6 1.4 L-3.5 0.55 -4.2 0.05 Q-4.7 -0.9 -4.0 -1.35 -3.1 -1.95 -1.7 -1.8 L1.0 -1.25 3.6 -0.45 Q4.05 -0.45 4.3 0.2 4.55 0.8 3.9 1.05 L2.95 1.4 1.6 1.85 M0.95 0.4 Q2.05 0.9 1.45 1.55 L1.1 1.85 M3.45 0.15 Q3.8 1.05 2.95 1.4 M2.85 -0.35 L3.45 0.15" fill="none" stroke="#000000" stroke-linecap="round" stroke-linejoin="round" stroke-opacity="0.3019608" stroke-width="0.05"/>
    </g>
  </defs><defs>
    <g id="fur_217_Oeil2_shape0" transform="matrix(1.0, 0.0, 0.0, 1.0, 2.75, 5.25)">
      <path d="M-1.95 1.25 Q-1.1 -0.1 0.25 -0.35 1.6 -0.65 2.35 0.1 3.1 0.85 3.75 0.1 M0.75 -5.05 Q-0.2 -2.75 -2.55 -2.05" fill="none" stroke="#000000" stroke-linecap="round" stroke-linejoin="round" stroke-opacity="0.7137255" stroke-width="0.4"/>
    </g>
  </defs><defs>
    <g id="fur_217_PatteD2_shape0" transform="matrix(1.0, 0.0, 0.0, 1.0, 7.4, 3.8)">
      <path d="M4.05 -1.25 L4.15 -1.1 4.1 -1.15 4.05 -1.25" fill="#78583a" fill-rule="evenodd" stroke="none"/>
      <path d="M-3.8 -0.85 Q-4.15 -2.25 -3.5 -3.1 -2.2 -4.0 -0.9 -3.7 0.65 -3.35 1.5 -2.3 L2.5 -1.15 Q2.6 -1.1 2.85 -1.3 L3.05 -1.55 Q3.4 -2.0 4.1 -1.15 L4.2 0.0 4.2 0.8 Q2.85 3.05 1.95 2.6 L-0.1 0.75 -1.5 0.7 -3.05 0.25 -3.1 0.2 -3.15 0.15 -3.8 -0.8 -3.8 -0.85 M2.7 1.1 Q3.25 -0.3 4.2 0.0 3.25 -0.3 2.7 1.1" fill="url(#fur_217_PatteD2_gradient0)" fill-rule="evenodd" stroke="none"/>
      <path d="M2.85 -1.3 Q3.05 -2.4 3.45 -2.1 L4.0 -1.6 4.0 -1.3 4.05 -1.25 4.1 -1.15 Q3.4 -2.0 3.05 -1.55 L2.85 -1.3 M4.2 0.8 Q3.9 2.8 3.35 3.35 L2.7 3.75 Q2.05 3.9 1.3 3.3 L-1.45 1.55 -1.6 1.45 -2.35 1.0 -3.05 0.25 -1.5 0.7 -0.1 0.75 1.95 2.6 Q2.85 3.05 4.2 0.8" fill="url(#fur_217_PatteD2_gradient1)" fill-rule="evenodd" stroke="none"/>
      <path d="M-7.15 -0.45 L-7.35 -1.7 Q-7.2 -2.85 -6.5 -3.3 -6.0 -3.8 -5.05 -3.65 -4.05 -3.0 -4.75 -1.6 -4.7 -2.8 -5.4 -2.7 -5.8 -2.65 -6.0 -2.0 -6.25 -1.35 -5.75 -0.95 -5.3 -0.6 -4.8 -0.5 -4.35 -0.45 -3.8 -0.8 L-3.15 0.15 -3.1 0.2 -3.05 0.25 Q-4.85 1.3 -7.15 -0.45" fill="#1d192b" fill-rule="evenodd" stroke="none"/>
      <path d="M-1.45 1.55 L-4.35 1.35 Q-5.9 0.85 -6.3 0.45 L-6.9 -0.1 -7.15 -0.45 Q-4.85 1.3 -3.05 0.25 L-2.35 1.0 -1.6 1.45 -1.45 1.55" fill="#110b1a" fill-rule="evenodd" stroke="none"/>
      <path d="M2.5 -1.15 Q2.6 -1.1 2.85 -1.3 3.05 -2.4 3.45 -2.1 L4.0 -1.6 4.0 -1.3 4.05 -1.25 4.15 -1.1 4.1 -1.15 4.2 0.0 4.2 0.8 Q3.9 2.8 3.35 3.35 L2.7 3.75 Q2.05 3.9 1.3 3.3 L-1.45 1.55 -1.6 1.45 M-3.8 -0.8 L-3.8 -0.85 M4.1 -1.15 L4.05 -1.25 M4.1 -1.15 Q3.4 -2.0 3.05 -1.55 L2.85 -1.3 M-3.1 0.2 L-3.05 0.25 M4.2 0.0 Q3.25 -0.3 2.7 1.1" fill="none" stroke="#000000" stroke-linecap="round" stroke-linejoin="round" stroke-opacity="0.3019608" stroke-width="0.05"/>
      <path d="M-1.45 1.55 L-4.35 1.35 Q-5.9 0.85 -6.3 0.45 L-6.9 -0.1 -7.15 -0.45 -7.35 -1.7 Q-7.2 -2.85 -6.5 -3.3 -6.0 -3.8 -5.05 -3.65 -4.05 -3.0 -4.75 -1.6 -4.7 -2.8 -5.4 -2.7 -5.8 -2.65 -6.0 -2.0 -6.25 -1.35 -5.75 -0.95 -5.3 -0.6 -4.8 -0.5 -4.35 -0.45 -3.8 -0.8" fill="none" stroke="#000000" stroke-linecap="round" stroke-linejoin="miter-clip" stroke-miterlimit="5.0" stroke-opacity="0.4" stroke-width="0.1"/>
    </g>
    <linearGradient gradientTransform="matrix(0.004, 0.0, 0.0, 0.004, 1.35, -0.15)" gradientUnits="userSpaceOnUse" id="fur_217_PatteD2_gradient0" spreadMethod="pad" x1="-819.2" x2="819.2">
      <stop offset="0.0" stop-color="#1d192b"/>
      <stop offset="1.0" stop-color="#292045"/>
    </linearGradient>
    <radialGradient cx="0" cy="0" gradientTransform="matrix(0.006, 0.0, 0.0, 0.006, 4.45, 0.35)" gradientUnits="userSpaceOnUse" id="fur_217_PatteD2_gradient1" r="819.2" spreadMethod="pad">
      <stop offset="0.0" stop-color="#170436"/>
      <stop offset="1.0" stop-color="#110b1a"/>
    </radialGradient>
  </defs><defs>
    <g id="fur_217_OreilleG_shape0" transform="matrix(1.0, 0.0, 0.0, 1.0, 4.1, 11.15)">
      <path d="M1.5 1.25 L0.25 -2.9 -0.3 0.3 -1.4 -4.9 Q-2.1 -3.2 -2.55 -0.15 L-2.5 -1.2 Q-2.65 -4.1 -3.75 -6.35 -2.9 -5.85 -2.25 -4.4 L-1.95 -7.0 Q-1.8 -8.45 -1.9 -11.0 L0.1 -6.9 Q1.85 -3.05 1.5 1.25" fill="#170436" fill-rule="evenodd" stroke="none"/>
      <path d="M-2.55 -0.15 Q-2.1 -3.2 -1.4 -4.9 L-0.3 0.3 0.25 -2.9 1.5 1.25 1.25 3.3 1.1 4.6 1.1 4.65 1.1 4.8 0.4 7.6 0.0 7.85 Q-0.55 7.85 -1.2 6.85 L-2.3 4.65 Q-2.75 3.45 -2.7 2.05 L-2.55 -0.15" fill="#110b1a" fill-rule="evenodd" stroke="none"/>
      <path d="M1.5 1.25 Q1.85 -3.05 0.1 -6.9 L-1.9 -11.0 Q-1.8 -8.45 -1.95 -7.0 L-2.25 -4.4 Q-2.9 -5.85 -3.75 -6.35 -2.65 -4.1 -2.5 -1.2 L-2.55 -0.15 -2.7 2.05 Q-2.75 3.45 -2.3 4.65 L-1.2 6.85 Q-0.55 7.85 0.0 7.85 L0.4 7.6 1.1 4.8 1.1 4.65 1.1 4.6 1.25 3.3 1.5 1.25 Z" fill="none" stroke="#000000" stroke-linecap="round" stroke-linejoin="miter-clip" stroke-miterlimit="5.0" stroke-opacity="0.4" stroke-width="0.30000000000000004"/>
    </g>
  </defs><defs>
    <g id="fur_217_OreilleD_shape0" transform="matrix(1.0, 0.0, 0.0, 1.0, 11.7, 14.3)">
      <path d="M-10.05 -9.8 L-6.0 -6.7 1.4 -5.1 4.65 -2.55 6.25 3.85 6.15 4.4 3.75 3.15 Q1.0 -1.7 -2.5 -2.7 -8.15 -4.35 -9.95 -7.95 L-10.05 -9.8" fill="#2c2547" fill-rule="evenodd" stroke="none"/>
      <path d="M-9.95 -7.95 Q-8.15 -4.35 -2.5 -2.7 1.0 -1.7 3.75 3.15 L6.15 4.4 5.55 6.65 Q5.3 6.85 5.0 7.0 2.25 8.05 -0.4 7.65 0.8 5.45 -0.85 3.75 -2.5 2.1 -4.15 2.25 -5.6 2.25 -5.55 4.35 -7.3 1.95 -8.35 -0.75 -9.7 -4.1 -9.95 -7.95" fill="url(#fur_217_OreilleD_gradient0)" fill-rule="evenodd" stroke="none"/>
      <path d="M5.0 7.0 L3.2 8.0 0.7 8.4 Q-0.8 8.35 -1.7 7.8 -0.5 7.4 -0.65 5.85 -0.85 4.3 -2.3 3.4 -3.75 2.55 -4.6 3.25 -5.15 4.0 -4.75 5.25 -4.4 6.35 -3.55 7.2 -6.15 6.3 -8.75 1.45 L-9.45 0.0 Q-9.9 -1.35 -9.8 -2.5 L-8.35 -0.75 Q-7.3 1.95 -5.55 4.35 -5.6 2.25 -4.15 2.25 -2.5 2.1 -0.85 3.75 0.8 5.45 -0.4 7.65 2.25 8.05 5.0 7.0" fill="#1d192b" fill-rule="evenodd" stroke="none"/>
      <path d="M-10.05 -9.8 L-9.95 -7.95 Q-9.7 -4.1 -8.35 -0.75 L-9.8 -2.5 Q-9.9 -1.35 -9.45 0.0 -11.4 -4.7 -11.55 -12.6 L-10.05 -9.8" fill="#292045" fill-rule="evenodd" stroke="none"/>
      <path d="M6.15 4.4 L6.25 3.85 4.65 -2.55 1.4 -5.1 -6.0 -6.7 -10.05 -9.8 -11.55 -12.6 M3.75 3.15 L6.15 4.4 5.55 6.65 Q5.3 6.85 5.0 7.0 L3.2 8.0" fill="none" stroke="#000000" stroke-linecap="round" stroke-linejoin="miter-clip" stroke-miterlimit="5.0" stroke-opacity="0.4" stroke-width="0.1"/>
      <path d="M3.2 8.0 L0.7 8.4 Q-0.8 8.35 -1.7 7.8 -0.5 7.4 -0.65 5.85 -0.85 4.3 -2.3 3.4 -3.75 2.55 -4.6 3.25 -5.15 4.0 -4.75 5.25 -4.4 6.35 -3.55 7.2 -6.15 6.3 -8.75 1.45 L-9.45 0.0 Q-11.4 -4.7 -11.55 -12.6" fill="none" stroke="#000000" stroke-linecap="round" stroke-linejoin="miter-clip" stroke-miterlimit="5.0" stroke-opacity="0.4" stroke-width="0.30000000000000004"/>
      <path d="M1.15 -7.35 L2.35 -7.05 Q4.05 -6.5 4.95 -5.4 6.35 -3.8 6.95 -2.65 7.55 -1.5 7.6 -0.1 L7.6 3.35 7.0 5.05 6.1 6.4 Q5.0 7.6 3.2 8.0 3.7 7.65 3.3 6.45 L5.15 6.5 Q6.0 5.7 5.0 4.45 2.7 2.25 1.15 3.85 0.9 4.4 1.35 5.0 1.75 5.55 2.2 5.55 2.65 5.55 2.75 5.1 2.85 4.65 2.3 4.15 3.55 3.9 3.5 5.05 3.4 6.15 2.35 6.2 1.3 6.2 0.55 5.5 -0.2 4.75 -0.15 3.9 0.45 1.2 4.35 2.35 4.25 1.55 4.3 -0.1 4.25 -2.1 2.5 -3.3 1.4 -4.1 0.45 -4.2 -1.6 -4.35 -4.1 -5.2 L-1.35 -5.3 Q-3.1 -6.4 -4.35 -7.65 L1.15 -7.35 M4.35 2.35 L4.4 2.8 Q4.7 3.65 5.5 4.15 4.7 3.65 4.4 2.8 L4.35 2.35" fill="url(#fur_217_OreilleD_gradient1)" fill-rule="evenodd" stroke="none"/>
      <path d="M-4.1 -5.2 L-5.1 -5.55 Q-8.75 -6.9 -10.6 -8.55 L-11.55 -12.55 -11.55 -13.6 Q-10.15 -10.55 -7.0 -9.5 -7.8 -11.0 -7.4 -13.3 -5.25 -8.7 -1.5 -7.75 L1.15 -7.35 -4.35 -7.65 Q-3.1 -6.4 -1.35 -5.3 L-4.1 -5.2" fill="url(#fur_217_OreilleD_gradient2)" fill-rule="evenodd" stroke="none"/>
      <path d="M1.15 -7.35 L2.35 -7.05 Q4.05 -6.5 4.95 -5.4 6.35 -3.8 6.95 -2.65 7.55 -1.5 7.6 -0.1 L7.6 3.35 M3.2 8.0 Q3.7 7.65 3.3 6.45 L5.15 6.5 Q6.0 5.7 5.0 4.45 2.7 2.25 1.15 3.85 0.9 4.4 1.35 5.0 1.75 5.55 2.2 5.55 2.65 5.55 2.75 5.1 2.85 4.65 2.3 4.15 3.55 3.9 3.5 5.05 3.4 6.15 2.35 6.2 1.3 6.2 0.55 5.5 -0.2 4.75 -0.15 3.9 0.45 1.2 4.35 2.35 4.25 1.55 4.3 -0.1 4.25 -2.1 2.5 -3.3 1.4 -4.1 0.45 -4.2 -1.6 -4.35 -4.1 -5.2 L-5.1 -5.55 Q-8.75 -6.9 -10.6 -8.55 M-11.55 -12.55 L-11.55 -13.6 Q-10.15 -10.55 -7.0 -9.5 -7.8 -11.0 -7.4 -13.3 -5.25 -8.7 -1.5 -7.75 L1.15 -7.35 M5.5 4.15 Q4.7 3.65 4.4 2.8 L4.35 2.35" fill="none" stroke="#000000" stroke-linecap="round" stroke-linejoin="miter-clip" stroke-miterlimit="5.0" stroke-opacity="0.4" stroke-width="0.30000000000000004"/>
    </g>
    <linearGradient gradientTransform="matrix(-0.0063, 0.0076, -0.0074, -0.0061, -6.1, 6.75)" gradientUnits="userSpaceOnUse" id="fur_217_OreilleD_gradient0" spreadMethod="pad" x1="-819.2" x2="819.2">
      <stop offset="0.0" stop-color="#403e5e"/>
      <stop offset="1.0" stop-color="#655d88"/>
    </linearGradient>
    <linearGradient gradientTransform="matrix(0.0038, -0.0062, 0.0082, 0.005, 5.7, -7.35)" gradientUnits="userSpaceOnUse" id="fur_217_OreilleD_gradient1" spreadMethod="pad" x1="-819.2" x2="819.2">
      <stop offset="0.0" stop-color="#1d192b"/>
      <stop offset="1.0" stop-color="#403552"/>
    </linearGradient>
    <linearGradient gradientTransform="matrix(0.0035, -0.0069, 0.0045, 0.0023, -1.6, -13.65)" gradientUnits="userSpaceOnUse" id="fur_217_OreilleD_gradient2" spreadMethod="pad" x1="-819.2" x2="819.2">
      <stop offset="0.0" stop-color="#292045"/>
      <stop offset="1.0" stop-color="#5d5075"/>
    </linearGradient>
  </defs><defs>
    <g id="fur_217_PatteD_shape0" transform="matrix(1.0, 0.0, 0.0, 1.0, 7.45, 3.95)">
      <path d="M2.3 -1.65 L2.8 -1.1 3.6 -0.1 Q4.05 0.5 4.2 2.1 L3.45 0.9 4.2 2.1 Q4.55 2.6 3.5 3.25 L3.4 3.55 Q3.25 3.75 2.7 3.75 1.95 2.25 -0.1 0.75 L-0.15 0.75 Q-1.5 1.0 -2.3 0.75 L-2.65 0.7 -3.2 0.2 -3.8 -0.85 -3.8 -0.9 Q-4.15 -2.25 -3.5 -3.1 -2.2 -4.0 -0.9 -3.7 0.65 -3.35 2.0 -1.95 L2.3 -1.65 M2.3 1.6 Q3.25 2.2 3.5 3.25 3.25 2.2 2.3 1.6" fill="url(#fur_217_PatteD_gradient0)" fill-rule="evenodd" stroke="none"/>
      <path d="M-0.1 0.75 Q1.95 2.25 2.7 3.75 2.05 3.9 1.3 3.3 L-1.45 1.55 -0.1 0.75" fill="url(#fur_217_PatteD_gradient1)" fill-rule="evenodd" stroke="none"/>
      <path d="M-3.8 -0.9 L-3.8 -0.85 -3.2 0.2 -2.65 0.7 Q-5.8 0.45 -6.85 -0.2 -7.4 -0.8 -7.3 -1.8 -7.15 -2.95 -6.45 -3.4 -5.95 -3.9 -5.0 -3.75 -4.0 -3.1 -4.7 -1.7 -4.65 -2.9 -5.35 -2.8 -5.75 -2.75 -5.95 -2.1 -6.2 -1.45 -5.7 -1.05 L-4.75 -0.6 Q-4.3 -0.55 -3.8 -0.9" fill="#1d192b" fill-rule="evenodd" stroke="none"/>
      <path d="M-2.65 0.7 L-2.3 0.75 Q-1.5 1.0 -0.15 0.75 L-0.1 0.75 -1.45 1.55 -4.3 1.25 -6.25 0.35 -6.85 -0.2 Q-5.8 0.45 -2.65 0.7" fill="#110b1a" fill-rule="evenodd" stroke="none"/>
      <path d="M4.2 2.1 Q4.05 0.5 3.6 -0.1 L2.8 -1.1 2.3 -1.65 M2.7 3.75 Q3.25 3.75 3.4 3.55 L3.5 3.25 Q3.25 2.2 2.3 1.6 M4.2 2.1 L3.45 0.9 M3.5 3.25 Q4.55 2.6 4.2 2.1 M2.7 3.75 Q2.05 3.9 1.3 3.3 L-1.45 1.55 -4.3 1.25 -6.25 0.35 -6.85 -0.2 Q-7.4 -0.8 -7.3 -1.8 -7.15 -2.95 -6.45 -3.4 -5.95 -3.9 -5.0 -3.75 -4.0 -3.1 -4.7 -1.7 -4.65 -2.9 -5.35 -2.8 -5.75 -2.75 -5.95 -2.1 -6.2 -1.45 -5.7 -1.05 L-4.75 -0.6 Q-4.3 -0.55 -3.8 -0.9" fill="none" stroke="#000000" stroke-linecap="round" stroke-linejoin="miter-clip" stroke-miterlimit="5.0" stroke-opacity="0.4" stroke-width="0.30000000000000004"/>
    </g>
    <radialGradient cx="0" cy="0" gradientTransform="matrix(0.0051, 0.0, 0.0, 0.0051, 3.2, 1.75)" gradientUnits="userSpaceOnUse" id="fur_217_PatteD_gradient0" r="819.2" spreadMethod="pad">
      <stop offset="0.0" stop-color="#292045"/>
      <stop offset="1.0" stop-color="#1d192b"/>
    </radialGradient>
    <radialGradient cx="0" cy="0" gradientTransform="matrix(0.0042, 0.0, 0.0, 0.0042, 2.25, 3.6)" gradientUnits="userSpaceOnUse" id="fur_217_PatteD_gradient1" r="819.2" spreadMethod="pad">
      <stop offset="0.0" stop-color="#170436"/>
      <stop offset="1.0" stop-color="#110b1a"/>
    </radialGradient>
  </defs><defs>
    <g id="fur_217_Oeil3_shape0" transform="matrix(1.0, 0.0, 0.0, 1.0, 2.0, 1.3)">
      <path d="M-1.8 1.95 Q-1.55 -0.75 0.15 -1.05 1.85 -1.35 2.2 0.25" fill="none" stroke="#000000" stroke-linecap="round" stroke-linejoin="round" stroke-opacity="0.7137255" stroke-width="0.4"/>
    </g>
  </defs><defs>
    <g id="fur_217_Queue_shape0" transform="matrix(1.0, 0.0, 0.0, 1.0, 25.0, 23.9)">
      <path d="M0.5 -11.1 Q2.0 -5.95 0.4 -2.95 -1.2 -9.6 -5.9 -12.55 -1.75 -6.15 -3.45 -0.9 -3.7 -5.2 -6.9 -6.95 L-7.25 -7.45 Q-8.05 -8.75 -7.3 -9.1 -6.75 -9.35 -5.6 -8.45 -7.7 -12.75 -11.8 -14.35 L-14.45 -15.05 Q-16.15 -16.85 -20.2 -18.25 L-16.75 -18.35 Q-19.0 -19.9 -23.1 -20.65 -15.45 -21.75 -9.55 -17.9 -12.1 -21.3 -17.75 -23.75 -3.15 -23.4 3.0 -11.95 1.45 -13.0 0.65 -12.65 0.0 -12.35 0.5 -11.1" fill="url(#fur_217_Queue_gradient0)" fill-rule="evenodd" stroke="none"/>
      <path d="M0.5 -11.1 L0.8 -10.4 Q3.45 -6.55 0.75 0.45 0.25 3.25 1.05 3.7 1.85 4.15 3.5 2.2 1.85 5.8 2.05 8.45 1.95 11.75 1.7 11.85 -1.0 13.15 -4.7 9.9 -7.05 6.4 -4.25 1.2 L-6.15 2.55 Q-4.85 -0.9 -5.5 -3.8 -5.9 -5.5 -6.9 -6.95 -3.7 -5.2 -3.45 -0.9 -1.75 -6.15 -5.9 -12.55 -1.2 -9.6 0.4 -2.95 2.0 -5.95 0.5 -11.1" fill="url(#fur_217_Queue_gradient1)" fill-rule="evenodd" stroke="none"/>
      <path d="M-4.7 9.9 Q-1.0 13.15 1.7 11.85 1.95 11.75 2.05 8.45 2.3 12.5 7.0 14.15 8.85 15.2 7.95 16.1 L8.3 16.3 Q8.05 17.45 5.1 17.4 L-6.15 17.05 Q-9.75 15.8 -11.45 14.05 -8.6 15.15 -7.8 14.25 -6.85 15.2 -4.75 15.6 -5.8 14.35 -5.9 13.45 -2.2 16.9 3.45 16.05 5.05 15.4 2.7 14.55 -2.75 12.8 -4.7 9.9 M-11.9 11.7 Q-12.55 12.0 -12.6 12.85 -14.4 12.05 -16.6 8.6 -18.45 5.75 -17.7 0.25 -17.15 8.2 -11.9 11.7 M2.7 14.55 L4.05 14.95 Q6.95 15.55 7.95 16.1 6.95 15.55 4.05 14.95 L2.7 14.55" fill="#110b1a" fill-rule="evenodd" stroke="none"/>
      <path d="M-5.5 -3.8 Q-4.85 -0.9 -6.15 2.55 L-4.25 1.2 Q-7.05 6.4 -4.7 9.9 -2.75 12.8 2.7 14.55 5.05 15.4 3.45 16.05 -2.2 16.9 -5.9 13.45 -5.8 14.35 -4.75 15.6 -6.85 15.2 -7.8 14.25 -7.3 13.7 -7.8 12.9 L-8.4 12.25 -9.25 11.8 Q-10.3 11.35 -11.15 11.45 -11.6 11.5 -11.9 11.7 -17.15 8.2 -17.7 0.25 L-17.3 -2.1 Q-16.85 1.6 -16.25 3.85 L-15.75 0.35 Q-15.6 5.7 -14.0 8.3 -14.3 3.35 -11.45 -1.25 -12.75 3.2 -11.85 7.3 -8.1 3.0 -9.2 -5.45 -6.6 -0.8 -7.7 4.65 -5.55 1.0 -5.5 -3.8" fill="url(#fur_217_Queue_gradient2)" fill-rule="evenodd" stroke="none"/>
      <path d="M-6.9 -6.95 Q-5.9 -5.5 -5.5 -3.8 -5.55 1.0 -7.7 4.65 -6.6 -0.8 -9.2 -5.45 -8.1 3.0 -11.85 7.3 -12.75 3.2 -11.45 -1.25 -14.3 3.35 -14.0 8.3 -15.6 5.7 -15.75 0.35 L-15.7 0.15 -15.4 -1.95 Q-14.95 -9.8 -24.25 -10.45 -16.25 -12.0 -12.7 -7.85 -14.35 -13.0 -22.15 -15.05 -17.75 -15.65 -14.45 -15.05 L-11.8 -14.35 Q-7.7 -12.75 -5.6 -8.45 -6.75 -9.35 -7.3 -9.1 -8.05 -8.75 -7.25 -7.45 L-6.9 -6.95" fill="url(#fur_217_Queue_gradient3)" fill-rule="evenodd" stroke="none"/>
      <path d="M2.05 8.45 Q1.85 5.8 3.5 2.2 1.85 4.15 1.05 3.7 0.25 3.25 0.75 0.45 3.45 -6.55 0.8 -10.4 L0.5 -11.1 Q0.0 -12.35 0.65 -12.65 1.45 -13.0 3.0 -11.95 -3.15 -23.4 -17.75 -23.75 -12.1 -21.3 -9.55 -17.9 -15.45 -21.75 -23.1 -20.65 -19.0 -19.9 -16.75 -18.35 L-20.2 -18.25 Q-16.15 -16.85 -14.45 -15.05 L-11.8 -14.35 Q-7.7 -12.75 -5.6 -8.45 -6.75 -9.35 -7.3 -9.1 -8.05 -8.75 -7.25 -7.45 L-6.9 -6.95 Q-5.9 -5.5 -5.5 -3.8 -4.85 -0.9 -6.15 2.55 L-4.25 1.2 Q-7.05 6.4 -4.7 9.9 -2.75 12.8 2.7 14.55 L4.05 14.95 Q6.95 15.55 7.95 16.1 L8.3 16.3 Q8.05 17.45 5.1 17.4 L-6.15 17.05 Q-9.75 15.8 -11.45 14.05 -8.6 15.15 -7.8 14.25 -7.3 13.7 -7.8 12.9 L-8.4 12.25 -9.25 11.8 Q-10.3 11.35 -11.15 11.45 -11.6 11.5 -11.9 11.7 -12.55 12.0 -12.6 12.85 -14.4 12.05 -16.6 8.6 -18.45 5.75 -17.7 0.25 L-17.3 -2.1 Q-16.85 1.6 -16.25 3.85 L-15.75 0.35 M2.05 8.45 Q2.3 12.5 7.0 14.15 8.85 15.2 7.95 16.1 M-15.7 0.15 L-15.4 -1.95 Q-14.95 -9.8 -24.25 -10.45 -16.25 -12.0 -12.7 -7.85 -14.35 -13.0 -22.15 -15.05 -17.75 -15.65 -14.45 -15.05" fill="none" stroke="#000000" stroke-linecap="round" stroke-linejoin="miter-clip" stroke-miterlimit="5.0" stroke-opacity="0.4" stroke-width="0.30000000000000004"/>
    </g>
    <linearGradient gradientTransform="matrix(0.0078, -0.0161, 0.0125, 0.0061, -4.1, -23.35)" gradientUnits="userSpaceOnUse" id="fur_217_Queue_gradient0" spreadMethod="pad" x1="-819.2" x2="819.2">
      <stop offset="0.0" stop-color="#292045"/>
      <stop offset="1.0" stop-color="#5d5075"/>
    </linearGradient>
    <linearGradient gradientTransform="matrix(4.0E-4, -0.0111, 0.0151, 6.0E-4, -2.35, -12.3)" gradientUnits="userSpaceOnUse" id="fur_217_Queue_gradient1" spreadMethod="pad" x1="-819.2" x2="819.2">
      <stop offset="0.0" stop-color="#1d192b"/>
      <stop offset="1.0" stop-color="#403552"/>
    </linearGradient>
    <linearGradient gradientTransform="matrix(0.0023, -0.0131, 0.013, 0.0022, -7.9, -5.25)" gradientUnits="userSpaceOnUse" id="fur_217_Queue_gradient2" spreadMethod="pad" x1="-819.2" x2="819.2">
      <stop offset="0.0" stop-color="#1d192b"/>
      <stop offset="1.0" stop-color="#403552"/>
    </linearGradient>
    <linearGradient gradientTransform="matrix(0.0061, -0.0136, 0.0131, 0.0059, -17.2, -18.65)" gradientUnits="userSpaceOnUse" id="fur_217_Queue_gradient3" spreadMethod="pad" x1="-819.2" x2="819.2">
      <stop offset="0.0" stop-color="#292045"/>
      <stop offset="1.0" stop-color="#5d5075"/>
    </linearGradient>
  </defs><defs>
    <g id="fur_217_PatteG_shape0" transform="matrix(1.0, 0.0, 0.0, 1.0, 3.85, 4.25)">
      <path d="M0.35 -3.75 L1.4 -2.5 2.5 -0.85 3.6 1.35 Q4.15 2.7 3.05 3.75 2.6 4.15 2.2 4.2 1.6 4.3 1.05 3.55 0.2 2.3 -1.45 1.25 -3.1 0.2 -3.65 -1.05 L-3.7 -1.1 Q-4.1 -2.7 -3.2 -3.55 -2.4 -4.4 -1.2 -4.25 -0.05 -4.15 0.35 -3.75 M2.1 1.55 Q3.25 3.05 2.2 4.2 3.25 3.05 2.1 1.55" fill="url(#fur_217_PatteG_gradient0)" fill-rule="evenodd" stroke="none"/>
      <path d="M0.35 -3.75 L1.4 -2.5 2.5 -0.85 3.6 1.35 Q4.15 2.7 3.05 3.75 2.6 4.15 2.2 4.2 1.6 4.3 1.05 3.55 0.2 2.3 -1.45 1.25 -3.1 0.2 -3.65 -1.05 L-3.7 -1.1 M2.2 4.2 Q3.25 3.05 2.1 1.55" fill="none" stroke="#000000" stroke-linecap="round" stroke-linejoin="miter-clip" stroke-miterlimit="5.0" stroke-opacity="0.4" stroke-width="0.30000000000000004"/>
    </g>
    <radialGradient cx="0" cy="0" gradientTransform="matrix(0.0049, 0.0, 0.0, 0.0049, 3.0, 2.95)" gradientUnits="userSpaceOnUse" id="fur_217_PatteG_gradient0" r="819.2" spreadMethod="pad">
      <stop offset="0.0" stop-color="#170436"/>
      <stop offset="1.0" stop-color="#110b1a"/>
    </radialGradient>
  </defs><defs>
    <g id="fur_217_PatteG2_shape0" transform="matrix(1.0, 0.0, 0.0, 1.0, 3.8, 4.15)">
      <path d="M-3.7 -1.1 Q-4.1 -2.7 -3.2 -3.55 -2.4 -4.4 -0.8 -4.0 0.75 -3.6 1.35 -2.6 L2.4 -0.75 Q2.9 0.05 4.0 0.45 7.1 0.4 5.8 1.75 L5.05 2.45 3.55 3.1 1.0 2.95 -1.45 1.25 Q-3.15 0.2 -3.7 -1.1 M5.8 1.75 L5.75 1.3 Q5.65 0.9 4.85 0.75 L4.0 0.45 4.85 0.75 Q5.65 0.9 5.75 1.3 L5.8 1.75 M2.4 1.85 Q4.25 1.0 5.05 2.45 4.25 1.0 2.4 1.85" fill="url(#fur_217_PatteG2_gradient0)" fill-rule="evenodd" stroke="none"/>
      <path d="M2.4 -0.75 Q2.9 0.05 4.0 0.45 7.1 0.4 5.8 1.75 L5.05 2.45 3.55 3.1 1.0 2.95 -1.45 1.25 Q-3.15 0.2 -3.7 -1.1 M5.05 2.45 Q4.25 1.0 2.4 1.85 M4.0 0.45 L4.85 0.75 Q5.65 0.9 5.75 1.3 L5.8 1.75" fill="none" stroke="#000000" stroke-linecap="round" stroke-linejoin="round" stroke-opacity="0.3019608" stroke-width="0.05"/>
    </g>
    <radialGradient cx="0" cy="0" gradientTransform="matrix(0.0054, 0.0, 0.0, 0.0054, 3.55, 1.85)" gradientUnits="userSpaceOnUse" id="fur_217_PatteG2_gradient0" r="819.2" spreadMethod="pad">
      <stop offset="0.0" stop-color="#170436"/>
      <stop offset="1.0" stop-color="#110b1a"/>
    </radialGradient>
  </defs><filter id="color_fur" 				x="-20%" y="-20%" width="140%" height="140%" 				filterUnits="objectBoundingBox" 				primitiveUnits="userSpaceOnUse" 				color-interpolation-filters="sRGB"> 								<feColorMatrix type="matrix" values="1 0 0 0 -0.02941176470588236 			0 1 0 0 -0.15490196078431373 			0 0 1 0 -0.27254901960784317 			0 0 0 1 0" 					x="0%" y="0%" width="100%" height="100%" 					in="colormatrix" result="colormatrix1" /> 			</filter><defs>
    <g id="costume_ears_10_sprite0" transform="matrix(1.0, 0.0, 0.0, 1.0, 0.1, 0.1)">
      <use height="22.6" href="#costume_ears_10_shape0" transform="matrix(1.0, 0.0, 0.0, 1.0, -0.1, -0.1)" width="9.3"/>
    </g>
    <g id="costume_ears_10_shape0" transform="matrix(1.0, 0.0, 0.0, 1.0, 0.1, 0.1)">
      <path d="M1.5 16.8 L0.2 12.4 0.7 11.9 0.6 9.6 0.0 7.1 0.55 6.6 0.0 5.65 0.55 5.15 Q0.2 1.95 1.1 0.0 L1.8 1.5 2.05 0.85 2.85 2.0 3.1 4.25 3.25 2.9 5.05 5.8 4.75 7.5 5.65 6.6 6.5 8.0 5.95 9.75 6.65 9.0 7.8 11.6 6.9 12.6 5.1 12.5 3.1 9.4 3.75 12.0 3.45 11.6 1.8 9.7 3.45 11.6 3.75 14.75 3.75 14.8 Q3.7 16.15 2.7 16.6 L1.5 16.8 M4.2 8.8 L4.75 7.5 4.2 8.8 M3.0 13.9 L3.75 14.75 3.0 13.9 M3.05 5.75 L3.1 9.4 3.05 5.75 M5.6 10.6 L5.1 12.5 5.6 10.6" fill="#808080" fill-rule="evenodd" stroke="none"/>
      <path d="M7.8 11.6 Q9.45 15.95 9.0 19.35 L6.6 21.4 5.25 22.5 5.05 22.3 Q2.55 19.95 1.5 16.8 L2.7 16.6 Q3.7 16.15 3.75 14.8 L3.75 14.75 3.45 11.6 3.75 12.0 3.1 9.4 5.1 12.5 6.9 12.6 7.8 11.6 M5.3 17.3 Q4.6 15.8 3.75 14.8 4.6 15.8 5.3 17.3 L6.6 21.4 5.3 17.3 4.85 15.6 3.75 12.0 4.85 15.6 5.3 17.3 M5.1 12.5 Q4.8 13.85 4.85 15.6 4.8 13.85 5.1 12.5" fill="#5b6466" fill-rule="evenodd" stroke="none"/>
      <path d="M1.5 16.8 L0.2 12.4 0.7 11.9 0.6 9.6 0.0 7.1 0.55 6.6 0.0 5.65 0.55 5.15 Q0.2 1.95 1.1 0.0 L1.8 1.5 2.05 0.85 2.85 2.0 3.1 4.25 3.25 2.9 5.05 5.8 4.75 7.5 5.65 6.6 6.5 8.0 5.95 9.75 6.65 9.0 7.8 11.6 Q9.45 15.95 9.0 19.35 M5.05 22.3 Q2.55 19.95 1.5 16.8 M3.75 12.0 L3.1 9.4 M5.3 17.3 L4.85 15.6 3.75 12.0 M6.6 21.4 L5.3 17.3" fill="none" stroke="#000000" stroke-linecap="round" stroke-linejoin="round" stroke-opacity="0.21960784" stroke-width="0.2"/>
      <path d="M3.75 14.8 L3.75 14.75 3.0 13.9 M4.75 7.5 L4.2 8.8 M3.45 11.6 L1.8 9.7 M3.45 11.6 L3.75 12.0 M3.1 9.4 L3.05 5.75 M3.75 14.8 Q4.6 15.8 5.3 17.3 M4.85 15.6 Q4.8 13.85 5.1 12.5 L5.6 10.6" fill="none" stroke="#000000" stroke-linecap="round" stroke-linejoin="round" stroke-opacity="0.14117648" stroke-width="0.2"/>
    </g>
    <g id="costume_ears_10_sprite1" transform="matrix(1.0, 0.0, 0.0, 1.0, 0.0, 0.0)">
      <use height="7.5" href="#costume_ears_10_shape1" transform="matrix(1.0, 0.0, 0.0, 1.0, 0.0, 0.0)" width="5.1"/>
    </g>
    <g id="costume_ears_10_shape1" transform="matrix(1.0, 0.0, 0.0, 1.0, 0.0, 0.0)">
      <path d="M2.35 4.9 L2.3 4.9 1.9 7.4 0.1 5.6 Q-0.35 2.2 1.65 0.35 L2.85 0.0 Q4.3 0.85 5.1 3.6 L4.2 4.2 2.35 4.9" fill="#434a4f" fill-rule="evenodd" stroke="none"/>
      <path d="M2.35 4.9 L4.2 4.2 M0.1 5.6 L1.9 7.4 2.3 4.9" fill="none" stroke="#000000" stroke-linecap="round" stroke-linejoin="round" stroke-opacity="0.2901961" stroke-width="0.2"/>
    </g>
    <g id="costume_ears_10_sprite2" transform="matrix(1.0, 0.0, 0.0, 1.0, 0.1, 0.1)">
      <use height="6.9" href="#costume_ears_10_shape2" transform="matrix(1.0, 0.0, 0.0, 1.0, -0.1, -0.1)" width="8.0"/>
    </g>
    <g id="costume_ears_10_shape2" transform="matrix(1.0, 0.0, 0.0, 1.0, 0.1, 0.1)">
      <path d="M5.95 4.7 Q5.15 1.95 3.7 1.1 3.1 1.15 2.5 1.45 0.5 3.3 0.95 6.7 L0.15 6.1 0.0 4.5 Q0.15 0.35 4.65 0.0 6.85 0.8 7.8 2.5 L6.95 3.6 5.95 4.7" fill="#857b69" fill-rule="evenodd" stroke="none"/>
      <path d="M5.95 4.7 Q5.15 1.95 3.7 1.1 3.1 1.15 2.5 1.45 0.5 3.3 0.95 6.7 L0.15 6.1 0.0 4.5 Q0.15 0.35 4.65 0.0 6.85 0.8 7.8 2.5 L6.95 3.6 5.95 4.7 5.05 5.3" fill="none" stroke="#000000" stroke-linecap="round" stroke-linejoin="round" stroke-opacity="0.2901961" stroke-width="0.2"/>
    </g>
    <g id="costume_ears_10_sprite3" transform="matrix(1.0, 0.0, 0.0, 1.0, 0.1, 0.1)">
      <use height="25.7" href="#costume_ears_10_shape3" transform="matrix(1.0, 0.0, 0.0, 1.0, -0.1, -0.1)" width="17.1"/>
    </g>
    <g id="costume_ears_10_shape3" transform="matrix(1.0, 0.0, 0.0, 1.0, 0.1, 0.1)">
      <path d="M1.25 9.5 L2.45 10.3 3.5 11.9 3.35 10.9 6.2 12.7 6.3 13.95 6.95 13.25 8.35 14.1 8.35 15.5 8.95 14.75 10.9 16.5 Q14.7 19.95 14.85 22.8 L14.6 25.5 12.3 24.85 Q8.6 23.25 6.0 21.1 L3.2 18.2 3.55 17.75 2.65 16.05 1.2 14.4 1.65 13.95 0.65 13.35 1.05 12.9 Q-0.2 10.6 0.05 9.1 L1.3 10.05 1.25 9.5 M4.05 12.9 L5.15 15.4 5.2 15.45 5.15 15.4 4.05 12.9 M6.2 14.95 L6.3 13.95 6.2 14.95 M5.2 15.45 L5.2 15.55 6.85 17.3 5.2 15.55 5.2 15.45 M7.3 17.05 L7.4 17.95 7.3 17.05 M6.85 17.3 L7.4 17.95 9.05 19.75 10.15 20.95 14.6 25.5 10.15 20.95 9.05 19.75 7.4 17.95 6.85 17.3 4.0 15.95 6.85 17.3" fill="#515c5f" fill-rule="evenodd" stroke="none"/>
      <path d="M1.25 9.5 L2.45 10.3 3.5 11.9 3.35 10.9 6.2 12.7 6.3 13.95 6.95 13.25 8.35 14.1 8.35 15.5 8.95 14.75 10.9 16.5 Q14.7 19.95 14.85 22.8 L14.6 25.5 12.3 24.85 Q8.6 23.25 6.0 21.1 L3.2 18.2 3.55 17.75 2.65 16.05 1.2 14.4 1.65 13.95 0.65 13.35 1.05 12.9 Q-0.2 10.6 0.05 9.1 L1.3 10.05 1.25 9.5 M6.85 17.3 L5.2 15.55 5.2 15.45 M14.6 25.5 L10.15 20.95 9.05 19.75 7.4 17.95 6.85 17.3" fill="none" stroke="#000000" stroke-linecap="round" stroke-linejoin="round" stroke-opacity="0.21960784" stroke-width="0.2"/>
      <path d="M6.3 13.95 L6.2 14.95 M5.2 15.45 L5.15 15.4 4.05 12.9 M7.4 17.95 L7.3 17.05 M6.85 17.3 L4.0 15.95" fill="none" stroke="#000000" stroke-linecap="round" stroke-linejoin="round" stroke-opacity="0.14117648" stroke-width="0.2"/>
      <path d="M13.55 1.55 L13.9 1.05 14.3 2.4 14.2 4.35 14.6 3.45 15.6 6.6 14.95 7.75 15.75 7.5 16.3 9.1 15.5 10.3 16.3 10.0 16.7 12.6 Q17.4 17.85 15.75 20.55 L14.1 22.75 12.8 20.95 Q11.1 17.4 10.5 14.1 10.2 11.95 10.3 9.85 L10.75 9.7 11.05 7.65 11.05 5.35 11.7 5.2 11.3 4.2 11.85 4.0 Q12.25 1.2 13.25 0.0 L13.2 2.05 13.55 1.55 M13.85 11.1 L13.3 12.0 13.85 11.1 M15.05 10.8 L14.3 12.1 13.5 14.5 14.3 12.1 15.05 10.8 M14.25 8.65 L14.95 7.75 14.25 8.65 M13.3 11.1 L13.3 12.0 13.5 14.5 13.5 16.15 13.5 14.5 13.3 12.0 13.3 11.1 12.1 8.3 13.3 11.1 13.2 8.6 13.3 11.1 M13.5 16.15 L14.1 22.75 13.5 16.15 12.8 13.35 12.25 12.3 12.8 13.35 13.5 16.15" fill="#515c5f" fill-rule="evenodd" stroke="none"/>
      <path d="M13.25 0.0 L13.55 1.55 13.2 2.05 13.25 0.0" fill="#525a5d" fill-rule="evenodd" stroke="none"/>
      <path d="M13.25 0.0 L13.55 1.55 13.9 1.05 14.3 2.4 14.2 4.35 14.6 3.45 15.6 6.6 14.95 7.75 15.75 7.5 16.3 9.1 15.5 10.3 16.3 10.0 16.7 12.6 Q17.4 17.85 15.75 20.55 L14.1 22.75 12.8 20.95 Q11.1 17.4 10.5 14.1 10.2 11.95 10.3 9.85 L10.75 9.7 11.05 7.65 11.05 5.35 11.7 5.2 11.3 4.2 11.85 4.0 Q12.25 1.2 13.25 0.0 L13.2 2.05 13.55 1.55 M13.5 16.15 L13.5 14.5 13.3 12.0 13.3 11.1 13.2 8.6 M14.1 22.75 L13.5 16.15" fill="none" stroke="#000000" stroke-linecap="round" stroke-linejoin="round" stroke-opacity="0.21960784" stroke-width="0.2"/>
      <path d="M14.95 7.75 L14.25 8.65 M13.5 14.5 L14.3 12.1 15.05 10.8 M13.3 12.0 L13.85 11.1 M13.3 11.1 L12.1 8.3 M13.5 16.15 L12.8 13.35 12.25 12.3" fill="none" stroke="#000000" stroke-linecap="round" stroke-linejoin="round" stroke-opacity="0.14117648" stroke-width="0.2"/>
    </g>
    <g id="costume_ears_10_sprite4" transform="matrix(1.0, 0.0, 0.0, 1.0, 0.0, 0.1)">
      <use height="28.15" href="#costume_ears_10_shape4" transform="matrix(1.0, 0.0, 0.0, 1.0, 0.0, -0.1)" width="30.3"/>
    </g>
    <g id="costume_ears_10_shape4" transform="matrix(1.0, 0.0, 0.0, 1.0, 0.0, 0.1)">
      <path d="M15.15 27.65 Q12.9 25.5 12.2 22.25 13.55 23.35 15.05 21.9 15.35 23.55 16.45 24.15 15.7 26.15 17.35 28.05 L15.15 27.65" fill="#808080" fill-rule="evenodd" stroke="none"/>
      <path d="M28.25 4.15 L27.55 4.5 28.05 3.75 28.25 4.15 M29.75 8.6 L28.9 9.1 29.7 7.95 29.75 8.6 M0.35 16.15 L0.05 14.5 Q-0.3 9.7 2.15 7.3 4.6 4.95 6.8 6.2 L6.15 7.7 Q5.15 7.05 3.9 7.3 2.2 8.25 1.3 10.25 0.35 12.95 0.35 16.15" fill="#434c4f" fill-rule="evenodd" stroke="none"/>
      <path d="M27.55 4.5 L28.25 4.15 29.35 6.45 28.85 7.35 28.9 9.1 29.75 8.6 29.75 10.45 Q29.15 11.2 28.7 12.3 L29.45 12.4 27.85 14.45 Q28.55 11.35 28.2 8.85 27.7 5.15 24.95 1.6 L25.45 0.0 Q26.25 1.1 26.85 1.4 26.85 2.7 27.55 4.5" fill="#5a5e5f" fill-rule="evenodd" stroke="none"/>
      <path d="M28.05 3.75 L27.55 4.5 Q26.85 2.7 26.85 1.4 28.35 1.6 28.05 3.75 M29.45 12.4 L28.7 12.3 Q29.15 11.2 29.75 10.45 L30.2 11.25 Q30.35 11.8 29.45 12.4 M28.9 9.1 L28.85 7.35 29.35 6.45 Q29.9 6.7 29.85 7.2 L29.7 7.95 28.9 9.1 M20.9 1.95 Q21.85 2.95 23.6 3.7 L24.05 3.9 Q25.8 4.6 26.25 5.5 L23.1 4.6 Q21.55 4.35 20.9 1.95 M27.05 9.15 L24.5 8.65 23.45 8.5 Q22.65 8.2 21.8 7.55 L20.95 6.7 20.75 5.9 Q21.35 6.55 23.8 7.6 26.05 8.05 27.05 9.15 M27.65 12.85 L24.4 12.5 Q22.15 12.15 21.05 10.0 24.65 11.3 27.65 12.85" fill="#808080" fill-rule="evenodd" stroke="none"/>
      <path d="M20.9 1.95 Q21.55 4.35 23.1 4.6 L26.25 5.5 26.4 6.2 22.65 5.0 Q21.1 4.35 20.9 1.95 M20.95 6.7 L21.8 7.55 Q22.65 8.2 23.45 8.5 L24.5 8.65 27.05 9.15 27.2 9.2 26.95 9.75 Q25.7 9.15 23.45 8.9 L21.15 7.5 20.95 6.7 M27.65 12.85 L27.45 13.4 23.75 12.75 Q22.2 12.05 21.8 11.6 L21.05 10.0 Q22.15 12.15 24.4 12.5 L27.65 12.85" fill="#434d4f" fill-rule="evenodd" stroke="none"/>
      <path d="M24.95 1.6 Q27.7 5.15 28.2 8.85 28.55 11.35 27.85 14.45 26.55 13.2 24.45 13.0 L23.6 12.95 Q22.45 12.9 21.15 13.55 L20.0 14.2 19.4 12.75 Q17.55 9.05 15.65 6.1 L14.8 5.35 15.95 5.1 17.4 4.45 Q18.7 3.55 20.05 1.5 21.0 0.25 24.95 1.6 M26.25 5.5 Q26.0 4.35 24.6 3.4 23.75 2.8 20.9 1.95 21.1 4.35 22.65 5.0 L26.4 6.2 26.25 5.5 M20.75 5.9 L20.95 6.7 21.15 7.5 23.45 8.9 Q25.7 9.15 26.95 9.75 L27.2 9.2 26.55 8.05 24.9 7.05 20.75 5.9 M21.05 10.0 L21.8 11.6 Q22.2 12.05 23.75 12.75 L27.45 13.4 27.65 12.85 Q27.45 11.85 26.9 11.45 26.2 10.95 25.15 10.55 L21.05 10.0" fill="url(#costume_ears_10_gradient0)" fill-rule="evenodd" stroke="none"/>
      <path d="M26.25 5.5 Q25.8 4.6 24.05 3.9 L23.6 3.7 Q21.85 2.95 20.9 1.95 23.75 2.8 24.6 3.4 26.0 4.35 26.25 5.5 M27.05 9.15 Q26.05 8.05 23.8 7.6 21.35 6.55 20.75 5.9 L24.9 7.05 26.55 8.05 27.2 9.2 27.05 9.15 M21.05 10.0 L25.15 10.55 Q26.2 10.95 26.9 11.45 27.45 11.85 27.65 12.85 24.65 11.3 21.05 10.0" fill="#afafaf" fill-rule="evenodd" stroke="none"/>
      <path d="M20.0 14.2 L17.2 13.85 Q14.35 15.0 13.0 20.15 L10.25 11.85 Q12.6 12.15 13.75 9.1 L14.8 5.35 15.65 6.1 Q17.55 9.05 19.4 12.75 L20.0 14.2" fill="url(#costume_ears_10_gradient1)" fill-rule="evenodd" stroke="none"/>
      <path d="M13.0 20.15 L13.0 20.2 Q8.85 22.45 4.65 20.85 1.25 19.55 0.35 16.15 0.35 12.95 1.3 10.25 2.2 8.25 3.9 7.3 5.15 7.05 6.15 7.7 L5.6 8.8 3.25 8.85 Q1.8 10.05 1.8 12.4 1.8 16.15 3.75 17.75 5.6 19.35 8.0 18.65 10.4 17.9 10.25 11.85 L13.0 20.15" fill="url(#costume_ears_10_gradient2)" fill-rule="evenodd" stroke="none"/>
      <path d="M28.25 4.15 L28.05 3.75 Q28.35 1.6 26.85 1.4 26.25 1.1 25.45 0.0 M24.95 1.6 Q27.7 5.15 28.2 8.85 28.55 11.35 27.85 14.45 M29.75 10.45 L29.75 8.6 29.7 7.95 29.85 7.2 Q29.9 6.7 29.35 6.45 L28.25 4.15 M29.75 10.45 L30.2 11.25 Q30.35 11.8 29.45 12.4 M15.65 6.1 Q17.55 9.05 19.4 12.75" fill="none" stroke="#000000" stroke-linecap="round" stroke-linejoin="round" stroke-opacity="0.2901961" stroke-width="0.2"/>
    </g>
    <linearGradient gradientTransform="matrix(0.0075, -9.0E-4, 9.0E-4, 0.0082, 22.15, 7.45)" gradientUnits="userSpaceOnUse" id="costume_ears_10_gradient0" spreadMethod="pad" x1="-819.2" x2="819.2">
      <stop offset="0.0" stop-color="#808080"/>
      <stop offset="1.0" stop-color="#4f5456"/>
    </linearGradient>
    <linearGradient gradientTransform="matrix(0.0058, -0.0011, 0.0016, 0.0089, 15.1, 12.75)" gradientUnits="userSpaceOnUse" id="costume_ears_10_gradient1" spreadMethod="pad" x1="-819.2" x2="819.2">
      <stop offset="0.0" stop-color="#808080"/>
      <stop offset="1.0" stop-color="#4f5655"/>
    </linearGradient>
    <linearGradient gradientTransform="matrix(0.0077, 0.0, 0.0, 0.0087, 6.65, 14.35)" gradientUnits="userSpaceOnUse" id="costume_ears_10_gradient2" spreadMethod="pad" x1="-819.2" x2="819.2">
      <stop offset="0.0" stop-color="#808080"/>
      <stop offset="1.0" stop-color="#4f5356"/>
    </linearGradient>
    <g id="costume_ears_10_sprite5" transform="matrix(1.0, 0.0, 0.0, 1.0, 0.1, 0.1)">
      <use height="33.45" href="#costume_ears_10_shape5" transform="matrix(1.0, 0.0, 0.0, 1.0, -0.1, -0.1)" width="30.8"/>
    </g>
    <g id="costume_ears_10_shape5" transform="matrix(1.0, 0.0, 0.0, 1.0, 0.1, 0.1)">
      <path d="M12.0 25.05 Q14.15 26.7 16.5 24.45 16.95 26.95 18.75 27.65 17.55 30.7 20.0 33.25 L16.6 32.75 Q13.05 29.75 12.0 25.05 M17.6 28.1 Q16.5 27.5 16.2 25.85 14.7 27.3 13.35 26.2 14.05 29.45 16.3 31.6 L18.5 32.0 Q16.85 30.1 17.6 28.1" fill="url(#costume_ears_10_gradient3)" fill-rule="evenodd" stroke="none"/>
      <path d="M12.0 25.05 Q14.15 26.7 16.5 24.45 16.95 26.95 18.75 27.65 17.55 30.7 20.0 33.25 L16.6 32.75 Q13.05 29.75 12.0 25.05 M17.6 28.1 Q16.85 30.1 18.5 32.0 L16.3 31.6 Q14.05 29.45 13.35 26.2 14.7 27.3 16.2 25.85 16.5 27.5 17.6 28.1" fill="none" stroke="#000000" stroke-linecap="round" stroke-linejoin="round" stroke-opacity="0.2901961" stroke-width="0.2"/>
      <path d="M26.1 5.55 Q22.15 4.2 21.2 5.45 19.85 7.5 18.55 8.4 L17.1 9.05 15.95 9.3 15.25 8.7 17.15 8.0 18.6 6.65 19.95 5.2 20.1 4.1 Q20.35 2.15 21.1 0.0 22.95 1.3 24.55 3.3 L26.1 5.55" fill="url(#costume_ears_10_gradient4)" fill-rule="evenodd" stroke="none"/>
      <path d="M21.1 0.0 Q24.7 1.5 26.6 3.95 L26.1 5.55 24.55 3.3 Q22.95 1.3 21.1 0.0" fill="url(#costume_ears_10_gradient5)" fill-rule="evenodd" stroke="none"/>
      <path d="M21.15 18.15 L22.3 17.5 Q23.6 16.85 24.75 16.9 L25.6 16.95 Q27.7 17.15 29.0 18.4 L29.45 19.5 27.2 18.45 Q26.15 17.95 24.75 17.85 23.3 17.7 21.65 19.35 L21.15 18.15" fill="url(#costume_ears_10_gradient6)" fill-rule="evenodd" stroke="none"/>
      <path d="M14.15 24.15 L14.15 24.1 Q15.5 18.95 18.35 17.8 L21.15 18.15 21.65 19.35 17.8 19.2 Q16.3 20.25 15.1 24.5 L14.95 24.95 14.15 24.15" fill="url(#costume_ears_10_gradient7)" fill-rule="evenodd" stroke="none"/>
      <path d="M29.0 18.4 L30.6 16.35 29.45 19.5 29.0 18.4" fill="#735a44" fill-rule="evenodd" stroke="none"/>
      <path d="M13.85 10.0 L11.3 12.1 10.15 12.35 12.95 10.0 13.85 10.0" fill="#73664d" fill-rule="evenodd" stroke="none"/>
      <path d="M7.95 10.15 Q5.75 8.9 3.3 11.25 0.85 13.65 1.2 18.45 L1.5 20.1 Q2.4 23.5 5.8 24.8 10.0 26.4 14.15 24.15 L14.95 24.95 Q12.45 26.3 8.45 26.5 4.3 26.15 1.9 23.2 -0.05 20.0 0.0 16.75 0.05 13.55 0.85 11.35 1.75 8.7 3.2 7.35 4.1 6.45 4.85 6.3 7.65 6.0 9.4 7.05 L11.55 8.7 12.95 10.0 10.15 12.35 8.55 10.6 7.95 10.15" fill="url(#costume_ears_10_gradient8)" fill-rule="evenodd" stroke="none"/>
      <path d="M4.85 6.3 Q5.6 5.85 7.05 5.55 10.7 5.85 13.85 10.0 L12.95 10.0 11.55 8.7 9.4 7.05 Q7.65 6.0 4.85 6.3" fill="#faf8e8" fill-rule="evenodd" stroke="none"/>
      <path d="M15.95 9.3 L14.9 13.05 Q13.75 16.1 11.4 15.8 L10.75 14.35 Q13.1 15.45 14.45 12.2 L14.85 10.65 15.2 8.7 15.25 8.7 15.95 9.3" fill="url(#costume_ears_10_gradient9)" fill-rule="evenodd" stroke="none"/>
      <path d="M7.3 11.65 L7.95 10.15 8.55 10.6 7.85 11.95 7.3 11.65" fill="#5f5137" fill-rule="evenodd" stroke="none"/>
      <path d="M11.4 15.8 Q11.55 21.85 9.15 22.6 6.75 23.3 4.9 21.7 2.95 20.1 2.95 16.35 2.95 14.0 4.4 12.8 L6.75 12.75 7.3 11.65 7.85 11.95 7.1 13.7 Q4.9 12.85 3.8 15.7 3.4 21.65 8.45 22.05 10.75 21.0 10.25 16.45 10.75 16.6 10.75 14.35 L11.4 15.8" fill="url(#costume_ears_10_gradient10)" fill-rule="evenodd" stroke="none"/>
      <path d="M21.1 0.0 Q24.7 1.5 26.6 3.95 L26.1 5.55 Q22.15 4.2 21.2 5.45 19.85 7.5 18.55 8.4 L17.1 9.05 15.95 9.3 14.9 13.05 Q13.75 16.1 11.4 15.8 11.55 21.85 9.15 22.6 6.75 23.3 4.9 21.7 2.95 20.1 2.95 16.35 2.95 14.0 4.4 12.8 L6.75 12.75 7.3 11.65 7.95 10.15 Q5.75 8.9 3.3 11.25 0.85 13.65 1.2 18.45 L1.5 20.1 Q2.4 23.5 5.8 24.8 10.0 26.4 14.15 24.15 L14.15 24.1 Q15.5 18.95 18.35 17.8 L21.15 18.15 22.3 17.5 Q23.6 16.85 24.75 16.9 L25.6 16.95 Q27.7 17.15 29.0 18.4 L30.6 16.35 29.45 19.5 27.2 18.45 Q26.15 17.95 24.75 17.85 23.3 17.7 21.65 19.35 L17.8 19.2 Q16.3 20.25 15.1 24.5 L14.95 24.95 Q12.45 26.3 8.45 26.5 4.3 26.15 1.9 23.2 -0.05 20.0 0.0 16.75 0.05 13.55 0.85 11.35 1.75 8.7 3.2 7.35 4.1 6.45 4.85 6.3 5.6 5.85 7.05 5.55 10.7 5.85 13.85 10.0 L11.3 12.1 10.15 12.35 8.55 10.6 7.85 11.95 7.1 13.7 Q4.9 12.85 3.8 15.7 3.4 21.65 8.45 22.05 10.75 21.0 10.25 16.45 10.75 16.6 10.75 14.35 13.1 15.45 14.45 12.2 L14.85 10.65 15.2 8.7 15.25 8.7 17.15 8.0 18.6 6.65 19.95 5.2 20.1 4.1 Q20.35 2.15 21.1 0.0 22.95 1.3 24.55 3.3 L26.1 5.55 M29.0 18.4 L29.45 19.5 M7.95 10.15 L8.55 10.6 M14.15 24.15 L14.95 24.95" fill="none" stroke="#000000" stroke-linecap="round" stroke-linejoin="round" stroke-opacity="0.2901961" stroke-width="0.2"/>
      <path d="M9.4 23.3 L9.1 23.3 9.0 23.55 9.95 23.6 9.4 23.3 M17.0 13.3 L17.35 13.75 17.15 12.7 16.85 12.7 16.85 13.05 17.0 13.3 16.15 12.95 16.05 12.95 15.65 13.0 Q15.45 13.05 15.35 13.2 L15.25 13.7 15.25 13.85 15.15 14.85 14.9 14.85 14.7 14.35 Q14.7 13.95 15.25 13.7 M16.15 12.95 L15.85 12.65 15.45 12.8 15.65 13.0 M14.8 17.55 L14.55 17.7 Q14.0 17.7 14.0 17.15 L14.15 16.75 Q14.4 16.45 14.7 16.45 15.2 16.45 15.7 17.05 16.2 17.6 16.25 18.1 L17.25 15.6 17.3 15.55 17.5 14.7 17.5 14.5 17.35 13.75 M15.5 16.2 L15.3 15.8 M19.15 16.3 L19.5 16.3 19.7 16.65 Q19.7 17.05 18.65 17.05 19.25 16.9 19.15 16.3 M17.3 15.55 L18.05 14.5 17.5 14.7 M13.1 16.65 L12.8 16.7 M14.35 18.75 L14.55 19.15 M13.65 20.8 L13.95 20.85 M11.95 20.15 L11.95 19.75 M10.95 22.65 L10.7 22.45 10.7 22.2 M12.9 23.55 Q12.35 23.55 12.0 23.0 11.6 22.5 11.6 21.75 11.6 20.9 12.55 20.9 13.05 20.9 13.05 21.45 L12.9 21.8 12.4 21.8 12.4 21.55 M10.0 24.55 L10.0 24.95 10.2 24.95 10.45 24.25 Q10.3 24.1 10.0 24.55" fill="none" stroke="#808080" stroke-linecap="round" stroke-linejoin="round" stroke-width="0.2"/>
      <path d="M14.45 22.1 L15.85 22.5 16.15 22.8 Q16.85 23.45 16.85 24.4 16.85 25.35 16.15 26.0 15.45 26.7 14.45 26.7 13.5 26.7 12.8 26.0 12.25 25.5 12.15 24.9 L12.15 24.4 Q12.15 23.45 12.8 22.8 13.5 22.1 14.45 22.1 M14.3 22.9 Q13.8 22.9 13.35 23.25 12.7 23.7 12.7 24.5 12.65 24.9 13.1 25.4 13.6 26.0 14.3 26.05 14.95 26.1 15.45 25.6 L15.95 24.5 Q15.95 23.65 15.3 23.25 14.85 22.9 14.3 22.9" fill="url(#costume_ears_10_gradient11)" fill-rule="evenodd" stroke="none"/>
      <path d="M14.3 22.9 Q14.85 22.9 15.3 23.25 15.95 23.65 15.95 24.5 L15.45 25.6 Q14.95 26.1 14.3 26.05 13.6 26.0 13.1 25.4 12.65 24.9 12.7 24.5 12.7 23.7 13.35 23.25 13.8 22.9 14.3 22.9" fill="url(#costume_ears_10_gradient12)" fill-rule="evenodd" stroke="none"/>
      <path d="M14.45 22.1 L15.85 22.5 16.15 22.8 Q16.85 23.45 16.85 24.4 16.85 25.35 16.15 26.0 15.45 26.7 14.45 26.7 13.5 26.7 12.8 26.0 12.25 25.5 12.15 24.9 L12.15 24.4 Q12.15 23.45 12.8 22.8 13.5 22.1 14.45 22.1 M14.3 22.9 Q14.85 22.9 15.3 23.25 15.95 23.65 15.95 24.5 L15.45 25.6 Q14.95 26.1 14.3 26.05 13.6 26.0 13.1 25.4 12.65 24.9 12.7 24.5 12.7 23.7 13.35 23.25 13.8 22.9 14.3 22.9" fill="none" stroke="#000000" stroke-linecap="round" stroke-linejoin="round" stroke-opacity="0.2901961" stroke-width="0.2"/>
    </g>
    <linearGradient gradientTransform="matrix(0.0014, 0.0045, -0.0057, 0.0017, 16.05, 28.85)" gradientUnits="userSpaceOnUse" id="costume_ears_10_gradient3" spreadMethod="pad" x1="-819.2" x2="819.2">
      <stop offset="0.0" stop-color="#7e756c"/>
      <stop offset="0.43137254901960786" stop-color="#c9c8c3"/>
      <stop offset="0.9725490196078431" stop-color="#5d422f"/>
    </linearGradient>
    <linearGradient gradientTransform="matrix(-0.0047, 0.0047, -0.004, -0.004, 18.8, 5.45)" gradientUnits="userSpaceOnUse" id="costume_ears_10_gradient4" spreadMethod="pad" x1="-819.2" x2="819.2">
      <stop offset="0.0" stop-color="#807774"/>
      <stop offset="0.4117647058823529" stop-color="#c9c8c3"/>
      <stop offset="1.0" stop-color="#5b3e29"/>
    </linearGradient>
    <linearGradient gradientTransform="matrix(-0.0051, -0.0037, 0.002, -0.0027, 21.45, 1.0)" gradientUnits="userSpaceOnUse" id="costume_ears_10_gradient5" spreadMethod="pad" x1="-819.2" x2="819.2">
      <stop offset="0.0" stop-color="#7b716d"/>
      <stop offset="0.4117647058823529" stop-color="#c9c8c3"/>
      <stop offset="1.0" stop-color="#5f5137"/>
    </linearGradient>
    <linearGradient gradientTransform="matrix(0.0046, 0.0, 0.0, 0.0016, 25.3, 18.2)" gradientUnits="userSpaceOnUse" id="costume_ears_10_gradient6" spreadMethod="pad" x1="-819.2" x2="819.2">
      <stop offset="0.0" stop-color="#857c77"/>
      <stop offset="0.43137254901960786" stop-color="#c9c8c3"/>
      <stop offset="1.0" stop-color="#5b3c21"/>
    </linearGradient>
    <linearGradient gradientTransform="matrix(0.004, -0.0023, 0.0022, 0.0038, 17.65, 20.95)" gradientUnits="userSpaceOnUse" id="costume_ears_10_gradient7" spreadMethod="pad" x1="-819.2" x2="819.2">
      <stop offset="0.00784313725490196" stop-color="#837572"/>
      <stop offset="0.43137254901960786" stop-color="#c9c8c3"/>
      <stop offset="1.0" stop-color="#5d422f"/>
    </linearGradient>
    <linearGradient gradientTransform="matrix(0.0098, 0.0039, -0.0048, 0.0115, 10.35, 17.15)" gradientUnits="userSpaceOnUse" id="costume_ears_10_gradient8" spreadMethod="pad" x1="-819.2" x2="819.2">
      <stop offset="0.00392156862745098" stop-color="#7e7671"/>
      <stop offset="0.47058823529411764" stop-color="#fffdec"/>
      <stop offset="0.9764705882352941" stop-color="#583a24"/>
    </linearGradient>
    <linearGradient gradientTransform="matrix(-0.0034, 0.0028, -0.0028, -0.0034, 12.75, 12.4)" gradientUnits="userSpaceOnUse" id="costume_ears_10_gradient9" spreadMethod="pad" x1="-819.2" x2="819.2">
      <stop offset="0.0" stop-color="#7e7269"/>
      <stop offset="0.43137254901960786" stop-color="#c9c8c3"/>
      <stop offset="0.9764705882352941" stop-color="#5f4a37"/>
    </linearGradient>
    <linearGradient gradientTransform="matrix(-0.0051, -0.003, 0.0034, -0.0059, 6.7, 16.65)" gradientUnits="userSpaceOnUse" id="costume_ears_10_gradient10" spreadMethod="pad" x1="-819.2" x2="819.2">
      <stop offset="0.027450980392156862" stop-color="#79706a"/>
      <stop offset="0.43137254901960786" stop-color="#c9c8c3"/>
      <stop offset="0.9882352941176471" stop-color="#5f4226"/>
    </linearGradient>
    <linearGradient gradientTransform="matrix(0.0028, 7.0E-4, -7.0E-4, 0.0027, 14.5, 24.4)" gradientUnits="userSpaceOnUse" id="costume_ears_10_gradient11" spreadMethod="pad" x1="-819.2" x2="819.2">
      <stop offset="0.0" stop-color="#7b706d"/>
      <stop offset="0.43137254901960786" stop-color="#c9c8c3"/>
      <stop offset="0.9686274509803922" stop-color="#5b432e"/>
    </linearGradient>
    <linearGradient gradientTransform="matrix(-0.0021, -0.0037, 0.0017, -0.001, 14.7, 25.1)" gradientUnits="userSpaceOnUse" id="costume_ears_10_gradient12" spreadMethod="pad" x1="-819.2" x2="819.2">
      <stop offset="0.0196078431372549" stop-color="#7b706a"/>
      <stop offset="0.43137254901960786" stop-color="#c9c8c3"/>
      <stop offset="0.9921568627450981" stop-color="#5f452c"/>
    </linearGradient>
    <g id="costume_ears_10_shape6" transform="matrix(1.0, 0.0, 0.0, 1.0, -12.75, 16.15)">
      <path d="M14.95 -13.85 L12.75 -16.15 15.2 -14.2 15.4 -14.4 16.3 -14.45 16.95 -13.95 Q18.55 -14.35 20.65 -15.25 18.6 -14.3 17.1 -13.15 L17.1 -13.05 16.5 -12.35 15.7 -12.25 15.35 -12.35 14.1 -11.95 14.95 -12.8 Q14.7 -13.15 14.85 -13.65 L14.95 -13.85 M16.25 -13.55 L16.0 -13.75 15.6 -13.75 15.35 -13.35 Q15.3 -13.15 15.4 -13.05 L15.7 -12.8 16.05 -12.85 16.3 -13.1 16.25 -13.55" fill="#f2f2f2" fill-opacity="0.5921569" fill-rule="evenodd" stroke="none"/>
      <path d="M16.25 -13.55 L16.3 -13.1 16.05 -12.85 15.7 -12.8 15.4 -13.05 Q15.3 -13.15 15.35 -13.35 L15.6 -13.75 16.0 -13.75 16.25 -13.55" fill="#f2f2f2" fill-opacity="0.9411765" fill-rule="evenodd" stroke="none"/>
    </g>
  </defs><defs>
    <g id="costume_neck_26_sprite0" transform="matrix(1.0, 0.0, 0.0, 1.0, 0.0, 0.0)">
      <use height="16.25" href="#costume_neck_26_shape0" transform="matrix(1.0, 0.0, 0.0, 1.0, 0.0, 0.0)" width="30.05"/>
    </g>
    <g id="costume_neck_26_shape0" transform="matrix(1.0, 0.0, 0.0, 1.0, 0.0, 0.0)">
      <path d="M3.75 6.9 L2.35 6.75 Q1.55 6.4 1.25 5.35 -0.15 4.55 0.05 4.15 1.5 3.0 4.75 2.45 L5.6 4.45 2.5 4.2 5.65 5.5 3.75 6.9" fill="#808080" fill-rule="evenodd" stroke="none"/>
      <path d="M3.75 6.9 L5.65 5.5 2.5 4.2 5.6 4.45 4.75 2.45 Q7.85 4.4 7.6 5.8 6.4 6.7 3.75 6.9" fill="#4f4943" fill-rule="evenodd" stroke="none"/>
      <path d="M4.75 2.45 Q1.5 3.0 0.05 4.15 -0.15 4.55 1.25 5.35 1.55 6.4 2.35 6.75 L3.75 6.9 Q6.4 6.7 7.6 5.8 7.85 4.4 4.75 2.45 Z" fill="none" stroke="#000000" stroke-linecap="round" stroke-linejoin="round" stroke-opacity="0.4" stroke-width="0.05"/>
      <path d="M6.6 11.35 Q8.0 9.35 7.7 8.5 L5.2 10.2 6.85 7.85 Q4.85 8.1 3.1 9.7 4.65 7.1 7.3 6.9 L8.3 6.55 Q9.3 8.6 8.25 10.3 L6.6 11.35" fill="#4f4943" fill-rule="evenodd" stroke="none"/>
      <path d="M3.1 9.7 Q4.85 8.1 6.85 7.85 L5.2 10.2 7.7 8.5 Q8.0 9.35 6.6 11.35 5.25 11.95 3.9 12.05 3.3 12.45 3.3 13.2 2.2 12.55 3.1 9.7" fill="#808080" fill-rule="evenodd" stroke="none"/>
      <path d="M6.6 11.35 L8.25 10.3 Q9.3 8.6 8.3 6.55 L7.3 6.9 Q4.65 7.1 3.1 9.7 2.2 12.55 3.3 13.2 3.3 12.45 3.9 12.05 5.25 11.95 6.6 11.35 Z" fill="none" stroke="#000000" stroke-linecap="round" stroke-linejoin="round" stroke-opacity="0.4" stroke-width="0.05"/>
      <path d="M17.15 11.95 Q13.3 8.85 18.65 10.0 L21.25 11.8 25.0 6.9 26.55 5.35 26.05 5.15 22.5 6.65 22.45 6.7 20.25 7.45 12.5 7.85 10.4 7.1 10.4 6.25 Q9.3 7.95 8.55 8.15 7.9 7.85 7.4 7.15 6.65 5.8 8.15 4.8 9.85 4.65 10.4 6.25 14.0 6.35 17.6 4.65 20.8 3.8 24.55 1.2 26.45 -1.1 28.6 1.1 L29.2 1.75 29.95 3.45 Q30.25 4.75 29.7 6.3 L29.7 6.35 28.35 8.25 Q27.8 9.25 27.4 10.35 25.6 12.9 23.8 13.4 22.0 14.15 20.15 16.25 19.75 16.4 18.65 14.45 18.05 13.05 15.75 11.0 L17.15 11.95 18.95 13.25 17.15 11.95 M18.5 9.45 L16.4 8.25 23.25 8.05 Q21.4 9.65 19.4 9.6 L18.5 9.45" fill="#808080" fill-rule="evenodd" stroke="none"/>
      <path d="M12.5 7.85 L20.25 7.45 22.45 6.7 22.5 6.65 26.05 5.15 26.55 5.35 25.0 6.9 21.25 11.8 18.65 10.0 Q13.3 8.85 17.15 11.95 L15.75 11.0 10.35 8.0 10.4 7.1 12.5 7.85 18.5 9.45 12.5 7.85 M19.4 9.6 Q21.4 9.65 23.25 8.05 L16.4 8.25 18.5 9.45 19.4 9.6" fill="url(#costume_neck_26_gradient0)" fill-rule="evenodd" stroke="none"/>
      <path d="M10.35 8.0 L8.55 8.15 Q9.3 7.95 10.4 6.25 L10.4 7.1 10.35 8.0" fill="#4f4943" fill-rule="evenodd" stroke="none"/>
      <path d="M17.15 11.95 L18.95 13.25 M8.55 8.15 Q7.9 7.85 7.4 7.15 6.65 5.8 8.15 4.8 9.85 4.65 10.4 6.25 14.0 6.35 17.6 4.65 20.8 3.8 24.55 1.2 26.45 -1.1 28.6 1.1 L29.2 1.75 29.95 3.45 Q30.25 4.75 29.7 6.3 L29.7 6.35 28.35 8.25 Q27.8 9.25 27.4 10.35 25.6 12.9 23.8 13.4 22.0 14.15 20.15 16.25 19.75 16.4 18.65 14.45 18.05 13.05 15.75 11.0 L10.35 8.0 8.55 8.15 Q9.3 7.95 10.4 6.25 L10.4 7.1 12.5 7.85 18.5 9.45 19.4 9.6 M10.4 7.1 L10.35 8.0 M17.15 11.95 L15.75 11.0" fill="none" stroke="#000000" stroke-linecap="round" stroke-linejoin="round" stroke-opacity="0.4" stroke-width="0.05"/>
    </g>
    <linearGradient gradientTransform="matrix(-0.0011, -0.0031, 0.0039, -0.0014, 18.5, 9.05)" gradientUnits="userSpaceOnUse" id="costume_neck_26_gradient0" spreadMethod="pad" x1="-819.2" x2="819.2">
      <stop offset="0.0" stop-color="#808080"/>
      <stop offset="1.0" stop-color="#4f4943"/>
    </linearGradient>
    <g id="costume_neck_26_sprite1" transform="matrix(1.0, 0.0, 0.0, 1.0, 0.0, 0.0)">
      <use height="11.65" href="#costume_neck_26_shape1" transform="matrix(1.0, 0.0, 0.0, 1.0, 0.0, 0.0)" width="7.8"/>
    </g>
    <g id="costume_neck_26_shape1" transform="matrix(1.0, 0.0, 0.0, 1.0, 0.0, 0.0)">
      <path d="M0.35 5.2 Q-0.05 3.25 1.8 1.5 3.7 -0.65 7.05 0.3 7.6 1.1 7.8 2.0 L6.6 3.6 Q6.8 4.55 7.55 4.9 6.75 5.75 6.2 6.8 L1.75 6.95 2.85 5.45 3.85 5.6 4.4 5.4 Q4.95 4.85 5.1 4.15 L4.45 3.9 5.05 3.25 3.9 3.7 2.05 2.95 2.0 4.4 0.35 5.2 M3.7 8.45 Q3.7 9.1 2.5 11.2 L2.15 11.2 2.15 10.5 2.55 9.3 Q2.8 8.55 3.65 8.2 L3.7 8.45 M1.6 8.55 L0.35 11.65 0.1 11.65 0.0 10.6 0.5 9.4 Q1.05 8.25 1.45 8.25 L1.6 8.55" fill="#808080" fill-rule="evenodd" stroke="none"/>
      <path d="M0.35 5.2 L2.0 4.4 Q2.05 5.2 2.85 5.45 L1.75 6.95 Q1.0 6.6 0.6 6.0 L0.35 5.2 M3.9 3.7 L5.05 3.25 4.45 3.9 3.9 3.7" fill="url(#costume_neck_26_gradient1)" fill-rule="evenodd" stroke="none"/>
    </g>
    <linearGradient gradientTransform="matrix(-0.0011, -0.0027, 0.0014, -6.0E-4, 2.0, 5.35)" gradientUnits="userSpaceOnUse" id="costume_neck_26_gradient1" spreadMethod="pad" x1="-819.2" x2="819.2">
      <stop offset="0.0" stop-color="#808080"/>
      <stop offset="1.0" stop-color="#4f4943"/>
    </linearGradient>
  </defs><defs>
    <g id="costume_tail_26_shape0" transform="matrix(1.0, 0.0, 0.0, 1.0, 7.95, 0.2)">
      <path d="M0.05 -0.05 L-7.8 21.35" fill="none" stroke="#000000" stroke-linecap="round" stroke-linejoin="round" stroke-opacity="0.4" stroke-width="0.30000000000000004"/>
    </g>
    <g id="costume_tail_26_sprite0" transform="matrix(1.0, 0.0, 0.0, 1.0, 0.0, 0.0)">
      <use height="7.8" href="#costume_tail_26_shape1" transform="matrix(1.0, 0.0, 0.0, 1.0, 0.0, 0.0)" width="7.8"/>
    </g>
    <g id="costume_tail_26_shape1" transform="matrix(1.0, 0.0, 0.0, 1.0, 0.0, 0.0)">
      <path d="M4.7 3.05 L5.65 3.5 Q6.1 4.05 6.05 4.6 L5.45 5.6 Q4.65 6.2 3.85 6.15 L2.75 5.8 Q2.25 5.4 2.3 4.75 L2.5 3.75 3.25 4.2 Q3.25 4.5 3.4 4.7 L3.95 5.05 4.45 4.8 4.7 4.35 4.35 3.55 4.7 3.05" fill="#4f4943" fill-rule="evenodd" stroke="none"/>
      <path d="M2.5 3.75 L2.3 4.75 Q2.25 5.4 2.75 5.8 L3.85 6.15 Q4.65 6.2 5.45 5.6 L6.05 4.6 Q6.1 4.05 5.65 3.5 L4.7 3.05 Q4.85 2.4 4.45 1.35 5.5 0.95 7.4 2.15 7.85 3.1 7.8 4.2 7.65 5.8 6.45 6.85 5.25 7.9 3.55 7.8 1.95 7.65 0.9 6.4 0.4 3.95 2.3 1.5 1.75 3.1 2.5 3.75 M4.35 3.55 L4.7 4.35 4.45 4.8 3.95 5.05 3.4 4.7 Q3.25 4.5 3.25 4.2 L3.3 4.2 Q4.0 3.95 4.35 3.55 M7.15 4.8 Q7.2 4.3 6.75 4.7 L5.95 5.7 5.05 6.25 4.25 6.95 4.2 7.1 4.4 7.1 Q5.2 7.15 6.25 6.15 7.15 5.3 7.15 4.8" fill="#808080" fill-rule="evenodd" stroke="none"/>
      <path d="M4.7 3.05 L4.35 3.55 Q4.0 3.95 3.3 4.2 L3.25 4.2 2.5 3.75 Q1.75 3.1 2.3 1.5 0.4 3.95 0.9 6.4 -0.15 5.15 0.0 3.55 0.1 1.95 1.35 0.8 2.6 -0.15 4.2 0.0 5.9 0.1 6.9 1.25 L7.4 2.15 Q5.5 0.95 4.45 1.35 4.85 2.4 4.7 3.05 M7.15 4.8 Q7.15 5.3 6.25 6.15 5.2 7.15 4.4 7.1 L4.2 7.1 4.25 6.95 5.05 6.25 5.95 5.7 6.75 4.7 Q7.2 4.3 7.15 4.8" fill="#e6e6e6" fill-rule="evenodd" stroke="none"/>
      <path d="M0.9 6.4 Q1.95 7.65 3.55 7.8 5.25 7.9 6.45 6.85 7.65 5.8 7.8 4.2 7.85 3.1 7.4 2.15 L6.9 1.25 Q5.9 0.1 4.2 0.0 2.6 -0.15 1.35 0.8 0.1 1.95 0.0 3.55 -0.15 5.15 0.9 6.4 Z" fill="none" stroke="#000000" stroke-linecap="round" stroke-linejoin="round" stroke-opacity="0.4" stroke-width="0.05"/>
    </g>
    <g id="costume_tail_26_shape2" transform="matrix(1.0, 0.0, 0.0, 1.0, 10.2, -7.05)">
      <path d="M-4.65 10.25 Q-4.0 10.45 -3.55 11.25 -0.8 10.8 2.85 9.75 -0.7 10.9 -3.4 12.55 L-3.4 12.65 Q-3.75 13.6 -4.55 13.9 -5.15 14.1 -5.9 13.9 L-6.55 13.65 -8.7 14.1 -7.15 12.75 Q-7.5 12.15 -7.2 11.35 L-7.05 11.0 Q-8.25 9.0 -10.2 7.05 L-6.55 10.5 -6.15 10.2 -4.65 10.25 M-5.9 11.35 L-6.4 11.95 -6.3 12.4 -5.85 13.0 -5.2 12.9 Q-4.85 12.85 -4.85 12.5 -4.7 12.2 -4.8 11.75 -4.9 11.45 -5.3 11.4 L-5.9 11.35" fill="#f2f2f2" fill-opacity="0.5921569" fill-rule="evenodd" stroke="none"/>
      <path d="M-5.9 11.35 L-5.3 11.4 Q-4.9 11.45 -4.8 11.75 -4.7 12.2 -4.85 12.5 -4.85 12.85 -5.2 12.9 L-5.85 13.0 -6.3 12.4 -6.4 11.95 -5.9 11.35" fill="#f2f2f2" fill-opacity="0.9411765" fill-rule="evenodd" stroke="none"/>
    </g>
    <g id="costume_tail_26_sprite1" transform="matrix(1.0, 0.0, 0.0, 1.0, 0.0, 0.0)">
      <use height="9.4" href="#costume_tail_26_shape3" transform="matrix(1.0, 0.0, 0.0, 1.0, 0.0, 0.0)" width="6.35"/>
    </g>
    <g id="costume_tail_26_shape3" transform="matrix(1.0, 0.0, 0.0, 1.0, 0.0, 0.0)">
      <path d="M4.95 6.55 Q5.4 6.1 4.95 5.75 4.05 5.05 3.4 5.95 2.4 5.2 1.45 4.9 2.4 5.2 3.4 5.95 4.05 5.05 4.95 5.75 5.4 6.1 4.95 6.55 M1.2 4.25 Q0.65 -0.35 3.35 0.05 5.1 2.45 5.85 4.5 6.7 6.75 6.05 7.9 5.55 8.75 4.25 8.55 L2.8 9.4 Q0.9 9.4 0.25 8.8 -0.2 8.2 0.6 7.25 -0.9 5.5 1.45 4.9 L1.2 4.25 M3.4 5.95 Q2.85 7.3 3.5 8.05 L4.25 8.55 3.5 8.05 Q2.85 7.3 3.4 5.95 M2.65 6.55 Q1.45 6.8 0.6 7.25 1.45 6.8 2.65 6.55" fill="#808080" fill-rule="evenodd" stroke="none"/>
      <path d="M1.45 4.9 Q2.4 5.2 3.4 5.95 4.05 5.05 4.95 5.75 5.4 6.1 4.95 6.55 M1.2 4.25 L1.45 4.9 M0.6 7.25 Q1.45 6.8 2.65 6.55 M4.25 8.55 L3.5 8.05 Q2.85 7.3 3.4 5.95 M2.8 9.4 L4.25 8.55 Q5.55 8.75 6.05 7.9 6.7 6.75 5.85 4.5 5.1 2.45 3.35 0.05" fill="none" stroke="#000000" stroke-linecap="round" stroke-linejoin="round" stroke-opacity="0.4" stroke-width="0.05"/>
    </g>
    <g id="costume_tail_26_sprite2" transform="matrix(1.0, 0.0, 0.0, 1.0, 0.0, 0.0)">
      <use height="11.2" href="#costume_tail_26_shape4" transform="matrix(1.0, 0.0, 0.0, 1.0, 0.0, 0.0)" width="4.7"/>
    </g>
    <g id="costume_tail_26_shape4" transform="matrix(1.0, 0.0, 0.0, 1.0, 0.0, 0.0)">
      <path d="M4.7 1.5 Q2.0 1.1 2.55 5.7 L1.65 3.05 1.5 1.3 Q1.55 0.45 2.05 0.0 3.35 0.1 4.7 1.5 M4.15 10.85 L3.05 11.1 Q1.45 11.5 0.0 10.2 0.75 9.25 1.95 8.7 0.35 7.35 0.15 6.45 L2.8 6.35 Q0.45 6.95 1.95 8.7 1.15 9.65 1.6 10.25 2.25 10.85 4.15 10.85" fill="#808080" fill-rule="evenodd" stroke="none"/>
      <path d="M2.55 5.7 L1.65 3.05 1.5 1.3 Q1.55 0.45 2.05 0.0 3.35 0.1 4.7 1.5 M4.15 10.85 L3.05 11.1 Q1.45 11.5 0.0 10.2 0.75 9.25 1.95 8.7 0.35 7.35 0.15 6.45 L2.8 6.35" fill="none" stroke="#000000" stroke-linecap="round" stroke-linejoin="round" stroke-opacity="0.4" stroke-width="0.05"/>
    </g>
    <g id="costume_tail_26_sprite3" transform="matrix(1.0, 0.0, 0.0, 1.0, 0.0, 0.0)">
      <use height="9.2" href="#costume_tail_26_shape5" transform="matrix(1.0, 0.0, 0.0, 1.0, 0.0, 0.0)" width="7.2"/>
    </g>
    <g id="costume_tail_26_shape5" transform="matrix(1.0, 0.0, 0.0, 1.0, 0.0, 0.0)">
      <path d="M6.85 1.4 L7.15 2.45 Q7.4 4.25 6.75 6.0 6.3 7.4 5.45 8.1 L4.35 9.2 5.15 5.9 Q4.45 7.45 3.25 8.15 1.95 8.85 1.25 8.95 4.25 7.5 5.55 3.0 L6.35 4.7 Q7.1 3.3 6.85 1.4 M5.55 4.55 L5.15 5.9 5.55 4.55" fill="#4f4943" fill-rule="evenodd" stroke="none"/>
      <path d="M1.25 8.95 Q2.1 6.4 1.6 5.25 L1.0 7.0 Q0.5 3.5 1.0 2.25 L0.0 3.0 Q0.3 2.05 1.2 1.1 2.2 0.25 2.9 0.15 L3.95 0.05 4.85 0.85 5.8 0.55 Q6.5 0.5 6.85 1.4 7.1 3.3 6.35 4.7 L5.55 3.0 Q4.25 7.5 1.25 8.95" fill="#808080" fill-rule="evenodd" stroke="none"/>
      <path d="M6.85 1.4 L7.15 2.45 Q7.4 4.25 6.75 6.0 6.3 7.4 5.45 8.1 L4.35 9.2 5.15 5.9 Q4.45 7.45 3.25 8.15 1.95 8.85 1.25 8.95 2.1 6.4 1.6 5.25 L1.0 7.0 Q0.5 3.5 1.0 2.25 L0.0 3.0 Q0.3 2.05 1.2 1.1 2.2 0.25 2.9 0.15 L3.95 0.05 4.85 0.85 5.8 0.55 Q6.5 0.5 6.85 1.4 M5.15 5.9 L5.55 4.55" fill="none" stroke="#000000" stroke-linecap="round" stroke-linejoin="round" stroke-opacity="0.4" stroke-width="0.05"/>
    </g>
  </defs><defs>
    <g id="costume_contact_28_shape0" transform="matrix(1.0, 0.0, 0.0, 1.0, 2.25, 2.3)">
      <path d="M-1.8 -1.2 Q-1.25 -2.15 0.0 -2.2 0.9 -2.2 1.55 -1.55 L1.8 -1.25 Q2.2 -0.7 2.2 0.0 L2.2 0.3 Q1.15 2.15 -0.35 1.6 -2.1 1.0 -1.8 -1.2" fill="url(#costume_contact_28_gradient0)" fill-rule="evenodd" stroke="none"/>
      <path d="M2.2 0.3 L1.55 1.5 Q0.9 2.15 0.0 2.15 -0.9 2.15 -1.55 1.5 -2.15 0.85 -2.15 0.0 L-1.8 -1.2 Q-2.1 1.0 -0.35 1.6 1.15 2.15 2.2 0.3" fill="#f0f0f0" fill-rule="evenodd" stroke="none"/>
      <path d="M-1.8 -1.2 Q-1.25 -2.15 0.0 -2.2 0.9 -2.2 1.55 -1.55 L1.8 -1.25 Q2.2 -0.7 2.2 0.0 L2.2 0.3 1.55 1.5 Q0.9 2.15 0.0 2.15 -0.9 2.15 -1.55 1.5 -2.15 0.85 -2.15 0.0 L-1.8 -1.2 Z" fill="none" stroke="#000000" stroke-linecap="round" stroke-linejoin="round" stroke-opacity="0.4" stroke-width="0.2"/>
      <path d="M0.75 -1.65 Q1.3 -1.55 1.4 -0.35 L1.4 -0.15 1.2 0.75 Q1.0 1.35 0.55 1.3 -0.15 1.2 -0.25 0.25 -0.35 -0.6 -0.05 -1.2 0.2 -1.75 0.75 -1.65" fill="#1d130e" fill-rule="evenodd" stroke="none"/>
      <path d="M1.05 -0.85 L0.05 -1.1 Q-1.05 -1.3 -1.95 -0.5 -1.7 -2.3 0.35 -2.2 2.7 -1.75 2.0 0.8 1.85 -0.45 1.05 -0.85" fill="#1d130e" fill-rule="evenodd" stroke="none"/>
      <path d="M-1.4 0.95 L-1.8 0.8 -1.95 0.4 -1.8 0.0 -1.4 -0.15 -1.0 0.0 -0.85 0.4 -1.0 0.8 -1.4 0.95" fill="#ffffff" fill-rule="evenodd" stroke="none"/>
      <path d="M0.85 -1.3 L0.6 -0.65 -0.05 -0.4 Q-0.45 -0.4 -0.7 -0.65 L-0.95 -1.3 -0.7 -1.95 -0.05 -2.2 0.6 -1.95 0.85 -1.3" fill="#ffffff" fill-rule="evenodd" stroke="none"/>
    </g>
    <radialGradient cx="0" cy="0" gradientTransform="matrix(0.0048, 0.0, 0.0, 0.0048, 0.45, -0.7)" gradientUnits="userSpaceOnUse" id="costume_contact_28_gradient0" r="819.2" spreadMethod="pad">
      <stop offset="0.20392156862745098" stop-color="#199c78"/>
      <stop offset="0.5215686274509804" stop-color="#4edbae"/>
      <stop offset="0.9372549019607843" stop-color="#41d5aa"/>
    </radialGradient>
  </defs><filter id="color_costume_ears_10_0" 				x="-20%" y="-20%" width="140%" height="140%" 				filterUnits="objectBoundingBox" 				primitiveUnits="userSpaceOnUse" 				color-interpolation-filters="sRGB"> 								<feColorMatrix type="matrix" values="1 0 0 0 -0.3156862745098039 			0 1 0 0 -0.33529411764705885 			0 0 1 0 -0.19803921568627453 			0 0 0 1 0" 					x="0%" y="0%" width="100%" height="100%" 					in="colormatrix" result="colormatrix1" /> 			</filter><filter id="color_costume_ears_10_2" 				x="-20%" y="-20%" width="140%" height="140%" 				filterUnits="objectBoundingBox" 				primitiveUnits="userSpaceOnUse" 				color-interpolation-filters="sRGB"> 								<feColorMatrix type="matrix" values="1 0 0 0 -0.3156862745098039 			0 1 0 0 -0.33529411764705885 			0 0 1 0 -0.19803921568627453 			0 0 0 1 0" 					x="0%" y="0%" width="100%" height="100%" 					in="colormatrix" result="colormatrix1" /> 			</filter><filter id="color_costume_ears_10_1" 				x="-20%" y="-20%" width="140%" height="140%" 				filterUnits="objectBoundingBox" 				primitiveUnits="userSpaceOnUse" 				color-interpolation-filters="sRGB"> 								<feColorMatrix type="matrix" values="1 0 0 0 0.4647058823529412 			0 1 0 0 0.3666666666666667 			0 0 1 0 -0.06862745098039214 			0 0 0 1 0" 					x="0%" y="0%" width="100%" height="100%" 					in="colormatrix" result="colormatrix1" /> 			</filter><filter id="color_costume_neck_26_0" 				x="-20%" y="-20%" width="140%" height="140%" 				filterUnits="objectBoundingBox" 				primitiveUnits="userSpaceOnUse" 				color-interpolation-filters="sRGB"> 								<feColorMatrix type="matrix" values="1 0 0 0 -0.3156862745098039 			0 1 0 0 -0.33529411764705885 			0 0 1 0 -0.19803921568627453 			0 0 0 1 0" 					x="0%" y="0%" width="100%" height="100%" 					in="colormatrix" result="colormatrix1" /> 			</filter><filter id="color_costume_neck_26_1" 				x="-20%" y="-20%" width="140%" height="140%" 				filterUnits="objectBoundingBox" 				primitiveUnits="userSpaceOnUse" 				color-interpolation-filters="sRGB"> 								<feColorMatrix type="matrix" values="1 0 0 0 0.4647058823529412 			0 1 0 0 0.3666666666666667 			0 0 1 0 -0.06862745098039214 			0 0 0 1 0" 					x="0%" y="0%" width="100%" height="100%" 					in="colormatrix" result="colormatrix1" /> 			</filter><filter id="color_costume_tail_26_4" 				x="-20%" y="-20%" width="140%" height="140%" 				filterUnits="objectBoundingBox" 				primitiveUnits="userSpaceOnUse" 				color-interpolation-filters="sRGB"> 								<feColorMatrix type="matrix" values="1 0 0 0 -0.3156862745098039 			0 1 0 0 -0.33529411764705885 			0 0 1 0 -0.19803921568627453 			0 0 0 1 0" 					x="0%" y="0%" width="100%" height="100%" 					in="colormatrix" result="colormatrix1" /> 			</filter><filter id="color_costume_tail_26_2" 				x="-20%" y="-20%" width="140%" height="140%" 				filterUnits="objectBoundingBox" 				primitiveUnits="userSpaceOnUse" 				color-interpolation-filters="sRGB"> 								<feColorMatrix type="matrix" values="1 0 0 0 0.4647058823529412 			0 1 0 0 0.3666666666666667 			0 0 1 0 -0.06862745098039214 			0 0 0 1 0" 					x="0%" y="0%" width="100%" height="100%" 					in="colormatrix" result="colormatrix1" /> 			</filter><filter id="color_costume_tail_26_0" 				x="-20%" y="-20%" width="140%" height="140%" 				filterUnits="objectBoundingBox" 				primitiveUnits="userSpaceOnUse" 				color-interpolation-filters="sRGB"> 								<feColorMatrix type="matrix" values="1 0 0 0 -0.3156862745098039 			0 1 0 0 -0.33529411764705885 			0 0 1 0 -0.19803921568627453 			0 0 0 1 0" 					x="0%" y="0%" width="100%" height="100%" 					in="colormatrix" result="colormatrix1" /> 			</filter><filter id="color_costume_tail_26_1" 				x="-20%" y="-20%" width="140%" height="140%" 				filterUnits="objectBoundingBox" 				primitiveUnits="userSpaceOnUse" 				color-interpolation-filters="sRGB"> 								<feColorMatrix type="matrix" values="1 0 0 0 0.4647058823529412 			0 1 0 0 0.3666666666666667 			0 0 1 0 -0.06862745098039214 			0 0 0 1 0" 					x="0%" y="0%" width="100%" height="100%" 					in="colormatrix" result="colormatrix1" /> 			</filter><filter id="color_costume_tail_26_3" 				x="-20%" y="-20%" width="140%" height="140%" 				filterUnits="objectBoundingBox" 				primitiveUnits="userSpaceOnUse" 				color-interpolation-filters="sRGB"> 								<feColorMatrix type="matrix" values="1 0 0 0 -0.3156862745098039 			0 1 0 0 -0.33529411764705885 			0 0 1 0 -0.19803921568627453 			0 0 0 1 0" 					x="0%" y="0%" width="100%" height="100%" 					in="colormatrix" result="colormatrix1" /> 			</filter><defs><g id="PiedG">
    <use height="3.85" href="#fur_217_PiedG_shape0" transform="matrix(1.0, 0.0, 0.0, 1.0, -4.6, -1.9)" width="9.2"/>
  </g><g id="CuisseG">
    <use height="13.8" href="#fur_217_CuisseG_shape0" transform="matrix(1.0, 0.0, 0.0, 1.0, -6.95, -6.8)" width="13.95"/>
  </g><g id="Boule"/><g id="PiedD">
    <use height="3.75" href="#fur_217_PiedD_shape0" transform="matrix(1.0, 0.0, 0.0, 1.0, -4.4, -1.85)" width="8.75"/>
  </g><g id="Corps">
    <use height="20.15" href="#fur_217_Corps_shape0" transform="matrix(1.0, 0.0, 0.0, 1.0, -9.55, -9.8)" width="21.85"/>
  </g><g id="Oeil">
    <use height="7.55" href="#fur_217_Oeil_shape0" transform="matrix(1.0, 0.0, 0.0, 1.0, -2.1, -5.4)" width="4.25"/>
  </g><g id="CuisseD">
    <use height="13.8" href="#fur_217_CuisseD_shape0" transform="matrix(1.0, 0.0, 0.0, 1.0, -8.7, -6.8)" width="15.65"/>
  </g><g id="Tete">
    <use height="25.6" href="#fur_217_Tete_shape0" transform="matrix(1.0, 0.0, 0.0, 1.0, -14.1, -13.7)" width="26.35"/>
  </g><g id="PiedD2">
    <use height="3.75" href="#fur_217_PiedD2_shape0" transform="matrix(1.0, 0.0, 0.0, 1.0, -4.4, -1.85)" width="8.75"/>
  </g><g id="Oeil2">
    <use height="6.7" href="#fur_217_Oeil2_shape0" transform="matrix(1.0, 0.0, 0.0, 1.0, -2.75, -5.25)" width="6.7"/>
  </g><g id="PatteD2">
    <use height="7.6" href="#fur_217_PatteD2_shape0" transform="matrix(1.0, 0.0, 0.0, 1.0, -7.4, -3.8)" width="11.65"/>
  </g><g id="OreilleG">
    <use height="19.15" href="#fur_217_OreilleG_shape0" transform="matrix(1.0, 0.0, 0.0, 1.0, -4.1, -11.15)" width="5.8"/>
  </g><g id="OreilleD">
    <use height="22.85" href="#fur_217_OreilleD_shape0" transform="matrix(1.0, 0.0, 0.0, 1.0, -11.7, -14.3)" width="19.5"/>
  </g><g id="PatteD">
    <use height="7.9" href="#fur_217_PatteD_shape0" transform="matrix(1.0, 0.0, 0.0, 1.0, -7.45, -3.95)" width="11.9"/>
  </g><g id="Oeil3">
    <use height="3.45" href="#fur_217_Oeil3_shape0" transform="matrix(1.0, 0.0, 0.0, 1.0, -2.0, -1.3)" width="4.4"/>
  </g><g id="Queue">
    <use height="41.85" href="#fur_217_Queue_shape0" transform="matrix(1.0, 0.0, 0.0, 1.0, -25.0, -23.9)" width="33.6"/>
  </g><g id="PatteG">
    <use height="8.6" href="#fur_217_PatteG_shape0" transform="matrix(1.0, 0.0, 0.0, 1.0, -3.85, -4.25)" width="7.8"/>
  </g><g id="PatteG2">
    <use height="7.45" href="#fur_217_PatteG2_shape0" transform="matrix(1.0, 0.0, 0.0, 1.0, -3.8, -4.15)" width="10.0"/>
  </g></defs><defs><g id="ears">
    <use filter="url(#color_costume_ears_10_0)" height="22.6" href="#costume_ears_10_sprite0" id="costume_ears_10_Couleur0_EAFAF7" transform="matrix(-0.1013, -0.9352, 0.6771, -0.0269, -19.9576, 5.4962)" width="9.3"/>
    <use filter="url(#color_costume_ears_10_0)" height="22.6" href="#costume_ears_10_sprite0" id="costume_ears_10_Couleur0_EAFAF7" transform="matrix(0.6068, -0.7232, 0.6859, 0.5375, -24.1293, -8.3314)" width="9.3"/>
    <use filter="url(#color_costume_ears_10_0)" height="22.6" href="#costume_ears_10_sprite0" id="costume_ears_10_Couleur0_EAFAF7" transform="matrix(0.8014, -0.5981, 0.5396, 0.7647, -21.6341, -18.2667)" width="9.3"/>
    <use filter="url(#color_costume_ears_10_2)" height="7.5" href="#costume_ears_10_sprite1" id="costume_ears_10_Couleur2_9AB5C6" transform="matrix(1.0, 0.0, 0.0, 1.0, 4.6, -11.6)" width="5.1"/>
    <use filter="url(#color_costume_ears_10_1)" height="6.9" href="#costume_ears_10_sprite2" id="costume_ears_10_Couleur1_F6DD6E" transform="matrix(1.0, 0.0, 0.0, 1.0, 3.65, -12.8)" width="8.0"/>
    <use filter="url(#color_costume_ears_10_0)" height="25.7" href="#costume_ears_10_sprite3" id="costume_ears_10_Couleur0_EAFAF7" transform="matrix(1.0, 0.0, 0.0, 1.0, -4.1, -31.55)" width="17.1"/>
    <use filter="url(#color_costume_ears_10_2)" height="28.15" href="#costume_ears_10_sprite4" id="costume_ears_10_Couleur2_9AB5C6" transform="matrix(1.0, 0.0, 0.0, 1.0, -7.5, -11.55)" width="30.3"/>
    <use filter="url(#color_costume_ears_10_0)" height="22.6" href="#costume_ears_10_sprite0" id="costume_ears_10_Couleur0_EAFAF7" transform="matrix(1.0, 0.0, 0.0, 1.0, -9.7, -28.85)" width="9.3"/>
    <use filter="url(#color_costume_ears_10_1)" height="33.45" href="#costume_ears_10_sprite5" id="costume_ears_10_Couleur1_F6DD6E" transform="matrix(1.0, 0.0, 0.0, 1.0, -8.75, -15.5)" width="30.8"/>
    <use height="4.2" href="#costume_ears_10_shape6" transform="matrix(1.0, 0.0, 0.0, 1.0, 12.75, -16.15)" width="7.9"/>
  </g><g id="neck">
    <use filter="url(#color_costume_neck_26_0)" height="16.25" href="#costume_neck_26_sprite0" id="costume_neck_26_Couleur0_282520" transform="matrix(1.0, 0.0, 0.0, 1.0, -17.1, -3.3)" width="30.05"/>
    <use filter="url(#color_costume_neck_26_1)" height="11.65" href="#costume_neck_26_sprite1" id="costume_neck_26_Couleur1_E7DED9" transform="matrix(1.0, 0.0, 0.0, 1.0, 5.05, -1.85)" width="7.8"/>
  </g><g id="tail">
    <use height="21.7" href="#costume_tail_26_shape0" transform="matrix(1.0, 0.0, 0.0, 1.0, -7.95, -0.2)" width="8.15"/>
    <use filter="url(#color_costume_tail_26_4)" height="7.8" href="#costume_tail_26_sprite0" id="costume_tail_26_Couleur4_E58525" transform="matrix(0.4629, 0.0, 0.0, 0.4629, -5.15, 8.0)" width="7.8"/>
    <use filter="url(#color_costume_tail_26_2)" height="7.8" href="#costume_tail_26_sprite0" id="costume_tail_26_Couleur2_0CC6C1" transform="matrix(1.0, 0.0, 0.0, 1.0, -9.25, 10.65)" width="7.8"/>
    <use height="7.05" href="#costume_tail_26_shape2" transform="matrix(1.0, 0.0, 0.0, 1.0, -10.2, 7.05)" width="13.05"/>
    <use filter="url(#color_costume_tail_26_0)" height="9.4" href="#costume_tail_26_sprite1" id="costume_tail_26_Couleur0_FFF8F0" transform="matrix(1.0, 0.0, 0.0, 1.0, -15.4, 4.95)" width="6.35"/>
    <use filter="url(#color_costume_tail_26_1)" height="11.2" href="#costume_tail_26_sprite2" id="costume_tail_26_Couleur1_0CC6C1" transform="matrix(1.0, 0.0, 0.0, 1.0, -16.75, 3.5)" width="4.7"/>
    <use filter="url(#color_costume_tail_26_3)" height="9.2" href="#costume_tail_26_sprite3" id="costume_tail_26_Couleur3_E58525" transform="matrix(1.0, 0.0, 0.0, 1.0, -12.05, 19.0)" width="7.2"/>
    <use filter="url(#color_costume_tail_26_0)" height="9.4" href="#costume_tail_26_sprite1" id="costume_tail_26_Couleur0_FFF8F0" transform="matrix(-0.7574, -0.6529, -0.6529, 0.7574, 8.4, 14.5)" width="6.35"/>
    <use filter="url(#color_costume_tail_26_1)" height="11.2" href="#costume_tail_26_sprite2" id="costume_tail_26_Couleur1_0CC6C1" transform="matrix(-0.7574, -0.6529, -0.6529, 0.7574, 10.35, 14.25)" width="4.7"/>
  </g><g id="contact">
    <use height="4.55" href="#costume_contact_28_shape0" transform="matrix(1.0, 0.0, 0.0, 1.0, -2.25, -2.3)" width="4.55"/>
  </g></defs><g transform="matrix(1.0, 0.0, 0.0, 1.0, 30.4, 51.55)"><use transform="matrix(1.0, 0.0, 0.0, 1.0, 5.75, -22.8)" href="#OreilleG" /><use transform="matrix(1.0, 0.0, 0.0, 1.0, 3.95, 13.05)" href="#PiedG" /><use transform="matrix(1.0, 0.0, 0.0, 1.0, 1.4, 6.7)" href="#CuisseG" /><use transform="matrix(1.0, 0.0, 0.0, 1.0, 8.3, 1.05)" href="#PatteG" /><use transform="matrix(1.0, 0.0, 0.0, 1.0, 8.3, 1.05)" href="#magic-wand" /><use transform="matrix(1.0, 0.0, 0.0, 1.0, -4.25, 14.2)" href="#PiedD" /><use transform="matrix(1.0, 0.0, 0.0, 1.0, -0.8, 3.5)" href="#Corps" /><use transform="matrix(1.0, 0.0, 0.0, 1.0, -13.5, -8.05)" href="#Queue" /><use transform="matrix(1.0, 0.0087, -0.0087, 1.0, -19.4, -25.2)" href="#tail" /><use transform="matrix(1.0, 0.0, 0.0, 1.0, -4.5, 7.3)" href="#CuisseD" /><use transform="matrix(1.0, 0.0, 0.0, 1.0, 4.9, -9.6)" href="#Tete" /><use transform="matrix(1.0, 0.0, 0.0, 1.0, 4.9, -9.6)" href="#neck" /><use transform="matrix(1.0, 0.0, 0.0, 1.0, 4.9, -9.6)" href="#hair" /><use transform="matrix(1.0, 0.0, 0.0, 1.0, 4.9, -9.6)" href="#head" /><use transform="matrix(1.0, 0.0, 0.0, 1.0, 4.9, -9.6)" href="#mouth" /><use transform="matrix(1.0, 0.0, 0.0, 1.0, 1.85, 1.7)" href="#PatteD" /><use transform="matrix(1.0, 0.0, 0.0, 1.0, 1.85, 1.7)" href="#hands" /><use transform="matrix(1.0, 0.0, 0.0, 1.0, 1.85, 1.7)" href="#button-shield" /><use transform="matrix(1.0, 0.0, 0.0, 1.0, 4.75, -10.95)" href="#Oeil" /><use transform="matrix(1.0, 0.0, 0.0, 1.0, 4.75, -10.95)" href="#contact" /><use transform="matrix(1.0, 0.0, 0.0, 1.0, 4.75, -10.95)" href="#eyes" /><use transform="matrix(1.0, 0.0, 0.0, 1.0, -6.2, -16.6)" href="#OreilleD" /><use transform="matrix(1.0, 0.0, 0.0, 1.0, -6.2, -16.6)" href="#ears" /></g></svg>