<svg xmlns="http://www.w3.org/2000/svg" 				height="80px" width="60px"><defs>
    <g id="fur_175_PiedG_shape0" transform="matrix(1.0, 0.0, 0.0, 1.0, 4.7, 2.0)">
      <path d="M3.2 1.65 L2.8 1.7 2.75 1.7 1.95 1.9 -0.65 1.55 -2.5 0.9 -2.6 0.85 -3.0 0.65 Q-3.75 0.3 -4.5 0.1 -4.75 -0.45 -4.45 -0.95 -4.15 -1.55 -2.6 -1.8 L-2.55 -1.8 0.25 -1.65 2.8 -1.05 3.35 -0.95 3.85 -0.65 Q4.9 0.0 4.5 0.7 L4.3 0.9 4.1 1.05 4.2 0.9 Q4.45 0.15 3.65 -0.2 3.9 -0.4 3.35 -0.95 L2.8 -0.8 Q1.1 -0.3 0.55 0.8 L0.6 0.9 Q0.95 1.65 2.8 1.35 L2.85 1.35 2.8 1.1 2.7 0.9 Q2.35 0.55 1.5 0.35 L2.8 0.45 Q3.1 0.5 3.25 0.65 L3.4 0.9 3.2 1.65 M2.75 1.7 L2.8 1.55 2.85 1.35 2.8 1.55 2.75 1.7" fill="#e6d3d8" fill-rule="evenodd" stroke="none"/>
      <path d="M4.1 1.05 Q4.1 1.45 3.2 1.65 L3.4 0.9 3.25 0.65 Q3.1 0.5 2.8 0.45 L1.5 0.35 Q2.35 0.55 2.7 0.9 L2.8 1.1 2.85 1.35 2.8 1.35 Q0.95 1.65 0.6 0.9 L0.55 0.8 Q1.1 -0.3 2.8 -0.8 L3.35 -0.95 Q3.9 -0.4 3.65 -0.2 L2.8 -0.5 3.65 -0.2 Q4.45 0.15 4.2 0.9 L4.1 1.05" fill="#f9f5f6" fill-rule="evenodd" stroke="none"/>
      <path d="M3.2 1.65 L2.8 1.7 2.75 1.7 1.95 1.9 -0.65 1.55 -2.5 0.9 -2.6 0.85 -3.0 0.65 Q-3.75 0.3 -4.5 0.1 -4.75 -0.45 -4.45 -0.95 -4.15 -1.55 -2.6 -1.8 L-2.55 -1.8 0.25 -1.65 2.8 -1.05 3.35 -0.95 3.85 -0.65 Q4.9 0.0 4.5 0.7 L4.3 0.9 4.1 1.05 Q4.1 1.45 3.2 1.65 M1.5 0.35 Q2.35 0.55 2.7 0.9 L2.8 1.1 2.85 1.35 2.8 1.55 2.75 1.7 M3.65 -0.2 L2.8 -0.5 M4.1 1.05 L4.2 0.9 Q4.45 0.15 3.65 -0.2" fill="none" stroke="#000000" stroke-linecap="round" stroke-linejoin="round" stroke-opacity="0.4" stroke-width="0.2"/>
    </g>
  </defs><defs>
    <g id="fur_175_CuisseG_shape0" transform="matrix(1.0, 0.0, 0.0, 1.0, 6.95, 6.8)">
      <path d="M-2.55 -6.5 L0.05 -6.8 0.65 -6.75 1.7 -6.5 Q3.05 -6.15 4.15 -5.2 L4.85 -4.55 5.0 -4.35 6.25 -2.5 Q6.85 -1.15 6.85 0.4 6.85 1.7 6.45 2.8 5.95 4.1 4.85 5.15 L4.15 5.75 Q3.05 6.5 1.7 6.75 L0.05 6.85 Q-2.8 6.7 -4.8 4.55 L-6.05 2.8 -6.2 2.5 Q-6.8 1.15 -6.8 -0.4 -6.8 -1.95 -6.2 -3.2 -5.7 -4.25 -4.8 -5.1 -3.8 -6.05 -2.55 -6.5" fill="#0d0d0e" fill-rule="evenodd" stroke="none"/>
      <path d="M5.0 -4.35 L6.25 -2.5 Q6.85 -1.15 6.85 0.4 6.85 1.7 6.45 2.8 5.95 4.1 4.85 5.15 L4.15 5.75 Q3.05 6.5 1.7 6.75 L0.05 6.85 Q-2.8 6.7 -4.8 4.55 L-6.05 2.8 -6.2 2.5 Q-6.8 1.15 -6.8 -0.4 -6.8 -1.95 -6.2 -3.2 -5.7 -4.25 -4.8 -5.1 -3.8 -6.05 -2.55 -6.5" fill="none" stroke="#000000" stroke-linecap="round" stroke-linejoin="miter-clip" stroke-miterlimit="5.0" stroke-opacity="0.4" stroke-width="0.30000000000000004"/>
    </g>
  </defs><defs>
    <g id="fur_175_PiedD_shape0" transform="matrix(1.0, 0.0, 0.0, 1.0, 4.55, 2.0)">
      <path d="M1.05 1.8 L0.3 1.85 Q-0.55 1.9 -1.65 1.35 -2.85 0.75 -3.55 0.5 L-4.25 0.0 Q-4.75 -0.95 -4.05 -1.4 -3.15 -2.0 -1.75 -1.85 L0.95 -1.3 3.55 -0.5 2.8 -0.4 0.35 0.3 -0.2 0.6 Q-0.65 0.9 -0.4 1.3 L1.5 1.4 1.05 1.8 1.5 1.4 Q1.8 1.0 1.4 0.65 L0.75 0.4 Q2.2 0.45 2.4 0.85 L1.55 1.8 1.05 1.8 M3.55 -0.5 Q4.0 -0.5 4.25 0.15 4.5 0.75 3.85 1.0 L2.9 1.35 Q3.75 1.0 3.4 0.1 3.75 -0.05 3.55 -0.5" fill="#e6d3d8" fill-rule="evenodd" stroke="none"/>
      <path d="M1.5 1.4 L-0.4 1.3 Q-0.65 0.9 -0.2 0.6 L0.35 0.3 2.8 -0.4 3.55 -0.5 Q3.75 -0.05 3.4 0.1 3.75 1.0 2.9 1.35 2.6 1.65 1.55 1.8 L2.4 0.85 Q2.2 0.45 0.75 0.4 L1.4 0.65 Q1.8 1.0 1.5 1.4 M2.8 -0.4 L3.4 0.1 2.8 -0.4" fill="#f9f5f6" fill-rule="evenodd" stroke="none"/>
      <path d="M3.55 -0.5 L0.95 -1.3 -1.75 -1.85 Q-3.15 -2.0 -4.05 -1.4 -4.75 -0.95 -4.25 0.0 L-3.55 0.5 Q-2.85 0.75 -1.65 1.35 -0.55 1.9 0.3 1.85 L1.05 1.8 1.5 1.4 Q1.8 1.0 1.4 0.65 L0.75 0.4 M3.55 -0.5 Q4.0 -0.5 4.25 0.15 4.5 0.75 3.85 1.0 L2.9 1.35 Q2.6 1.65 1.55 1.8 L1.05 1.8 M3.4 0.1 Q3.75 1.0 2.9 1.35 M3.4 0.1 L2.8 -0.4" fill="none" stroke="#000000" stroke-linecap="round" stroke-linejoin="round" stroke-opacity="0.4" stroke-width="0.2"/>
    </g>
  </defs><defs>
    <g id="fur_175_Corps_shape0" transform="matrix(1.0, 0.0, 0.0, 1.0, 13.35, 10.05)">
      <path d="M6.6 -9.3 L6.65 -9.3 Q8.6 -10.35 9.55 -9.5 10.5 -8.65 8.85 -7.15 10.4 -7.55 10.65 -6.3 10.9 -5.1 9.3 -4.65 10.7 -4.05 10.4 -3.25 10.1 -2.5 9.4 -2.3 L9.0 -2.25 Q8.75 -0.6 7.7 0.35 L7.5 0.3 6.7 -2.3 6.55 -2.75 7.5 -3.95 7.5 -4.0 Q7.75 -5.9 6.4 -6.75 L6.65 -7.0 Q8.05 -6.55 8.4 -5.9 7.85 -5.3 7.5 -4.0 7.85 -5.3 8.4 -5.9 8.05 -6.55 6.65 -7.0 L6.2 -7.25 Q6.4 -8.75 5.2 -9.7 L6.15 -9.55 6.6 -9.3 M9.1 0.4 L9.35 1.4 Q10.3 1.6 10.55 2.2 10.75 3.0 9.75 3.1 L9.75 3.15 Q11.15 3.35 11.05 4.2 10.95 5.05 10.45 4.95 L10.5 5.1 Q11.45 5.15 11.45 5.75 11.4 6.35 10.7 6.2 L10.7 6.25 Q11.25 7.2 9.75 7.3 9.4 8.7 7.7 7.95 6.95 9.15 5.75 8.15 4.9 9.25 4.2 7.8 2.8 8.5 2.8 6.8 2.1 6.65 1.9 6.3 1.75 6.0 2.0 5.55 L2.15 5.35 Q2.7 5.7 2.65 4.25 2.75 5.65 3.45 6.5 4.65 7.9 7.45 7.55 10.2 7.15 10.6 6.0 L10.65 6.15 10.7 6.2 10.65 6.15 10.6 6.0 Q10.2 7.15 7.45 7.55 4.65 7.9 3.45 6.5 2.75 5.65 2.65 4.25 3.4 5.5 3.55 4.55 3.85 6.05 5.05 6.9 6.15 7.35 6.15 6.25 7.05 7.2 7.7 6.9 8.35 6.6 8.3 6.1 L9.65 6.15 Q10.2 5.6 9.05 1.85 L8.75 2.05 Q9.3 4.2 8.95 4.9 8.6 5.6 7.8 5.7 L6.2 5.65 Q5.15 5.5 4.6 4.8 L4.3 4.4 Q6.9 4.35 4.5 1.1 7.4 2.25 9.1 0.4 M11.25 6.95 L11.45 7.15 Q12.1 7.75 11.55 8.45 11.0 9.1 9.6 8.8 10.05 9.45 9.25 10.1 8.45 10.75 6.55 9.7 6.15 10.85 5.2 10.85 4.25 10.8 3.0 9.9 2.5 10.8 1.8 10.85 1.1 10.85 0.75 10.5 L0.3 10.15 -1.1 10.1 -3.2 9.7 -5.4 8.65 -6.35 7.95 Q-4.0 8.85 -1.1 8.55 L-0.05 8.9 0.0 8.9 6.6 9.25 Q9.8 8.65 11.25 6.95 M6.65 -9.3 L7.15 -8.75 7.7 -7.85 6.65 -7.0 7.7 -7.85 7.15 -8.75 6.65 -9.3 M7.7 -7.85 L8.4 -5.9 Q8.75 -4.4 8.5 -2.8 8.3 -3.6 7.5 -3.95 8.3 -3.6 8.5 -2.8 8.75 -4.4 8.4 -5.9 L7.7 -7.85 M10.5 5.1 L10.6 5.45 10.6 5.9 10.6 6.0 10.6 5.9 10.6 5.45 10.5 5.1 M9.35 1.4 L9.55 2.3 9.75 3.1 9.55 2.3 9.35 1.4 M0.3 10.15 Q0.0 9.65 0.0 8.9 0.0 9.65 0.3 10.15 M8.5 -2.8 Q8.35 -0.9 7.7 0.35 8.35 -0.9 8.5 -2.8 M9.75 3.15 L10.45 4.95 9.75 3.15" fill="#e6d3d8" fill-rule="evenodd" stroke="none"/>
      <path d="M-5.6 -4.2 L-4.7 -5.0 Q-1.65 -3.55 3.05 0.35 L4.5 1.1 Q6.9 4.35 4.3 4.4 L4.05 3.1 4.0 2.0 3.95 2.0 3.65 2.0 3.55 3.15 3.55 4.55 Q3.4 5.5 2.65 4.25 2.7 5.7 2.15 5.35 L2.15 5.3 2.05 5.25 Q0.9 4.8 1.8 3.75 0.6 2.2 2.2 1.75 L2.75 2.1 Q2.55 3.3 2.65 4.25 2.55 3.3 2.75 2.1 L2.2 1.75 -1.1 -0.85 -5.6 -4.2 M-1.5 -7.65 Q-1.65 -8.4 -1.3 -8.75 -1.0 -9.1 0.45 -9.25 L1.85 -9.6 5.2 -9.7 Q6.4 -8.75 6.2 -7.25 L6.65 -7.0 6.4 -6.75 Q7.75 -5.9 7.5 -4.0 L7.5 -3.95 6.55 -2.75 6.7 -2.3 7.5 0.3 7.5 0.35 Q6.95 0.35 6.2 -1.8 4.7 -1.9 4.35 -2.6 3.95 -3.3 4.6 -4.15 2.1 -3.8 1.75 -5.15 1.45 -6.35 2.2 -6.75 -0.45 -6.0 -1.5 -7.65 M2.45 -7.95 L0.45 -9.25 2.45 -7.95 Q4.5 -8.1 6.2 -7.25 4.5 -8.1 2.45 -7.95 L5.1 -5.1 6.4 -6.75 5.1 -5.1 2.45 -7.95 M7.5 -3.95 Q6.4 -5.05 5.1 -5.1 L5.4 -4.65 6.55 -2.75 5.4 -4.65 5.1 -5.1 Q6.4 -5.05 7.5 -3.95 M2.75 2.1 L3.05 0.35 2.75 2.1 M2.45 0.6 L2.3 0.25 2.0 0.15 1.75 0.2 1.65 0.25 1.55 0.55 1.55 0.6 1.55 0.7 1.55 0.75 1.65 0.9 1.75 1.0 2.0 1.05 2.2 1.0 2.3 0.9 2.45 0.75 2.45 0.6" fill="#f9f5f6" fill-rule="evenodd" stroke="none"/>
      <path d="M-6.35 7.95 Q-10.65 6.2 -13.15 0.3 -10.0 -0.15 -7.8 -2.2 L-5.6 -4.2 -1.1 -0.85 2.2 1.75 Q0.6 2.2 1.8 3.75 0.9 4.8 2.05 5.25 L2.15 5.3 2.15 5.35 2.05 5.25 2.0 5.55 Q1.75 6.0 1.9 6.3 1.45 9.0 0.0 8.9 L-0.05 8.9 -1.1 8.55 Q-4.0 8.85 -6.35 7.95 M-4.7 -5.0 L-1.5 -7.65 Q-0.45 -6.0 2.2 -6.75 1.45 -6.35 1.75 -5.15 2.1 -3.8 4.6 -4.15 3.95 -3.3 4.35 -2.6 4.7 -1.9 6.2 -1.8 6.5 0.9 4.5 1.1 L3.05 0.35 Q-1.65 -3.55 -4.7 -5.0 M4.05 3.1 L3.95 2.0 4.0 2.0 4.05 3.1 M2.45 0.6 L2.45 0.75 2.3 0.9 2.2 1.0 2.0 1.05 1.75 1.0 1.65 0.9 1.55 0.75 1.55 0.7 1.55 0.6 1.55 0.55 1.65 0.25 1.75 0.2 2.0 0.15 2.3 0.25 2.45 0.6" fill="#1c1b1d" fill-rule="evenodd" stroke="none"/>
      <path d="M9.4 -2.3 L9.35 -1.9 9.1 0.4 Q7.4 2.25 4.5 1.1 6.5 0.9 6.2 -1.8 6.95 0.35 7.5 0.35 L7.5 0.3 7.7 0.35 Q8.75 -0.6 9.0 -2.25 L9.4 -2.3 M10.7 6.25 L11.25 6.95 Q9.8 8.65 6.6 9.25 L0.0 8.9 Q1.45 9.0 1.9 6.3 2.1 6.65 2.8 6.8 2.8 8.5 4.2 7.8 4.9 9.25 5.75 8.15 6.95 9.15 7.7 7.95 9.4 8.7 9.75 7.3 11.25 7.2 10.7 6.25 M2.15 5.35 L2.0 5.55 2.05 5.25 2.15 5.35 M4.3 4.4 L4.6 4.8 Q5.15 5.5 6.2 5.65 L7.8 5.7 Q8.6 5.6 8.95 4.9 9.3 4.2 8.75 2.05 L9.05 1.85 Q10.2 5.6 9.65 6.15 L8.3 6.1 Q8.35 6.6 7.7 6.9 7.05 7.2 6.15 6.25 6.15 7.35 5.05 6.9 3.85 6.05 3.55 4.55 L3.55 3.15 3.65 2.0 3.95 2.0 4.05 3.1 4.3 4.4" fill="#0d0d0e" fill-rule="evenodd" stroke="none"/>
      <path d="M6.6 -9.3 L6.65 -9.3 Q8.6 -10.35 9.55 -9.5 10.5 -8.65 8.85 -7.15 10.4 -7.55 10.65 -6.3 10.9 -5.1 9.3 -4.65 10.7 -4.05 10.4 -3.25 10.1 -2.5 9.4 -2.3 L9.35 -1.9 9.1 0.4 9.35 1.4 Q10.3 1.6 10.55 2.2 10.75 3.0 9.75 3.1 L9.75 3.15 Q11.15 3.35 11.05 4.2 10.95 5.05 10.45 4.95 L10.5 5.1 Q11.45 5.15 11.45 5.75 11.4 6.35 10.7 6.2 L10.7 6.25 11.25 6.95 11.45 7.15 Q12.1 7.75 11.55 8.45 11.0 9.1 9.6 8.8 10.05 9.45 9.25 10.1 8.45 10.75 6.55 9.7 6.15 10.85 5.2 10.85 4.25 10.8 3.0 9.9 2.5 10.8 1.8 10.85 1.1 10.85 0.75 10.5 L0.3 10.15 -1.1 10.1 -3.2 9.7 -5.4 8.65 -6.35 7.95 Q-10.65 6.2 -13.15 0.3 -10.0 -0.15 -7.8 -2.2 L-5.6 -4.2 -4.7 -5.0 -1.5 -7.65 Q-1.65 -8.4 -1.3 -8.75 -1.0 -9.1 0.45 -9.25 L2.45 -7.95 5.1 -5.1 6.4 -6.75 6.65 -7.0 7.7 -7.85 7.15 -8.75 6.65 -9.3 M6.2 -7.25 L6.65 -7.0 Q8.05 -6.55 8.4 -5.9 L7.7 -7.85 M7.5 -4.0 Q7.85 -5.3 8.4 -5.9 8.75 -4.4 8.5 -2.8 8.3 -3.6 7.5 -3.95 L6.55 -2.75 5.4 -4.65 5.1 -5.1 Q6.4 -5.05 7.5 -3.95 L7.5 -4.0 M6.2 -7.25 Q4.5 -8.1 2.45 -7.95 M-1.5 -7.65 Q-0.45 -6.0 2.2 -6.75 1.45 -6.35 1.75 -5.15 2.1 -3.8 4.6 -4.15 3.95 -3.3 4.35 -2.6 4.7 -1.9 6.2 -1.8 6.95 0.35 7.5 0.35 L7.5 0.3 6.7 -2.3 6.55 -2.75 M9.4 -2.3 L9.0 -2.25 Q8.75 -0.6 7.7 0.35 L7.5 0.3 M10.7 6.2 L10.65 6.15 10.6 6.0 Q10.2 7.15 7.45 7.55 4.65 7.9 3.45 6.5 2.75 5.65 2.65 4.25 2.55 3.3 2.75 2.1 L2.2 1.75 Q0.6 2.2 1.8 3.75 0.9 4.8 2.05 5.25 L2.15 5.3 2.15 5.35 2.0 5.55 Q1.75 6.0 1.9 6.3 2.1 6.65 2.8 6.8 2.8 8.5 4.2 7.8 4.9 9.25 5.75 8.15 6.95 9.15 7.7 7.95 9.4 8.7 9.75 7.3 11.25 7.2 10.7 6.25 M10.6 6.0 L10.6 5.9 10.6 5.45 10.5 5.1 M9.75 3.1 L9.55 2.3 9.35 1.4 M-4.7 -5.0 Q-1.65 -3.55 3.05 0.35 L4.5 1.1 Q7.4 2.25 9.1 0.4 M3.05 0.35 L2.75 2.1 M0.0 8.9 L6.6 9.25 Q9.8 8.65 11.25 6.95 M0.0 8.9 Q0.0 9.65 0.3 10.15 M10.45 4.95 L9.75 3.15 M7.7 0.35 Q8.35 -0.9 8.5 -2.8 M2.2 1.75 L-1.1 -0.85 -5.6 -4.2 M-6.35 7.95 Q-4.0 8.85 -1.1 8.55 L-0.05 8.9 0.0 8.9" fill="none" stroke="#000000" stroke-linecap="round" stroke-linejoin="miter-clip" stroke-miterlimit="5.0" stroke-opacity="0.4" stroke-width="0.30000000000000004"/>
      <path d="M2.15 5.35 L2.05 5.25" fill="none" stroke="#000000" stroke-linecap="round" stroke-linejoin="round" stroke-opacity="0.4" stroke-width="0.1"/>
    </g>
  </defs><defs>
    <g id="fur_175_Oeil_shape0" transform="matrix(1.0, 0.0, 0.0, 1.0, 2.25, 2.3)">
      <path d="M1.55 -0.95 L1.2 -0.15 Q0.85 0.2 0.4 0.2 -0.05 0.2 -0.4 -0.15 L-0.7 -0.95 -0.4 -1.75 0.4 -2.05 1.2 -1.75 1.55 -0.95 M-0.9 1.1 L-1.3 1.25 -1.7 1.1 -1.85 0.7 -1.7 0.3 -1.3 0.15 Q-1.05 0.15 -0.9 0.3 L-0.75 0.7 -0.9 1.1" fill="#ffffff" fill-rule="evenodd" stroke="none"/>
      <path d="M1.55 -1.55 Q2.2 -0.9 2.2 0.0 2.2 0.85 1.55 1.5 0.9 2.15 0.0 2.15 -0.9 2.15 -1.55 1.5 -2.15 0.85 -2.15 0.0 -2.15 -0.9 -1.55 -1.55 -0.9 -2.2 0.0 -2.2 0.9 -2.2 1.55 -1.55 Z" fill="none" stroke="#000000" stroke-linecap="round" stroke-linejoin="round" stroke-opacity="0.3019608" stroke-width="0.05"/>
      <path d="M-1.8 -1.2 Q-1.25 -2.15 0.0 -2.2 0.9 -2.2 1.55 -1.55 L1.8 -1.25 Q2.2 -0.7 2.2 0.0 L2.2 0.3 Q1.15 2.15 -0.35 1.6 -2.1 1.0 -1.8 -1.2" fill="url(#fur_175_Oeil_gradient0)" fill-rule="evenodd" stroke="none"/>
      <path d="M2.2 0.3 L1.55 1.5 Q0.9 2.15 0.0 2.15 -0.9 2.15 -1.55 1.5 -2.15 0.85 -2.15 0.0 L-1.8 -1.2 Q-2.1 1.0 -0.35 1.6 1.15 2.15 2.2 0.3" fill="#f0f0f0" fill-rule="evenodd" stroke="none"/>
      <path d="M-1.8 -1.2 Q-1.25 -2.15 0.0 -2.2 0.9 -2.2 1.55 -1.55 L1.8 -1.25 Q2.2 -0.7 2.2 0.0 L2.2 0.3 1.55 1.5 Q0.9 2.15 0.0 2.15 -0.9 2.15 -1.55 1.5 -2.15 0.85 -2.15 0.0 L-1.8 -1.2 Z" fill="none" stroke="#000000" stroke-linecap="round" stroke-linejoin="round" stroke-opacity="0.4" stroke-width="0.2"/>
      <path d="M1.4 -0.35 L1.4 -0.15 1.2 0.75 Q1.0 1.35 0.55 1.3 -0.15 1.2 -0.25 0.25 -0.35 -0.6 -0.05 -1.2 0.2 -1.75 0.75 -1.65 1.3 -1.55 1.4 -0.35" fill="#1d130e" fill-rule="evenodd" stroke="none"/>
      <path d="M1.05 -0.85 L0.05 -1.1 Q-1.05 -1.3 -1.95 -0.5 -1.7 -2.3 0.35 -2.2 2.7 -1.75 2.0 0.8 1.85 -0.45 1.05 -0.85" fill="#1d130e" fill-rule="evenodd" stroke="none"/>
      <path d="M-1.4 0.95 L-1.8 0.8 -1.95 0.4 -1.8 0.0 -1.4 -0.15 -1.0 0.0 -0.85 0.4 -1.0 0.8 -1.4 0.95" fill="#ffffff" fill-rule="evenodd" stroke="none"/>
      <path d="M0.6 -0.65 L-0.05 -0.4 Q-0.45 -0.4 -0.7 -0.65 L-0.95 -1.3 -0.7 -1.95 -0.05 -2.2 0.6 -1.95 0.85 -1.3 0.6 -0.65" fill="#ffffff" fill-rule="evenodd" stroke="none"/>
    </g>
    <radialGradient cx="0" cy="0" gradientTransform="matrix(0.0048, 0.0, 0.0, 0.0048, 0.45, -0.7)" gradientUnits="userSpaceOnUse" id="fur_175_Oeil_gradient0" r="819.2" spreadMethod="pad">
      <stop offset="0.20392156862745098" stop-color="#099fa9"/>
      <stop offset="0.5215686274509804" stop-color="#4ad0c5"/>
      <stop offset="0.9372549019607843" stop-color="#80e3d7"/>
    </radialGradient>
  </defs><defs>
    <g id="fur_175_CuisseD_shape0" transform="matrix(1.0, 0.0, 0.0, 1.0, 11.15, 6.85)">
      <path d="M-5.1 -4.75 L-4.5 -5.35 Q-3.8 -5.95 -2.6 -6.45 L0.0 -6.75 Q2.85 -6.6 4.8 -4.5 L5.55 -3.6 6.2 -2.45 Q6.8 -1.1 6.8 0.45 L6.75 1.4 Q0.95 8.65 0.9 1.9 -5.25 7.45 -3.95 -0.25 L-3.95 -0.3 Q-9.3 3.0 -5.1 -4.75" fill="#1c1b1d" fill-rule="evenodd" stroke="none"/>
      <path d="M6.75 1.4 Q6.6 3.2 7.0 5.35 L3.9 5.95 Q2.25 6.0 0.8 5.35 L0.7 5.85 Q-2.2 6.8 -4.45 4.95 L-4.75 4.7 -4.85 4.6 -6.25 4.05 -5.95 3.45 -5.95 3.15 Q-8.55 2.65 -9.55 0.35 L-9.7 0.0 Q-7.4 -1.65 -6.15 -3.3 L-5.1 -4.75 Q-9.3 3.0 -3.95 -0.3 L-3.95 -0.25 Q-5.25 7.45 0.9 1.9 0.95 8.65 6.75 1.4 M0.9 1.9 L0.8 5.35 0.9 1.9 M-5.95 3.45 L-3.95 -0.25 -5.95 3.45" fill="#0d0d0e" fill-rule="evenodd" stroke="none"/>
      <path d="M-4.45 4.95 L-4.5 5.0 -4.75 4.7 -4.45 4.95" fill="#f9f5f6" fill-rule="evenodd" stroke="none"/>
      <path d="M3.9 5.95 Q2.25 7.05 0.0 6.9 -2.6 6.75 -4.5 5.0 L-6.35 5.05 Q-6.9 4.65 -6.8 3.8 -7.65 4.4 -8.45 4.0 -9.25 3.55 -9.1 2.5 -11.0 2.8 -11.0 1.7 -11.0 0.55 -9.55 0.35 -8.55 2.65 -5.95 3.15 L-5.95 3.45 -6.25 4.05 -4.85 4.6 -4.75 4.7 -4.5 5.0 -4.45 4.95 Q-2.2 6.8 0.7 5.85 L0.8 5.35 Q2.25 6.0 3.9 5.95" fill="#e6d3d8" fill-rule="evenodd" stroke="none"/>
      <path d="M-3.95 -0.3 L-3.95 -0.25" fill="none" stroke="#000000" stroke-linecap="round" stroke-linejoin="round" stroke-opacity="0.4" stroke-width="0.1"/>
      <path d="M6.75 1.4 Q6.6 3.2 7.0 5.35 L3.9 5.95 Q2.25 7.05 0.0 6.9 -2.6 6.75 -4.5 5.0 L-6.35 5.05 Q-6.9 4.65 -6.8 3.8 -7.65 4.4 -8.45 4.0 -9.25 3.55 -9.1 2.5 -11.0 2.8 -11.0 1.7 -11.0 0.55 -9.55 0.35 L-9.7 0.0 Q-7.4 -1.65 -6.15 -3.3 L-5.1 -4.75 M0.8 5.35 L0.9 1.9 M-4.45 4.95 Q-2.2 6.8 0.7 5.85 L0.8 5.35 Q2.25 6.0 3.9 5.95 M-4.75 4.7 L-4.5 5.0 -4.45 4.95 -4.75 4.7 -4.85 4.6 -6.25 4.05 -5.95 3.45 -3.95 -0.25 M-5.95 3.15 Q-8.55 2.65 -9.55 0.35" fill="none" stroke="#000000" stroke-linecap="round" stroke-linejoin="miter-clip" stroke-miterlimit="5.0" stroke-opacity="0.4" stroke-width="0.30000000000000004"/>
    </g>
  </defs><defs>
    <g id="fur_175_Tete_shape0" transform="matrix(1.0, 0.0, 0.0, 1.0, 12.2, 12.9)">
      <path d="M1.95 -9.6 L2.6 -9.6 4.0 -9.4 Q5.1 -9.15 6.0 -8.45 L6.65 -7.85 8.7 -5.2 9.6 -3.3 10.4 -2.0 10.95 -1.5 12.05 -0.65 11.9 -0.4 11.7 -0.75 11.4 -0.75 9.85 -0.4 9.65 -0.3 9.15 0.0 8.85 0.25 9.2 0.95 9.6 0.9 9.85 0.95 Q10.05 1.0 10.25 1.2 L9.85 1.5 9.6 1.65 9.05 1.95 6.9 2.8 5.55 3.15 4.3 4.0 3.9 4.1 2.0 4.25 -1.25 3.9 -1.95 3.6 Q-5.2 2.05 -6.3 0.3 L-6.85 -0.9 -6.85 -2.35 -6.0 -6.15 -4.4 -7.9 -3.25 -9.15 Q-2.2 -10.35 -2.7 -12.05 L-2.15 -11.15 Q-1.65 -10.15 -1.8 -9.7 L-2.3 -7.95 -1.15 -9.8 -0.5 -10.5 Q0.5 -11.2 2.5 -11.1 L2.2 -10.85 Q0.1 -9.25 0.0 -8.25 L1.95 -9.6" fill="#f9f5f6" fill-rule="evenodd" stroke="none"/>
      <path d="M12.05 -0.65 L12.25 0.75 Q12.2 1.85 11.55 2.9 L10.45 4.1 9.6 4.85 9.15 5.15 7.6 6.05 5.45 7.25 4.7 7.6 2.65 8.3 2.6 8.3 Q0.75 7.25 -0.75 6.65 -1.95 6.15 -2.85 5.95 L-5.05 5.05 -6.25 4.15 Q-7.35 5.65 -9.95 4.95 L-7.85 2.45 Q-10.55 2.05 -11.75 0.15 -9.05 0.4 -7.6 -0.45 L-7.6 -0.6 -7.2 -3.55 -6.85 -4.6 -6.0 -6.15 -6.85 -2.35 -6.85 -0.9 -6.3 0.3 Q-5.2 2.05 -1.95 3.6 L-1.25 3.9 2.0 4.25 3.9 4.1 4.3 4.0 5.55 3.15 6.9 2.8 9.05 1.95 9.6 1.65 9.85 1.5 10.25 1.2 10.55 1.8 10.9 1.65 11.4 1.35 Q11.25 1.15 11.55 0.6 L12.05 -0.1 11.9 -0.4 12.05 -0.65 M-2.7 -12.05 L-2.85 -12.45 -1.8 -11.7 Q-0.75 -10.75 -1.15 -9.8 L-2.3 -7.95 -1.8 -9.7 Q-1.65 -10.15 -2.15 -11.15 L-2.7 -12.05 M2.2 -10.85 Q1.75 -10.4 1.95 -9.6 L0.0 -8.25 Q0.1 -9.25 2.2 -10.85" fill="#e6d3d8" fill-rule="evenodd" stroke="none"/>
      <path d="M9.65 -0.3 L9.85 -0.4 11.4 -0.75 Q11.1 0.3 9.85 -0.2 L9.65 -0.3" fill="#f5e0cd" fill-rule="evenodd" stroke="none"/>
      <path d="M11.4 -0.75 L11.7 -0.75 11.9 -0.4 12.05 -0.1 11.55 0.6 Q11.25 1.15 11.4 1.35 L10.9 1.65 Q11.05 1.2 10.65 0.85 L10.3 0.65 9.6 0.55 9.15 0.0 9.65 -0.3 9.85 -0.2 Q11.1 0.3 11.4 -0.75" fill="#f49ab2" fill-rule="evenodd" stroke="none"/>
      <path d="M9.15 0.0 L9.6 0.55 10.3 0.65 10.65 0.85 Q11.05 1.2 10.9 1.65 L10.55 1.8 10.25 1.2 Q10.05 1.0 9.85 0.95 L9.6 0.9 9.2 0.95 8.85 0.25 9.15 0.0" fill="#eb6488" fill-rule="evenodd" stroke="none"/>
      <path d="M1.95 -9.6 L2.6 -9.6 4.0 -9.4 Q5.1 -9.15 6.0 -8.45 L6.65 -7.85 8.7 -5.2 9.6 -3.3 10.4 -2.0 10.95 -1.5 12.05 -0.65 12.25 0.75 Q12.2 1.85 11.55 2.9 L10.45 4.1 9.6 4.85 9.15 5.15 7.6 6.05 5.45 7.25 4.7 7.6 M-2.85 5.95 L-5.05 5.05 -6.25 4.15 Q-7.35 5.65 -9.95 4.95 L-7.85 2.45 Q-10.55 2.05 -11.75 0.15 -9.05 0.4 -7.6 -0.45 L-7.6 -0.6 -7.2 -3.55 -6.85 -4.6 -6.0 -6.15 -4.4 -7.9 -3.25 -9.15 Q-2.2 -10.35 -2.7 -12.05 L-2.85 -12.45 -1.8 -11.7 Q-0.75 -10.75 -1.15 -9.8 L-0.5 -10.5 Q0.5 -11.2 2.5 -11.1 L2.2 -10.85 Q1.75 -10.4 1.95 -9.6" fill="none" stroke="#000000" stroke-linecap="round" stroke-linejoin="miter-clip" stroke-miterlimit="5.0" stroke-opacity="0.4" stroke-width="0.30000000000000004"/>
      <path d="M9.65 -0.3 L9.85 -0.4 11.4 -0.75 11.7 -0.75 11.9 -0.4 12.05 -0.1 11.55 0.6 Q11.25 1.15 11.4 1.35 L10.9 1.65 10.55 1.8 10.25 1.2 Q10.05 1.0 9.85 0.95 L9.6 0.9 9.2 0.95 8.85 0.25 9.15 0.0 9.65 -0.3" fill="none" stroke="#000000" stroke-linecap="round" stroke-linejoin="round" stroke-opacity="0.3019608" stroke-width="0.05"/>
      <path d="M2.15 7.9 L2.2 7.65 Q2.25 7.5 2.45 7.45 L2.85 7.5 3.05 7.8 3.0 8.15 2.95 8.3 2.7 8.4 2.55 8.35 2.35 8.3 2.2 8.0 2.15 7.9" fill="#1c1b1d" fill-rule="evenodd" stroke="none"/>
      <path d="M2.15 7.9 L2.2 7.65 Q2.25 7.5 2.45 7.45 L2.85 7.5 3.05 7.8 3.0 8.15 2.95 8.3 2.7 8.4 2.55 8.35 2.35 8.3 2.2 8.0 2.15 7.9" fill="none" stroke="#000000" stroke-linecap="round" stroke-linejoin="miter-clip" stroke-miterlimit="5.0" stroke-opacity="0.4" stroke-width="0.30000000000000004"/>
      <path d="M3.05 7.8 Q5.8 9.65 5.3 10.6 4.8 11.6 3.85 9.95 L2.95 8.3 M2.55 8.35 Q2.7 9.85 2.2 11.2 1.5 12.75 0.8 11.85 L0.7 11.75 Q0.4 11.4 0.55 10.85 0.65 9.8 2.15 7.9 Z" fill="none" stroke="#000000" stroke-linecap="round" stroke-linejoin="miter-clip" stroke-miterlimit="5.0" stroke-opacity="0.84705883" stroke-width="0.30000000000000004"/>
      <path d="M5.9 3.8 L5.55 3.9 5.0 4.1 3.45 4.6 2.55 5.0 Q-2.95 7.3 -6.65 11.7 M4.4 2.85 L2.55 2.95 Q-5.6 3.5 -11.95 7.95" fill="none" stroke="#000000" stroke-linecap="round" stroke-linejoin="miter-clip" stroke-miterlimit="5.0" stroke-opacity="0.5019608" stroke-width="0.5"/>
    </g>
  </defs><defs>
    <g id="fur_175_PiedD2_shape0" transform="matrix(1.0, 0.0, 0.0, 1.0, 4.55, 2.0)">
      <path d="M1.05 1.8 L0.3 1.85 Q-0.55 1.9 -1.65 1.35 -2.85 0.75 -3.55 0.5 L-4.25 0.0 Q-4.75 -0.95 -4.05 -1.4 -3.15 -2.0 -1.75 -1.85 L0.95 -1.3 3.55 -0.5 2.8 -0.4 0.35 0.3 -0.2 0.6 Q-0.65 0.9 -0.4 1.3 L1.5 1.4 1.05 1.8 1.5 1.4 Q1.8 1.0 1.4 0.65 L0.75 0.4 Q2.2 0.45 2.4 0.85 L1.55 1.8 1.05 1.8 M3.55 -0.5 Q4.0 -0.5 4.25 0.15 4.5 0.75 3.85 1.0 L2.9 1.35 Q3.75 1.0 3.4 0.1 3.75 -0.05 3.55 -0.5" fill="#e6d3d8" fill-rule="evenodd" stroke="none"/>
      <path d="M1.5 1.4 L-0.4 1.3 Q-0.65 0.9 -0.2 0.6 L0.35 0.3 2.8 -0.4 3.55 -0.5 Q3.75 -0.05 3.4 0.1 3.75 1.0 2.9 1.35 2.6 1.65 1.55 1.8 L2.4 0.85 Q2.2 0.45 0.75 0.4 L1.4 0.65 Q1.8 1.0 1.5 1.4 M2.8 -0.4 L3.4 0.1 2.8 -0.4" fill="#f9f5f6" fill-rule="evenodd" stroke="none"/>
      <path d="M3.55 -0.5 L0.95 -1.3 -1.75 -1.85 Q-3.15 -2.0 -4.05 -1.4 -4.75 -0.95 -4.25 0.0 L-3.55 0.5 Q-2.85 0.75 -1.65 1.35 -0.55 1.9 0.3 1.85 L1.05 1.8 1.5 1.4 Q1.8 1.0 1.4 0.65 L0.75 0.4 M3.55 -0.5 Q4.0 -0.5 4.25 0.15 4.5 0.75 3.85 1.0 L2.9 1.35 Q2.6 1.65 1.55 1.8 L1.05 1.8 M3.4 0.1 Q3.75 1.0 2.9 1.35 M3.4 0.1 L2.8 -0.4" fill="none" stroke="#000000" stroke-linecap="round" stroke-linejoin="round" stroke-opacity="0.4" stroke-width="0.2"/>
    </g>
  </defs><defs>
    <g id="fur_175_Oeil2_shape0" transform="matrix(1.0, 0.0, 0.0, 1.0, 2.75, 5.25)">
      <path d="M-1.95 1.25 Q-1.1 -0.1 0.25 -0.35 1.6 -0.65 2.35 0.1 3.1 0.85 3.75 0.1 M0.75 -5.05 Q-0.2 -2.75 -2.55 -2.05" fill="none" stroke="#000000" stroke-linecap="round" stroke-linejoin="round" stroke-opacity="0.7137255" stroke-width="0.4"/>
    </g>
  </defs><defs>
    <g id="fur_175_PatteD2_shape0" transform="matrix(1.0, 0.0, 0.0, 1.0, 5.95, 4.75)">
      <path d="M-3.8 -0.85 L-3.9 -1.4 Q-4.0 -2.4 -3.5 -3.1 -2.2 -4.0 -0.9 -3.7 0.65 -3.35 1.5 -2.3 L2.2 -1.4 2.3 -1.3 2.5 -1.15 Q2.6 -1.1 2.85 -1.3 L2.9 -1.4 Q3.05 -2.4 3.45 -2.1 L4.0 -1.6 4.05 -1.4 4.0 -1.3 4.05 -1.25 4.1 -1.15 3.9 -1.4 Q3.35 -1.9 3.05 -1.55 L2.95 -1.4 2.85 -1.3 2.95 -1.4 3.05 -1.55 Q3.35 -1.9 3.9 -1.4 L4.1 -1.15 4.2 0.0 4.2 0.8 4.05 1.8 3.95 2.15 3.65 2.9 3.35 3.35 2.7 3.75 2.5 3.8 Q1.95 3.8 1.3 3.3 L0.75 2.9 -0.4 2.15 -1.6 1.45 -3.05 0.4 -3.55 -0.15 -3.75 -0.75 -3.8 -0.85 M2.7 1.1 L3.1 0.4 Q3.55 -0.2 4.2 0.0 3.55 -0.2 3.1 0.4 L2.7 1.1" fill="#f9f5f6" fill-rule="evenodd" stroke="none"/>
      <path d="M4.05 -1.25 L4.15 -1.1 4.1 -1.15 4.05 -1.25" fill="#78583a" fill-rule="evenodd" stroke="none"/>
      <path d="M-3.8 -0.85 L-3.75 -0.75 -3.55 -0.15 -3.05 0.4 -1.6 1.45 -0.4 2.15 0.75 2.9 1.3 3.3 Q1.95 3.8 2.5 3.8 L2.7 3.75 3.35 3.35 3.65 2.9 3.95 2.15 4.05 1.8 4.2 0.8 4.2 0.0 Q3.55 -0.2 3.1 0.4 L2.7 1.1 M4.1 -1.15 L3.9 -1.4 Q3.35 -1.9 3.05 -1.55 L2.95 -1.4 2.85 -1.3 Q2.6 -1.1 2.5 -1.15 M2.85 -1.3 L2.9 -1.4 Q3.05 -2.4 3.45 -2.1 L4.0 -1.6 4.05 -1.4 4.0 -1.3 4.05 -1.25 4.15 -1.1 4.1 -1.15 4.2 0.0 M4.05 -1.25 L4.1 -1.15" fill="none" stroke="#000000" stroke-linecap="round" stroke-linejoin="round" stroke-opacity="0.4" stroke-width="0.30000000000000004"/>
      <path d="M0.55 -2.9 Q1.7 -4.0 2.1 -3.1 2.55 -2.25 0.95 -2.05 2.2 -2.05 1.7 -0.95 1.3 0.05 0.4 -0.2 1.15 0.1 0.8 1.05 0.65 1.55 0.15 1.65 L-1.0 1.45 -0.8 2.1 Q-0.7 3.1 -1.45 3.2 -2.3 3.35 -2.25 2.4 L-2.3 2.25 Q-1.85 2.2 -1.65 2.0 -0.95 1.45 -1.3 0.4 L-0.45 -0.25 -0.1 -0.7 Q0.2 -1.45 -0.1 -1.85 L0.2 -1.9 Q0.55 -1.9 0.8 -2.45 L0.55 -2.9" fill="#f9f5f6" fill-rule="evenodd" stroke="none"/>
      <path d="M-2.3 2.25 L-3.4 2.15 Q-1.25 1.5 -2.9 0.3 0.1 -0.45 -2.15 -2.9 L-2.45 -3.15 -1.35 -3.05 -0.85 -2.9 Q0.2 -2.35 -0.2 -3.8 L0.55 -2.9 0.8 -2.45 Q0.55 -1.9 0.2 -1.9 L-0.1 -1.85 Q0.2 -1.45 -0.1 -0.7 L-0.45 -0.25 -1.3 0.4 Q-0.95 1.45 -1.65 2.0 -1.85 2.2 -2.3 2.25 M-0.1 -1.85 L-0.85 -2.9 -0.1 -1.85 M-1.3 0.4 L-2.9 0.3 -1.3 0.4" fill="#0d0d0e" fill-rule="evenodd" stroke="none"/>
      <path d="M-3.4 2.15 Q-4.95 1.15 -5.45 0.1 -6.05 -1.15 -5.55 -2.2 L-5.15 -3.15 -3.85 -4.25 -2.5 -4.6 -2.3 -4.6 -0.75 -4.2 Q-0.5 -4.1 -0.2 -3.8 0.2 -2.35 -0.85 -2.9 L-1.35 -3.05 -2.45 -3.15 -2.15 -2.9 Q0.1 -0.45 -2.9 0.3 L-2.95 0.3 Q-3.5 0.05 -4.05 -0.55 -3.5 0.05 -2.95 0.3 L-2.9 0.3 Q-1.25 1.5 -3.4 2.15" fill="#1c1b1d" fill-rule="evenodd" stroke="none"/>
      <path d="M0.55 -2.9 Q1.7 -4.0 2.1 -3.1 2.55 -2.25 0.95 -2.05 2.2 -2.05 1.7 -0.95 1.3 0.05 0.4 -0.2 1.15 0.1 0.8 1.05 0.65 1.55 0.15 1.65 L-1.0 1.45 -0.8 2.1 Q-0.7 3.1 -1.45 3.2 -2.3 3.35 -2.25 2.4 L-2.3 2.25 -3.4 2.15 Q-4.95 1.15 -5.45 0.1 -6.05 -1.15 -5.55 -2.2 L-5.15 -3.15 -3.85 -4.25 -2.5 -4.6 -2.3 -4.6 -0.75 -4.2 Q-0.5 -4.1 -0.2 -3.8 L0.55 -2.9 0.8 -2.45 Q0.55 -1.9 0.2 -1.9 L-0.1 -1.85 Q0.2 -1.45 -0.1 -0.7 L-0.45 -0.25 -1.3 0.4 Q-0.95 1.45 -1.65 2.0 -1.85 2.2 -2.3 2.25 M-0.85 -2.9 L-0.1 -1.85 M-2.45 -3.15 L-1.35 -3.05 -0.85 -2.9 M-4.05 -0.55 Q-3.5 0.05 -2.95 0.3 L-2.9 0.3 -1.3 0.4" fill="none" stroke="#000000" stroke-linecap="round" stroke-linejoin="miter-clip" stroke-miterlimit="5.0" stroke-opacity="0.4" stroke-width="0.30000000000000004"/>
    </g>
  </defs><defs>
    <g id="fur_175_OreilleG_shape0" transform="matrix(1.0, 0.0, 0.0, 1.0, 1.85, 7.85)">
      <path d="M1.1 4.55 L1.1 4.8 0.4 7.6 0.0 7.85 Q-0.45 7.85 -0.8 6.55 L-1.0 5.85 -1.65 2.8 -1.85 0.85 -1.5 -2.2 -0.95 -5.55 Q-0.55 -7.85 0.0 -7.85 0.55 -7.85 0.95 -5.55 1.35 -3.25 1.35 0.0 L1.1 4.55" fill="#e6d3d8" fill-rule="evenodd" stroke="none"/>
      <path d="M1.1 4.55 L1.1 4.8 0.4 7.6 0.0 7.85 Q-0.45 7.85 -0.8 6.55 L-1.0 5.85 -1.65 2.8 -1.85 0.85 -1.5 -2.2 -0.95 -5.55 Q-0.55 -7.85 0.0 -7.85 0.55 -7.85 0.95 -5.55 1.35 -3.25 1.35 0.0" fill="none" stroke="#000000" stroke-linecap="round" stroke-linejoin="round" stroke-opacity="0.3019608" stroke-width="0.05"/>
    </g>
  </defs><defs>
    <g id="fur_175_OreilleD_shape0" transform="matrix(1.0, 0.0, 0.0, 1.0, 11.45, 10.6)">
      <path d="M-8.45 0.1 Q-8.5 -1.45 -7.95 -2.8 L-7.35 -4.05 Q-9.75 -3.9 -11.1 -6.5 L-4.85 -7.25 Q-6.35 -8.3 -6.15 -10.1 -4.2 -8.45 0.1 -7.75 1.75 -7.7 3.15 -7.05 L5.35 -5.55 6.55 -4.25 Q7.35 -3.2 7.7 -1.95 L8.0 0.0 Q8.05 1.65 7.7 3.3 L7.2 5.0 6.65 4.9 6.45 4.75 5.7 4.2 Q4.9 3.7 4.8 2.9 4.65 1.95 5.5 0.35 5.9 -0.4 5.75 -1.25 5.55 -2.45 4.45 -3.85 L3.4 -4.65 Q2.45 -5.5 1.0 -6.0 -1.9 -7.1 -4.5 -5.5 L-6.15 -4.25 -6.7 -3.65 -7.35 -2.65 -8.25 -0.4 -8.45 0.1" fill="#f9f5f6" fill-rule="evenodd" stroke="none"/>
      <path d="M-8.25 -0.4 L-7.35 -2.65 -6.7 -3.65 -3.9 -4.35 -2.65 -4.25 Q-1.4 -3.8 -1.4 -1.75 L-1.3 -1.65 -0.55 -2.35 1.0 -3.2 4.2 -3.8 3.4 -4.65 4.45 -3.85 Q5.55 -2.45 5.75 -1.25 5.9 -0.4 5.5 0.35 4.65 1.95 4.8 2.9 4.9 3.7 5.7 4.2 L6.45 4.75 6.45 4.8 3.8 4.4 3.95 4.6 Q2.4 4.25 2.4 1.3 1.5 -0.5 0.15 -0.7 -2.1 -1.2 -2.95 2.45 -2.8 0.85 -2.2 -0.3 L-1.4 -1.6 -2.35 -1.95 -4.55 -1.5 -6.2 -0.8 -8.35 0.6 -8.35 0.55 -8.25 -0.4 M4.45 -3.85 L4.2 -3.8 4.45 -3.85" fill="#e894aa" fill-rule="evenodd" stroke="none"/>
      <path d="M-6.7 -3.65 L-6.15 -4.25 -4.5 -5.5 Q-1.9 -7.1 1.0 -6.0 2.45 -5.5 3.4 -4.65 L4.2 -3.8 1.0 -3.2 -0.55 -2.35 -1.3 -1.65 -1.4 -1.75 Q-1.4 -3.8 -2.65 -4.25 L-3.9 -4.35 -6.7 -3.65" fill="#e0829a" fill-rule="evenodd" stroke="none"/>
      <path d="M-8.45 0.1 L-8.25 -0.4 -8.35 0.55 -8.35 0.6 -6.2 -0.8 -4.55 -1.5 -2.35 -1.95 -1.4 -1.6 -2.2 -0.3 Q-2.8 0.85 -2.95 2.45 -2.1 -1.2 0.15 -0.7 1.5 -0.5 2.4 1.3 2.4 4.25 3.95 4.6 L5.2 6.0 3.85 5.5 4.6 6.5 Q3.45 7.25 2.2 7.6 L-0.05 7.9 -2.25 7.6 -1.05 4.3 -3.6 7.1 Q-4.7 6.6 -5.6 5.75 L-5.85 5.55 -7.35 3.85 Q-8.35 2.25 -8.45 0.35 L-8.45 0.1 M-2.95 4.3 L-2.95 2.45 -2.95 4.3" fill="#f5b9c8" fill-rule="evenodd" stroke="none"/>
      <path d="M7.2 5.0 L7.7 3.3 Q8.05 1.65 8.0 0.0 L7.7 -1.95 Q7.35 -3.2 6.55 -4.25 L5.35 -5.55 3.15 -7.05 Q1.75 -7.7 0.1 -7.75 -4.2 -8.45 -6.15 -10.1 -6.35 -8.3 -4.85 -7.25 L-11.1 -6.5 Q-9.75 -3.9 -7.35 -4.05 L-7.95 -2.8 Q-8.5 -1.45 -8.45 0.1 L-8.45 0.35 Q-8.35 2.25 -7.35 3.85 L-5.85 5.55 -5.6 5.75 Q-4.7 6.6 -3.6 7.1 L-1.05 4.3 -2.25 7.6 -0.05 7.9 2.2 7.6" fill="none" stroke="#000000" stroke-linecap="round" stroke-linejoin="miter-clip" stroke-miterlimit="5.0" stroke-opacity="0.3019608" stroke-width="0.5"/>
      <path d="M4.2 -3.8 L4.45 -3.85 M4.2 -3.8 L1.0 -3.2 -0.55 -2.35 -1.3 -1.65 M-2.95 2.45 L-2.95 4.3 M-2.95 2.45 Q-2.8 0.85 -2.2 -0.3 L-1.4 -1.6" fill="none" stroke="#000000" stroke-linecap="round" stroke-linejoin="miter-clip" stroke-miterlimit="5.0" stroke-opacity="0.2" stroke-width="0.30000000000000004"/>
      <path d="M-4.5 -5.5 Q-1.9 -7.1 1.0 -6.0 2.45 -5.5 3.4 -4.65 L4.45 -3.85 Q5.55 -2.45 5.75 -1.25 5.9 -0.4 5.5 0.35 4.65 1.95 4.8 2.9 4.9 3.7 5.7 4.2" fill="none" stroke="#000000" stroke-linecap="round" stroke-linejoin="miter-clip" stroke-miterlimit="5.0" stroke-opacity="0.3019608" stroke-width="0.30000000000000004"/>
    </g>
  </defs><defs>
    <g id="fur_175_PatteD_shape0" transform="matrix(1.0, 0.0, 0.0, 1.0, 5.4, 5.2)">
      <path d="M-4.15 -0.85 Q-4.4 -1.85 -4.15 -2.55 L-3.85 -3.1 Q-2.55 -4.0 -1.25 -3.7 0.3 -3.35 1.65 -1.95 L1.95 -1.65 3.25 -0.1 Q3.7 0.5 3.85 2.1 L3.1 0.9 3.85 2.1 Q4.2 2.6 3.15 3.25 L3.05 3.55 2.35 3.75 Q1.6 2.25 -0.45 0.75 -3.2 0.4 -4.05 -0.6 L-4.15 -0.85 M1.95 1.6 Q2.9 2.2 3.15 3.25 2.9 2.2 1.95 1.6" fill="#f9f5f6" fill-rule="evenodd" stroke="none"/>
      <path d="M-4.05 -0.6 Q-3.2 0.4 -0.45 0.75 1.6 2.25 2.35 3.75 1.7 3.9 0.95 3.3 -0.25 2.4 -1.95 1.45 -3.6 0.45 -3.9 -0.15 L-4.05 -0.6" fill="#e6d3d8" fill-rule="evenodd" stroke="none"/>
      <path d="M-4.15 -0.85 L-4.05 -0.6 -3.9 -0.15 Q-3.6 0.45 -1.95 1.45 -0.25 2.4 0.95 3.3 1.7 3.9 2.35 3.75 L3.05 3.55 3.15 3.25 Q2.9 2.2 1.95 1.6 M3.85 2.1 Q3.7 0.5 3.25 -0.1 L1.95 -1.65 M3.85 2.1 L3.1 0.9 M3.15 3.25 Q4.2 2.6 3.85 2.1" fill="none" stroke="#000000" stroke-linecap="round" stroke-linejoin="miter-clip" stroke-miterlimit="5.0" stroke-opacity="0.4" stroke-width="0.30000000000000004"/>
      <path d="M1.35 -2.7 L1.5 -2.2 0.85 -1.75 0.55 -1.8 Q0.75 -1.35 0.25 -0.7 L-0.15 -0.3 Q-0.55 0.0 -1.1 0.2 -0.95 1.25 -1.75 1.65 L-2.45 1.75 -3.5 1.45 Q-1.25 1.25 -2.65 -0.25 0.6 -0.4 -1.5 -3.55 -1.0 -3.55 -0.05 -3.0 0.9 -2.2 0.8 -3.75 L1.35 -2.7 M0.55 -1.8 L-0.05 -3.0 0.55 -1.8 M-1.1 0.2 Q-1.95 0.25 -2.65 -0.25 -1.95 0.25 -1.1 0.2" fill="#0d0d0e" fill-rule="evenodd" stroke="none"/>
      <path d="M-2.45 1.75 L-1.75 1.65 Q-0.95 1.25 -1.1 0.2 -0.55 0.0 -0.15 -0.3 L0.25 -0.7 Q0.75 -1.35 0.55 -1.8 L0.85 -1.75 1.5 -2.2 1.35 -2.7 Q2.7 -3.55 2.95 -2.6 3.2 -1.65 1.6 -1.75 2.8 -1.55 2.1 -0.55 1.5 0.35 0.7 -0.1 1.35 0.4 0.85 1.25 0.6 1.7 0.05 1.65 L-1.0 1.25 -0.95 1.9 Q-1.05 2.95 -1.8 2.9 -2.7 2.85 -2.45 1.9 L-2.45 1.75" fill="#f9f5f6" fill-rule="evenodd" stroke="none"/>
      <path d="M0.8 -3.75 Q0.9 -2.2 -0.05 -3.0 -1.0 -3.55 -1.5 -3.55 0.6 -0.4 -2.65 -0.25 L-2.7 -0.3 -3.6 -1.3 -2.7 -0.3 -2.65 -0.25 Q-1.25 1.25 -3.5 1.45 -4.85 0.2 -5.15 -0.95 -5.55 -2.75 -4.15 -4.05 -2.8 -5.35 -1.3 -5.0 0.15 -4.65 0.8 -3.75" fill="#1c1b1d" fill-rule="evenodd" stroke="none"/>
      <path d="M1.35 -2.7 L1.5 -2.2 0.85 -1.75 0.55 -1.8 Q0.75 -1.35 0.25 -0.7 L-0.15 -0.3 Q-0.55 0.0 -1.1 0.2 -0.95 1.25 -1.75 1.65 L-2.45 1.75 -2.45 1.9 Q-2.7 2.85 -1.8 2.9 -1.05 2.95 -0.95 1.9 L-1.0 1.25 0.05 1.65 Q0.6 1.7 0.85 1.25 1.35 0.4 0.7 -0.1 1.5 0.35 2.1 -0.55 2.8 -1.55 1.6 -1.75 3.2 -1.65 2.95 -2.6 2.7 -3.55 1.35 -2.7 L0.8 -3.75 Q0.15 -4.65 -1.3 -5.0 -2.8 -5.35 -4.15 -4.05 -5.55 -2.75 -5.15 -0.95 -4.85 0.2 -3.5 1.45 L-2.45 1.75 M-0.05 -3.0 L0.55 -1.8 M-1.5 -3.55 Q-1.0 -3.55 -0.05 -3.0 M-3.6 -1.3 L-2.7 -0.3 -2.65 -0.25 Q-1.95 0.25 -1.1 0.2" fill="none" stroke="#000000" stroke-linecap="round" stroke-linejoin="miter-clip" stroke-miterlimit="5.0" stroke-opacity="0.4" stroke-width="0.30000000000000004"/>
    </g>
  </defs><defs>
    <g id="fur_175_Oeil3_shape0" transform="matrix(1.0, 0.0, 0.0, 1.0, 2.0, 1.3)">
      <path d="M-1.8 1.95 Q-1.55 -0.75 0.15 -1.05 1.85 -1.35 2.2 0.25" fill="none" stroke="#000000" stroke-linecap="round" stroke-linejoin="round" stroke-opacity="0.7137255" stroke-width="0.4"/>
    </g>
  </defs><defs>
    <g id="fur_175_Queue_shape0" transform="matrix(1.0, 0.0, 0.0, 1.0, 14.4, 20.0)">
      <path d="M-2.45 -0.5 Q-1.9 -3.35 -1.9 -5.2 -1.85 -11.85 -6.0 -16.9 -6.15 -13.8 -9.8 -14.1 L-8.2 -17.45 Q-10.85 -15.8 -14.25 -18.55 L-12.45 -19.3 -9.85 -19.8 -8.3 -19.3 -7.4 -18.8 Q2.5 -14.0 -0.35 1.25 -0.7 11.75 7.15 13.8 9.65 18.15 5.65 19.05 -0.4 15.2 -1.8 11.75 -3.15 8.25 -2.45 -0.5" fill="#f9f5f6" fill-rule="evenodd" stroke="none"/>
      <path d="M5.65 19.05 L4.05 18.55 Q3.7 20.35 0.85 20.75 L0.45 17.4 Q-1.35 19.25 -6.05 17.55 -4.25 15.4 -3.65 13.1 -6.95 14.05 -9.3 11.15 -5.75 11.05 -3.75 9.0 -4.1 5.9 -3.05 1.85 L-2.45 -0.5 Q-3.15 8.25 -1.8 11.75 -0.4 15.2 5.65 19.05" fill="#e6d3d8" fill-rule="evenodd" stroke="none"/>
      <path d="M-2.45 -0.5 Q-1.9 -3.35 -1.9 -5.2 -1.85 -11.85 -6.0 -16.9 -6.15 -13.8 -9.8 -14.1 L-8.2 -17.45 Q-10.85 -15.8 -14.25 -18.55 L-12.45 -19.3 -9.85 -19.8 -8.3 -19.3 -7.4 -18.8 Q2.5 -14.0 -0.35 1.25 -0.7 11.75 7.15 13.8 9.65 18.15 5.65 19.05 L4.05 18.55 Q3.7 20.35 0.85 20.75 L0.45 17.4 Q-1.35 19.25 -6.05 17.55 -4.25 15.4 -3.65 13.1 -6.95 14.05 -9.3 11.15 -5.75 11.05 -3.75 9.0 -4.1 5.9 -3.05 1.85 L-2.45 -0.5 Z" fill="none" stroke="#000000" stroke-linecap="round" stroke-linejoin="miter-clip" stroke-miterlimit="5.0" stroke-opacity="0.4" stroke-width="0.30000000000000004"/>
    </g>
  </defs><defs>
    <g id="fur_175_PatteG_shape0" transform="matrix(1.0, 0.0, 0.0, 1.0, 4.2, 4.8)">
      <path d="M0.35 -3.75 L2.5 -0.85 3.6 1.35 3.75 1.85 3.75 2.55 3.05 3.75 2.2 4.2 Q1.6 4.3 1.05 3.55 0.2 2.3 -1.45 1.25 -3.1 0.2 -3.65 -1.05 L-3.7 -1.1 Q-4.1 -2.7 -3.2 -3.55 -2.4 -4.4 -1.2 -4.25 -0.05 -4.15 0.35 -3.75 M2.1 1.55 Q3.25 3.05 2.2 4.2 3.25 3.05 2.1 1.55" fill="#e6d3d8" fill-rule="evenodd" stroke="none"/>
      <path d="M0.35 -3.75 L2.5 -0.85 3.6 1.35 3.75 1.85 3.75 2.55 3.05 3.75 2.2 4.2 Q1.6 4.3 1.05 3.55 0.2 2.3 -1.45 1.25 -3.1 0.2 -3.65 -1.05 L-3.7 -1.1 M2.2 4.2 Q3.25 3.05 2.1 1.55" fill="none" stroke="#000000" stroke-linecap="round" stroke-linejoin="miter-clip" stroke-miterlimit="5.0" stroke-opacity="0.4" stroke-width="0.30000000000000004"/>
      <path d="M1.6 -2.15 Q2.75 -2.75 3.0 -1.9 3.2 -1.05 1.8 -1.3 2.85 -1.0 2.25 -0.2 1.5 0.35 1.05 0.05 1.6 0.55 1.15 1.25 0.75 1.9 -0.4 1.05 L-0.5 2.1 Q-0.65 2.5 -1.1 2.4 L-1.65 1.95 -1.65 1.3 Q-1.4 1.4 -0.95 1.0 -0.45 0.55 -0.5 0.1 0.15 -0.05 0.65 -0.55 1.1 -1.05 0.9 -1.5 1.55 -1.45 1.6 -2.15" fill="#e6d3d8" fill-rule="evenodd" stroke="none"/>
      <path d="M-1.65 1.3 L-2.55 0.9 Q-3.6 0.25 -4.0 -1.4 -4.3 -3.0 -3.1 -4.0 -1.95 -4.95 -0.65 -4.5 0.55 -4.05 1.15 -3.15 L1.6 -2.15 Q1.55 -1.45 0.9 -1.5 1.1 -1.05 0.65 -0.55 0.15 -0.05 -0.5 0.1 -0.45 0.55 -0.95 1.0 -1.4 1.4 -1.65 1.3 M0.9 -1.5 Q0.55 -3.1 -0.95 -3.25 0.55 -3.1 0.9 -1.5 M-0.5 0.1 Q-1.35 0.0 -2.0 -0.65 L-2.65 -1.5 -2.0 -0.65 Q-1.35 0.0 -0.5 0.1" fill="#0d0d0e" fill-rule="evenodd" stroke="none"/>
      <path d="M1.6 -2.15 Q2.75 -2.75 3.0 -1.9 3.2 -1.05 1.8 -1.3 2.85 -1.0 2.25 -0.2 1.5 0.35 1.05 0.05 1.6 0.55 1.15 1.25 0.75 1.9 -0.4 1.05 L-0.5 2.1 Q-0.65 2.5 -1.1 2.4 L-1.65 1.95 -1.65 1.3 -2.55 0.9 Q-3.6 0.25 -4.0 -1.4 -4.3 -3.0 -3.1 -4.0 -1.95 -4.95 -0.65 -4.5 0.55 -4.05 1.15 -3.15 L1.6 -2.15 Q1.55 -1.45 0.9 -1.5 1.1 -1.05 0.65 -0.55 0.15 -0.05 -0.5 0.1 -0.45 0.55 -0.95 1.0 -1.4 1.4 -1.65 1.3 M-2.65 -1.5 L-2.0 -0.65 Q-1.35 0.0 -0.5 0.1 M-0.95 -3.25 Q0.55 -3.1 0.9 -1.5" fill="none" stroke="#000000" stroke-linecap="round" stroke-linejoin="miter-clip" stroke-miterlimit="5.0" stroke-opacity="0.4" stroke-width="0.30000000000000004"/>
    </g>
  </defs><defs>
    <g id="fur_175_PatteG2_shape0" transform="matrix(1.0, 0.0, 0.0, 1.0, 4.25, 4.85)">
      <path d="M-3.7 -1.05 Q-4.1 -2.65 -3.2 -3.5 -2.4 -4.35 -0.8 -3.95 0.75 -3.55 1.35 -2.55 L2.4 -0.7 3.4 0.2 4.0 0.5 5.6 0.65 6.2 1.1 5.8 1.8 5.6 2.15 5.05 2.5 4.3 2.85 3.55 3.15 1.0 3.0 0.8 2.85 -1.45 1.3 -1.75 1.1 -3.1 -0.1 -3.7 -1.05 M2.4 1.9 Q4.25 1.05 5.05 2.5 4.25 1.05 2.4 1.9 M5.8 1.8 L5.75 1.35 5.6 1.1 4.85 0.8 4.0 0.5 4.85 0.8 5.6 1.1 5.75 1.35 5.8 1.8" fill="#e6d3d8" fill-rule="evenodd" stroke="none"/>
      <path d="M2.4 -0.7 L3.4 0.2 4.0 0.5 5.6 0.65 6.2 1.1 5.8 1.8 5.6 2.15 5.05 2.5 4.3 2.85 3.55 3.15 1.0 3.0 0.8 2.85 -1.45 1.3 -1.75 1.1 -3.1 -0.1 -3.7 -1.05 M4.0 0.5 L4.85 0.8 5.6 1.1 5.75 1.35 5.8 1.8 M5.05 2.5 Q4.25 1.05 2.4 1.9" fill="none" stroke="#000000" stroke-linecap="round" stroke-linejoin="round" stroke-opacity="0.4" stroke-width="0.30000000000000004"/>
      <path d="M-1.7 1.25 Q-2.0 1.25 -2.6 0.85 -3.65 0.2 -4.05 -1.45 -4.35 -3.05 -3.15 -4.05 -2.0 -5.0 -0.7 -4.55 0.5 -4.1 1.1 -3.2 L1.55 -2.2 Q1.5 -1.5 0.85 -1.55 1.05 -1.1 0.6 -0.6 0.1 -0.1 -0.55 0.05 -0.5 0.5 -1.0 0.95 -1.45 1.35 -1.7 1.25 M-2.7 -1.55 L-2.05 -0.7 Q-1.4 -0.05 -0.55 0.05 -1.4 -0.05 -2.05 -0.7 L-2.7 -1.55 M0.85 -1.55 Q0.5 -3.15 -1.0 -3.3 0.5 -3.15 0.85 -1.55" fill="#0d0d0e" fill-rule="evenodd" stroke="none"/>
      <path d="M1.55 -2.2 Q2.7 -2.8 2.95 -1.95 3.15 -1.1 1.75 -1.35 2.8 -1.05 2.2 -0.25 1.45 0.3 1.0 0.0 1.55 0.5 1.1 1.2 0.7 1.85 -0.45 1.0 L-0.55 2.05 Q-0.7 2.45 -1.15 2.35 -1.6 2.25 -1.7 1.9 L-1.7 1.25 Q-1.45 1.35 -1.0 0.95 -0.5 0.5 -0.55 0.05 0.1 -0.1 0.6 -0.6 1.05 -1.1 0.85 -1.55 1.5 -1.5 1.55 -2.2" fill="#e6d3d8" fill-rule="evenodd" stroke="none"/>
      <path d="M-1.7 1.25 Q-2.0 1.25 -2.6 0.85 -3.65 0.2 -4.05 -1.45 -4.35 -3.05 -3.15 -4.05 -2.0 -5.0 -0.7 -4.55 0.5 -4.1 1.1 -3.2 L1.55 -2.2 Q2.7 -2.8 2.95 -1.95 3.15 -1.1 1.75 -1.35 2.8 -1.05 2.2 -0.25 1.45 0.3 1.0 0.0 1.55 0.5 1.1 1.2 0.7 1.85 -0.45 1.0 L-0.55 2.05 Q-0.7 2.45 -1.15 2.35 -1.6 2.25 -1.7 1.9 L-1.7 1.25 Q-1.45 1.35 -1.0 0.95 -0.5 0.5 -0.55 0.05 -1.4 -0.05 -2.05 -0.7 L-2.7 -1.55 M1.55 -2.2 Q1.5 -1.5 0.85 -1.55 1.05 -1.1 0.6 -0.6 0.1 -0.1 -0.55 0.05 M-1.0 -3.3 Q0.5 -3.15 0.85 -1.55" fill="none" stroke="#000000" stroke-linecap="round" stroke-linejoin="miter-clip" stroke-miterlimit="5.0" stroke-opacity="0.4" stroke-width="0.30000000000000004"/>
    </g>
  </defs><filter id="color_fur" 				x="-20%" y="-20%" width="140%" height="140%" 				filterUnits="objectBoundingBox" 				primitiveUnits="userSpaceOnUse" 				color-interpolation-filters="sRGB"> 								<feColorMatrix type="matrix" values="1 0 0 0 -0.02941176470588236 			0 1 0 0 -0.15490196078431373 			0 0 1 0 -0.27254901960784317 			0 0 0 1 0" 					x="0%" y="0%" width="100%" height="100%" 					in="colormatrix" result="colormatrix1" /> 			</filter><defs>
    <g id="costume_head_208_sprite0" transform="matrix(1.0, 0.0, 0.0, 1.0, 0.2, 0.15)">
      <use height="12.25" href="#costume_head_208_shape0" transform="matrix(1.0, 0.0, 0.0, 1.0, -0.2, -0.15)" width="13.4"/>
    </g>
    <g id="costume_head_208_shape0" transform="matrix(1.0, 0.0, 0.0, 1.0, 0.2, 0.15)">
      <path d="M12.0 1.65 Q13.65 2.3 12.65 6.15 8.45 1.9 3.7 7.1 2.25 8.8 1.15 11.95 L0.0 11.85 Q0.95 8.8 2.2 6.85 1.1 4.35 2.85 2.5 4.55 0.6 5.75 2.95 5.7 0.6 7.75 0.1 9.75 -0.45 9.95 2.7 10.3 0.95 12.0 1.65" fill="#808080" fill-rule="evenodd" stroke="none"/>
      <path d="M12.0 1.65 Q10.3 0.95 9.95 2.7 9.75 -0.45 7.75 0.1 5.7 0.6 5.75 2.95 4.55 0.6 2.85 2.5 1.1 4.35 2.2 6.85 0.95 8.8 0.0 11.85 L1.15 11.95 Q2.25 8.8 3.7 7.1 8.45 1.9 12.65 6.15 13.65 2.3 12.0 1.65 Z" fill="none" stroke="#000000" stroke-linecap="round" stroke-linejoin="miter-clip" stroke-miterlimit="5.0" stroke-opacity="0.4" stroke-width="0.30000000000000004"/>
    </g>
    <g id="costume_head_208_sprite1" transform="matrix(1.0, 0.0, 0.0, 1.0, 0.0, 0.0)">
      <use height="3.85" href="#costume_head_208_shape1" transform="matrix(1.0, 0.0, 0.0, 1.0, 0.0, 0.0)" width="9.1"/>
    </g>
    <g id="costume_head_208_shape1" transform="matrix(1.0, 0.0, 0.0, 1.0, 0.0, 0.0)">
      <path d="M7.9 1.35 Q8.1 1.1 8.4 1.1 8.7 1.1 8.9 1.35 L9.1 2.0 8.9 2.6 8.4 2.9 Q8.1 2.9 7.9 2.6 L7.7 2.0 7.9 1.35 M5.7 1.1 L5.4 1.85 Q5.1 2.2 4.7 2.2 4.3 2.2 4.0 1.85 3.7 1.55 3.7 1.1 3.7 0.65 4.0 0.3 4.3 0.0 4.7 0.0 5.1 0.0 5.4 0.3 L5.7 1.1 M0.25 2.05 Q0.5 1.75 0.85 1.75 1.2 1.75 1.45 2.05 L1.7 2.8 1.45 3.55 Q1.2 3.85 0.85 3.85 0.5 3.85 0.25 3.55 L0.0 2.8 Q0.0 2.35 0.25 2.05" fill="#808080" fill-rule="evenodd" stroke="none"/>
    </g>
  </defs><defs>
    <g id="costume_eyes_46_sprite0" transform="matrix(1.0, 0.0, 0.0, 1.0, 0.0, 0.0)">
      <use height="6.4" href="#costume_eyes_46_shape0" transform="matrix(1.0, 0.0, 0.0, 1.0, 0.0, 0.0)" width="12.8"/>
    </g>
    <g id="costume_eyes_46_shape0" transform="matrix(1.0, 0.0, 0.0, 1.0, 0.0, 0.0)">
      <path d="M12.8 3.2 Q12.8 4.5 10.85 5.45 8.95 6.4 6.2 6.4 3.45 6.4 1.9 5.6 0.3 4.8 0.05 3.35 -0.2 1.9 1.5 1.0 3.15 0.1 5.45 0.0 5.25 0.65 5.45 1.35 5.8 2.6 7.5 2.75 8.45 2.85 9.15 1.95 9.7 1.2 9.7 0.6 12.8 1.9 12.8 3.2" fill="url(#costume_eyes_46_gradient0)" fill-rule="evenodd" stroke="none"/>
    </g>
    <radialGradient cx="0" cy="0" gradientTransform="matrix(0.0082, 0.0, 0.0, 0.004, 6.25, 3.1)" gradientUnits="userSpaceOnUse" id="costume_eyes_46_gradient0" r="819.2" spreadMethod="pad">
      <stop offset="0.0" stop-color="#808080" stop-opacity="0.41960785"/>
      <stop offset="1.0" stop-color="#808080" stop-opacity="0.0"/>
    </radialGradient>
  </defs><defs>
    <g id="costume_mouth_36_sprite0" transform="matrix(1.0, 0.0, 0.0, 1.0, 0.0, 0.0)">
      <use height="7.85" href="#costume_mouth_36_shape0" transform="matrix(1.0, 0.0, 0.0, 1.0, 0.0, 0.0)" width="22.05"/>
    </g>
    <g id="costume_mouth_36_shape0" transform="matrix(1.0, 0.0, 0.0, 1.0, 0.0, 0.0)">
      <path d="M19.7 2.0 L20.3 1.95 Q21.8 2.1 22.05 3.7 L20.2 4.65 Q19.85 3.8 19.35 3.55 L19.0 3.4 19.9 2.65 Q20.1 2.25 19.7 2.0 M16.5 1.85 L16.3 1.4 Q16.0 0.9 15.4 0.65 L14.35 0.5 18.75 0.15 19.4 0.35 Q18.4 0.5 17.95 1.55 L17.9 1.6 16.5 1.85 M17.75 5.95 Q17.7 5.35 17.25 4.9 L16.35 4.4 16.0 4.35 17.2 3.9 17.75 3.95 18.55 4.4 18.9 4.9 19.05 5.25 17.75 5.95 M10.9 3.7 L10.45 2.8 10.15 2.55 10.4 1.9 12.15 1.25 Q12.75 1.45 13.1 1.9 L13.45 2.85 10.9 3.7 M6.1 5.3 L5.6 4.55 Q5.05 4.1 4.5 4.0 L5.6 3.6 7.9 3.95 8.2 4.6 6.1 5.3 M2.0 6.65 L1.55 6.05 Q0.85 5.45 0.0 5.6 L1.9 4.95 Q2.55 4.9 3.2 5.3 L3.75 6.05 2.0 6.65" fill="#8e8e8e" fill-rule="evenodd" stroke="none"/>
      <path d="M22.05 3.7 L22.05 3.75 Q21.9 4.45 21.2 5.2 L20.5 5.55 20.2 4.65 22.05 3.7 M19.0 3.4 L18.15 3.5 18.25 3.05 Q18.4 2.65 18.9 2.35 19.25 2.1 19.7 2.0 20.1 2.25 19.9 2.65 L19.0 3.4 M16.5 1.85 L17.9 1.6 17.65 2.65 16.4 2.75 16.5 1.85 M19.05 5.25 L19.05 6.2 17.6 6.85 17.75 5.95 19.05 5.25 M10.9 3.7 L13.45 2.85 13.45 3.75 10.9 4.65 10.9 3.75 10.9 3.7 M8.2 4.6 L8.2 4.7 8.2 5.6 6.1 6.4 6.1 5.3 8.2 4.6 M3.75 6.05 L3.7 7.25 2.05 7.85 2.1 6.9 2.0 6.65 3.75 6.05" fill="#514e4b" fill-rule="evenodd" stroke="none"/>
    </g>
    <g id="costume_mouth_36_sprite1" transform="matrix(1.0, 0.0, 0.0, 1.0, 0.15, 0.15)">
      <use height="8.6" href="#costume_mouth_36_shape1" transform="matrix(1.0, 0.0, 0.0, 1.0, -0.15, -0.15)" width="23.7"/>
    </g>
    <g id="costume_mouth_36_shape1" transform="matrix(1.0, 0.0, 0.0, 1.0, 0.15, 0.15)">
      <path d="M20.65 0.35 Q21.7 0.65 22.45 1.35 23.35 2.25 23.4 3.25 L23.3 3.75 23.3 3.7 Q23.05 2.1 21.55 1.95 L20.95 2.0 Q20.5 1.65 19.2 1.55 19.65 0.5 20.65 0.35 M17.05 6.3 L16.7 5.5 Q16.6 4.85 17.0 4.55 L17.25 4.35 17.6 4.4 18.5 4.9 Q18.95 5.35 19.0 5.95 L18.85 6.0 Q18.1 6.55 17.05 6.3 M0.25 7.65 Q-0.35 6.8 0.55 5.85 L1.25 5.6 Q2.1 5.45 2.8 6.05 L3.25 6.65 Q1.55 8.2 0.25 7.65 M3.15 4.95 L5.3 4.15 5.75 4.0 Q6.3 4.1 6.85 4.55 L7.35 5.3 5.0 6.05 4.45 5.3 Q3.8 4.9 3.15 4.95 M9.15 3.95 Q10.9 3.8 11.4 2.55 L11.7 2.8 12.15 3.7 9.45 4.6 9.15 3.95 M13.4 1.25 L15.6 0.5 16.65 0.65 Q17.25 0.9 17.55 1.4 L17.75 1.85 14.7 2.85 14.35 1.9 13.4 1.25 M20.25 3.4 L20.6 3.55 Q21.1 3.8 21.45 4.65 L20.3 5.25 20.15 4.9 19.8 4.4 19.0 3.95 20.25 3.4" fill="#808080" fill-rule="evenodd" stroke="none"/>
      <path d="M21.75 5.55 L20.3 6.2 20.3 5.25 21.45 4.65 21.75 5.55 M18.85 6.85 Q17.55 6.9 17.05 6.3 18.1 6.55 18.85 6.0 L19.0 5.95 18.85 6.85 M18.45 3.9 L19.4 3.5 20.25 3.4 19.0 3.95 18.45 3.9 M19.5 3.05 L18.9 2.65 19.15 1.6 19.2 1.55 Q20.5 1.65 20.95 2.0 20.5 2.1 20.15 2.35 19.65 2.65 19.5 3.05 M17.65 2.75 L14.7 3.75 14.7 2.85 17.75 1.85 17.65 2.75 M12.15 4.65 L9.45 5.6 9.45 4.7 9.45 4.6 12.15 3.7 12.15 3.75 12.15 4.65 M7.35 6.4 L4.95 7.25 5.0 6.05 7.35 5.3 7.35 6.4 M3.3 7.85 L2.85 8.0 0.4 7.85 0.25 7.65 Q1.55 8.2 3.25 6.65 L3.35 6.9 3.3 7.85" fill="#585451" fill-rule="evenodd" stroke="none"/>
      <path d="M20.65 0.35 Q21.7 0.65 22.45 1.35 23.35 2.25 23.4 3.25 L23.3 3.75 22.45 5.2 21.75 5.55 20.3 6.2 18.85 6.85 Q17.55 6.9 17.05 6.3 L16.7 5.5 Q16.6 4.85 17.0 4.55 L17.25 4.35 18.45 3.9 19.4 3.5 19.5 3.05 18.9 2.65 17.65 2.75 14.7 3.75 12.15 4.65 9.45 5.6 7.35 6.4 4.95 7.25 3.3 7.85 2.85 8.0 0.4 7.85 0.25 7.65 Q-0.35 6.8 0.55 5.85 L1.25 5.6 3.15 4.95 5.3 4.15 5.75 4.0 6.85 3.6 9.15 3.95 Q10.9 3.8 11.4 2.55 L11.65 1.9 13.4 1.25 15.6 0.5 Q18.2 -0.25 20.0 0.15 L20.65 0.35 Z" fill="none" stroke="#000000" stroke-linecap="round" stroke-linejoin="round" stroke-opacity="0.3882353" stroke-width="0.30000000000000004"/>
    </g>
    <g id="costume_mouth_36_sprite2" transform="matrix(1.0, 0.0, 0.0, 1.0, 0.1, 0.1)">
      <use height="7.45" href="#costume_mouth_36_shape2" transform="matrix(1.0, 0.0, 0.0, 1.0, -0.1, -0.1)" width="7.45"/>
    </g>
    <g id="costume_mouth_36_shape2" transform="matrix(1.0, 0.0, 0.0, 1.0, 0.1, 0.1)">
      <path d="M0.0 1.85 Q2.05 2.45 3.05 0.65 2.25 2.45 4.1 2.7 1.85 3.55 3.15 5.15 1.8 4.85 0.7 7.25 2.05 4.0 0.05 4.25 2.3 3.0 0.0 1.85" fill="#808080" fill-rule="evenodd" stroke="none"/>
      <path d="M0.0 1.85 Q2.3 3.0 0.05 4.25 2.05 4.0 0.7 7.25 1.8 4.85 3.15 5.15 1.85 3.55 4.1 2.7 2.25 2.45 3.05 0.65 2.05 2.45 0.0 1.85 Z" fill="none" stroke="#000000" stroke-linecap="round" stroke-linejoin="round" stroke-opacity="0.3882353" stroke-width="0.2"/>
      <path d="M3.95 5.65 Q5.1 3.3 3.0 3.2 4.45 2.3 4.3 0.0 4.75 1.6 6.6 1.25 4.5 2.6 7.25 3.4 5.7 3.05 6.3 6.2 5.25 4.2 3.95 5.65" fill="#808080" fill-rule="evenodd" stroke="none"/>
      <path d="M3.95 5.65 Q5.25 4.2 6.3 6.2 5.7 3.05 7.25 3.4 4.5 2.6 6.6 1.25 4.75 1.6 4.3 0.0 4.45 2.3 3.0 3.2 5.1 3.3 3.95 5.65 Z" fill="none" stroke="#000000" stroke-linecap="round" stroke-linejoin="round" stroke-opacity="0.3882353" stroke-width="0.2"/>
    </g>
    <g id="costume_mouth_36_sprite3" transform="matrix(1.0, 0.0, 0.0, 1.0, 0.1, 0.1)">
      <use height="3.3" href="#costume_mouth_36_shape3" transform="matrix(1.0, 0.0, 0.0, 1.0, -0.1, -0.1)" width="4.1"/>
    </g>
    <g id="costume_mouth_36_shape3" transform="matrix(1.0, 0.0, 0.0, 1.0, 0.1, 0.1)">
      <path d="M1.35 1.6 L1.25 1.25 Q1.25 0.75 1.65 0.35 2.05 0.0 2.55 0.0 L2.95 0.05 Q3.85 0.8 2.95 1.6 2.1 2.3 1.35 1.6 M2.1 1.45 L2.35 1.25 2.55 0.8 Q2.6 0.5 2.25 0.5 1.7 0.5 1.7 1.1 1.7 1.45 2.1 1.45" fill="#808080" fill-rule="evenodd" stroke="none"/>
      <path d="M2.95 0.05 L3.55 0.35 3.9 1.25 3.55 2.2 Q3.15 2.55 2.55 2.55 2.05 2.55 1.65 2.2 L1.35 1.6 Q2.1 2.3 2.95 1.6 3.85 0.8 2.95 0.05" fill="#585451" fill-rule="evenodd" stroke="none"/>
      <path d="M2.1 1.45 Q1.7 1.45 1.7 1.1 1.7 0.5 2.25 0.5 2.6 0.5 2.55 0.8 L2.35 1.25 2.1 1.45" fill="#aaaaaa" fill-rule="evenodd" stroke="none"/>
      <path d="M2.95 0.05 L3.55 0.35 3.9 1.25 3.55 2.2 Q3.15 2.55 2.55 2.55 2.05 2.55 1.65 2.2 L1.35 1.6 1.25 1.25 Q1.25 0.75 1.65 0.35 2.05 0.0 2.55 0.0 L2.95 0.05 Z" fill="none" stroke="#000000" stroke-linecap="round" stroke-linejoin="round" stroke-opacity="0.3882353" stroke-width="0.2"/>
      <path d="M1.3 1.15 Q1.55 1.2 1.75 1.4 L2.05 2.1 1.75 2.8 1.0 3.1 Q0.6 3.1 0.3 2.8 L0.05 2.35 Q0.65 2.9 1.3 2.35 2.0 1.75 1.3 1.15" fill="#585451" fill-rule="evenodd" stroke="none"/>
      <path d="M0.05 2.35 L0.0 2.1 Q0.0 1.7 0.3 1.4 0.6 1.1 1.0 1.1 L1.3 1.15 Q2.0 1.75 1.3 2.35 0.65 2.9 0.05 2.35 M0.65 2.25 L0.85 2.1 1.0 1.75 0.75 1.5 Q0.35 1.5 0.35 1.95 0.35 2.25 0.65 2.25" fill="#808080" fill-rule="evenodd" stroke="none"/>
      <path d="M0.65 2.25 Q0.35 2.25 0.35 1.95 0.35 1.5 0.75 1.5 L1.0 1.75 0.85 2.1 0.65 2.25" fill="#aaaaaa" fill-rule="evenodd" stroke="none"/>
      <path d="M1.3 1.15 Q1.55 1.2 1.75 1.4 L2.05 2.1 1.75 2.8 1.0 3.1 Q0.6 3.1 0.3 2.8 L0.05 2.35 0.0 2.1 Q0.0 1.7 0.3 1.4 0.6 1.1 1.0 1.1 L1.3 1.15 Z" fill="none" stroke="#000000" stroke-linecap="round" stroke-linejoin="round" stroke-opacity="0.3882353" stroke-width="0.2"/>
    </g>
  </defs><defs>
    <g id="costume_hair_101_sprite0" transform="matrix(1.0, 0.0, 0.0, 1.0, 0.0, 0.0)">
      <use height="8.45" href="#costume_hair_101_shape0" transform="matrix(1.0, 0.0, 0.0, 1.0, 0.0, 0.0)" width="19.7"/>
    </g>
    <g id="costume_hair_101_shape0" transform="matrix(1.0, 0.0, 0.0, 1.0, 0.0, 0.0)">
      <path d="M16.4 2.95 L15.9 1.05 14.5 1.9 Q15.25 0.9 16.45 0.0 L16.4 2.95 M18.55 4.85 L18.65 3.45 16.95 3.45 19.7 3.15 18.55 4.85 M6.55 2.45 L4.85 1.75 4.5 3.65 Q4.2 1.9 4.35 0.5 L6.55 2.45 M2.8 3.7 L1.45 4.05 1.45 5.4 0.0 3.4 2.8 3.7" fill="#a99797" fill-rule="evenodd" stroke="none"/>
      <path d="M14.5 1.9 L15.9 1.05 16.4 2.95 16.2 3.8 14.0 5.8 13.5 4.05 Q13.75 2.9 14.5 1.9 M16.2 3.8 L16.95 3.45 18.65 3.45 18.55 4.85 17.85 5.75 16.05 6.3 16.05 4.4 16.2 3.8 M6.55 2.45 L7.75 4.25 7.25 6.5 5.2 5.6 5.75 7.6 2.9 7.0 Q2.0 6.3 1.45 5.4 L1.45 4.05 2.8 3.7 Q3.75 3.9 4.6 4.25 L4.5 3.65 4.85 1.75 6.55 2.45" fill="#808080" fill-rule="evenodd" stroke="none"/>
      <path d="M13.5 4.05 L14.0 5.8 16.2 3.8 16.05 4.4 16.05 6.3 17.85 5.75 Q16.7 7.05 15.6 7.05 L15.3 7.05 14.25 7.05 13.45 6.8 Q13.15 5.35 13.5 4.05 M2.9 7.0 L5.75 7.6 5.2 5.6 7.25 6.5 7.75 4.25 Q8.45 5.75 8.1 7.35 L7.2 7.95 6.45 8.45 Q4.4 8.15 2.9 7.0" fill="#6f6464" fill-rule="evenodd" stroke="none"/>
    </g>
    <g id="costume_hair_101_sprite1" transform="matrix(1.0, 0.0, 0.0, 1.0, 0.0, 0.0)">
      <use height="23.9" href="#costume_hair_101_shape1" transform="matrix(1.0, 0.0, 0.0, 1.0, 0.0, 0.0)" width="19.25"/>
    </g>
    <g id="costume_hair_101_shape1" transform="matrix(1.0, 0.0, 0.0, 1.0, 0.0, 0.0)">
      <path d="M3.45 1.85 L4.2 1.35 5.1 0.75 Q7.6 -0.35 10.45 0.2 L11.25 0.45 Q8.95 0.55 6.7 6.65 6.0 8.6 5.7 11.7 5.35 16.15 7.1 20.3 5.75 19.45 5.0 17.4 4.9 19.7 5.4 21.9 0.15 17.45 3.45 1.85" fill="url(#costume_hair_101_gradient0)" fill-rule="evenodd" stroke="none"/>
      <path d="M3.45 1.85 Q0.15 17.45 5.4 21.9 4.9 19.7 5.0 17.4 5.75 19.45 7.1 20.3 7.75 21.85 8.7 23.35 6.35 21.85 5.75 19.85 6.35 22.85 7.8 23.85 5.8 24.2 3.8 21.45 2.7 19.9 2.5 18.5 2.75 21.0 3.8 22.85 2.05 21.75 1.1 19.2 L0.3 15.15 Q-1.05 6.2 3.45 1.85 M16.1 23.0 L14.8 23.6 Q15.65 22.7 15.75 20.6 15.35 21.7 13.95 22.65 L14.75 20.35 17.6 18.75 Q17.95 20.9 16.1 23.0" fill="#6f574f" fill-rule="evenodd" stroke="none"/>
      <path d="M17.6 18.75 L19.25 17.5 Q18.7 20.85 16.1 23.0 17.95 20.9 17.6 18.75" fill="#808080" fill-rule="evenodd" stroke="none"/>
    </g>
    <radialGradient cx="0" cy="0" gradientTransform="matrix(0.01, 0.0, 0.0, 0.01, 16.45, 3.45)" gradientUnits="userSpaceOnUse" id="costume_hair_101_gradient0" r="819.2" spreadMethod="pad">
      <stop offset="0.0" stop-color="#ffbc5b"/>
      <stop offset="1.0" stop-color="#808080"/>
    </radialGradient>
    <g id="costume_hair_101_sprite2" transform="matrix(1.0, 0.0, 0.0, 1.0, 0.0, 0.0)">
      <use height="9.7" href="#costume_hair_101_shape2" transform="matrix(1.0, 0.0, 0.0, 1.0, 0.0, 0.0)" width="13.75"/>
    </g>
    <g id="costume_hair_101_shape2" transform="matrix(1.0, 0.0, 0.0, 1.0, 0.0, 0.0)">
      <path d="M11.25 2.05 L12.7 3.8 Q9.0 2.9 4.9 3.8 L3.7 4.1 4.9 3.55 Q8.0 2.2 11.25 2.05" fill="#c0b3a1" fill-rule="evenodd" stroke="none"/>
      <path d="M12.7 3.8 Q13.3 4.85 13.55 6.15 13.8 7.45 13.7 9.05 L12.65 8.8 11.35 5.0 Q11.95 7.3 12.0 8.55 L10.7 8.25 Q10.05 6.65 9.4 6.0 L8.75 4.8 9.05 5.6 Q9.25 7.7 8.5 7.95 L8.2 6.95 7.75 5.9 Q8.4 7.85 7.7 8.25 L6.1 8.4 Q5.9 6.75 5.2 5.0 L4.9 7.25 4.65 8.35 3.0 8.45 1.15 8.8 0.65 6.25 0.0 2.7 Q2.0 0.3 4.9 0.1 L5.2 0.05 6.25 0.05 6.55 0.05 Q8.3 0.2 10.1 1.25 L11.25 2.05 Q8.0 2.2 4.9 3.55 L3.7 4.1 4.9 3.8 Q9.0 2.9 12.7 3.8" fill="url(#costume_hair_101_gradient1)" fill-rule="evenodd" stroke="none"/>
      <path d="M13.7 9.05 L13.65 9.65 12.0 9.15 10.1 8.85 Q10.0 7.45 9.4 6.0 10.05 6.65 10.7 8.25 L12.0 8.55 Q11.95 7.3 11.35 5.0 L12.65 8.8 13.7 9.05 M9.05 5.6 Q9.6 7.15 9.5 8.75 L8.6 8.75 6.15 9.0 6.1 8.4 7.7 8.25 Q8.4 7.85 7.75 5.9 L8.2 6.95 8.5 7.95 Q9.25 7.7 9.05 5.6 M5.2 5.0 L5.2 9.1 4.9 9.1 3.1 9.2 2.75 9.25 1.3 9.7 1.15 8.8 3.0 8.45 4.65 8.35 4.9 7.25 5.2 5.0" fill="#6f574f" fill-rule="evenodd" stroke="none"/>
    </g>
    <radialGradient cx="0" cy="0" gradientTransform="matrix(0.01, 0.0, 0.0, 0.01, 10.4, 3.05)" gradientUnits="userSpaceOnUse" id="costume_hair_101_gradient1" r="819.2" spreadMethod="pad">
      <stop offset="0.0" stop-color="#b8a386"/>
      <stop offset="1.0" stop-color="#808080"/>
    </radialGradient>
    <g id="costume_hair_101_sprite3" transform="matrix(1.0, 0.0, 0.0, 1.0, 0.0, 0.0)">
      <use height="32.9" href="#costume_hair_101_shape3" transform="matrix(1.0, 0.0, 0.0, 1.0, 0.0, 0.0)" width="32.4"/>
    </g>
    <g id="costume_hair_101_shape3" transform="matrix(1.0, 0.0, 0.0, 1.0, 0.0, 0.0)">
      <path d="M28.5 4.1 L26.6 4.2 25.45 3.4 Q23.65 2.35 21.9 2.2 23.0 2.2 24.15 0.9 L24.85 0.0 Q27.05 0.55 28.5 4.1 M28.05 5.95 L29.2 6.2 29.4 7.1 29.8 9.0 29.95 9.8 Q29.8 9.15 28.9 8.3 28.65 7.0 28.05 5.95 M30.6 26.95 Q30.8 30.8 26.65 32.6 28.45 31.3 28.9 28.8 29.6 27.2 29.7 25.85 29.6 22.05 28.85 18.95 L29.15 18.6 29.35 19.35 30.4 25.6 30.6 26.95" fill="#808080" fill-rule="evenodd" stroke="none"/>
      <path d="M26.6 4.2 L28.5 4.1 29.2 6.2 28.05 5.95 26.6 4.2 M9.35 17.75 L9.1 18.8 Q5.9 19.0 2.7 16.55 6.05 18.2 9.35 17.75" fill="#c0b3a1" fill-rule="evenodd" stroke="none"/>
      <path d="M29.95 9.8 L32.2 22.0 Q33.0 25.15 30.6 26.95 L30.4 25.6 Q32.35 24.45 31.2 21.65 30.45 20.25 29.35 19.35 L29.15 18.6 29.75 17.75 Q30.6 16.15 30.0 14.35 28.3 13.7 27.35 11.3 L29.0 11.8 29.05 11.2 Q29.15 9.6 28.9 8.3 29.8 9.15 29.95 9.8 M28.9 28.8 Q27.6 32.4 24.8 32.75 25.9 31.6 26.1 29.75 25.1 31.35 22.75 30.85 26.7 29.0 25.4 24.75 28.0 22.6 28.55 19.25 L28.85 18.95 Q29.6 22.05 29.7 25.85 29.6 27.2 28.9 28.8 M11.55 31.05 L13.7 32.7 Q8.85 33.2 6.8 28.95 6.65 30.9 8.2 32.8 5.15 32.2 3.95 27.75 4.2 30.85 6.55 32.9 2.45 31.7 2.4 27.0 0.55 26.3 0.1 24.45 -0.1 23.8 0.1 22.0 L1.95 20.75 Q0.15 24.45 2.45 25.9 L3.25 20.15 Q2.85 25.5 6.3 30.6 4.9 25.6 7.0 20.05 6.2 29.75 11.55 31.05" fill="#6f574f" fill-rule="evenodd" stroke="none"/>
      <path d="M0.1 22.0 Q0.45 18.5 2.05 10.65 4.0 1.3 7.75 0.55 8.3 1.45 9.2 2.15 10.7 3.3 12.75 3.6 8.25 7.95 9.6 16.9 L9.35 17.75 Q6.05 18.2 2.7 16.55 5.9 19.0 9.1 18.8 8.7 21.2 9.1 24.4 9.6 28.95 13.8 30.4 11.5 30.95 10.25 29.2 10.7 30.2 11.55 31.05 6.2 29.75 7.0 20.05 4.9 25.6 6.3 30.6 2.85 25.5 3.25 20.15 L3.5 18.15 1.95 20.75 0.1 22.0" fill="url(#costume_hair_101_gradient2)" fill-rule="evenodd" stroke="none"/>
    </g>
    <radialGradient cx="0" cy="0" gradientTransform="matrix(0.0083, 0.0, 0.0, 0.0083, 3.95, 15.35)" gradientUnits="userSpaceOnUse" id="costume_hair_101_gradient2" r="819.2" spreadMethod="pad">
      <stop offset="0.0" stop-color="#b8a386"/>
      <stop offset="1.0" stop-color="#808080"/>
    </radialGradient>
    <g id="costume_hair_101_sprite4" transform="matrix(1.0, 0.0, 0.0, 1.0, 0.0, 0.0)">
      <use height="9.8" href="#costume_hair_101_shape4" transform="matrix(1.0, 0.0, 0.0, 1.0, 0.0, 0.0)" width="19.1"/>
    </g>
    <g id="costume_hair_101_shape4" transform="matrix(1.0, 0.0, 0.0, 1.0, 0.0, 0.0)">
      <path d="M17.45 4.65 L19.1 3.4 Q18.55 6.75 15.95 8.9 17.8 6.8 17.45 4.65" fill="#808080" fill-rule="evenodd" stroke="none"/>
      <path d="M15.95 8.9 L14.65 9.5 Q15.5 8.6 15.6 6.5 15.2 7.6 13.8 8.55 L14.6 6.25 17.45 4.65 Q17.8 6.8 15.95 8.9" fill="#6f574f" fill-rule="evenodd" stroke="none"/>
      <path d="M6.95 6.2 L8.55 9.25 Q6.2 7.75 5.6 5.75 6.2 8.75 7.65 9.75 5.65 10.1 3.65 7.35 2.55 5.8 2.35 4.4 2.6 6.9 3.65 8.75 1.9 7.65 0.95 5.1 0.4 2.95 0.15 1.05 L0.0 0.0 2.1 0.0 Q2.5 5.45 5.25 7.8 4.75 5.6 4.85 3.3 5.6 5.35 6.95 6.2" fill="url(#costume_hair_101_gradient3)" fill-rule="evenodd" stroke="none"/>
      <path d="M2.1 0.0 L5.55 0.0 Q5.7 3.2 6.95 6.2 5.6 5.35 4.85 3.3 4.75 5.6 5.25 7.8 2.5 5.45 2.1 0.0" fill="url(#costume_hair_101_gradient4)" fill-rule="evenodd" stroke="none"/>
    </g>
    <linearGradient gradientTransform="matrix(0.0, -0.0024, 0.006, 0.0, -2.4, 2.0)" gradientUnits="userSpaceOnUse" id="costume_hair_101_gradient3" spreadMethod="pad" x1="-819.2" x2="819.2">
      <stop offset="0.0" stop-color="#6f574f"/>
      <stop offset="1.0" stop-color="#6f574f" stop-opacity="0.0"/>
    </linearGradient>
    <linearGradient gradientTransform="matrix(0.0, -0.0024, 0.0048, 0.0, 3.0, 2.0)" gradientUnits="userSpaceOnUse" id="costume_hair_101_gradient4" spreadMethod="pad" x1="-819.2" x2="819.2">
      <stop offset="0.0" stop-color="#808080"/>
      <stop offset="1.0" stop-color="#808080" stop-opacity="0.0"/>
    </linearGradient>
    <g id="costume_hair_101_sprite5" transform="matrix(1.0, 0.0, 0.0, 1.0, 0.0, 0.0)">
      <use height="14.3" href="#costume_hair_101_shape5" transform="matrix(1.0, 0.0, 0.0, 1.0, 0.0, 0.0)" width="32.4"/>
    </g>
    <g id="costume_hair_101_shape5" transform="matrix(1.0, 0.0, 0.0, 1.0, 0.0, 0.0)">
      <path d="M30.6 8.35 L30.4 7.0 Q32.35 5.85 31.2 3.05 30.45 1.65 29.35 0.75 L29.3 0.5 31.7 0.5 32.2 3.4 Q33.0 6.55 30.6 8.35" fill="url(#costume_hair_101_gradient5)" fill-rule="evenodd" stroke="none"/>
      <path d="M30.4 7.0 L30.6 8.35 Q30.8 12.2 26.65 14.0 28.45 12.7 28.9 10.2 29.6 8.6 29.7 7.25 29.6 3.55 28.9 0.5 L28.85 0.35 29.15 0.0 29.3 0.5 29.35 0.75 30.4 7.0" fill="url(#costume_hair_101_gradient6)" fill-rule="evenodd" stroke="none"/>
      <path d="M28.85 0.35 L28.9 0.5 Q29.6 3.55 29.7 7.25 29.6 8.6 28.9 10.2 27.6 13.8 24.8 14.15 25.9 13.0 26.1 11.15 25.1 12.75 22.75 12.25 26.7 10.4 25.4 6.15 28.0 4.0 28.55 0.65 L28.85 0.35 M11.55 12.45 L13.7 14.1 Q8.85 14.6 6.8 10.35 6.65 12.3 8.2 14.2 5.15 13.6 3.95 9.15 4.2 12.25 6.55 14.3 2.45 13.1 2.4 8.4 0.55 7.7 0.1 5.85 -0.1 5.2 0.1 3.4 L1.95 2.15 Q0.15 5.85 2.45 7.3 L3.25 1.55 Q2.85 6.9 6.3 12.0 4.9 7.0 7.0 1.45 6.2 11.15 11.55 12.45" fill="#6f574f" fill-rule="evenodd" stroke="none"/>
      <path d="M3.25 1.55 L3.4 0.5 9.05 0.5 Q8.7 2.8 9.1 5.8 9.6 10.35 13.8 11.8 11.5 12.35 10.25 10.6 10.7 11.6 11.55 12.45 6.2 11.15 7.0 1.45 4.9 7.0 6.3 12.0 2.85 6.9 3.25 1.55" fill="url(#costume_hair_101_gradient7)" fill-rule="evenodd" stroke="none"/>
      <path d="M0.1 3.4 L0.5 0.5 2.85 0.5 1.95 2.15 0.1 3.4" fill="url(#costume_hair_101_gradient8)" fill-rule="evenodd" stroke="none"/>
    </g>
    <linearGradient gradientTransform="matrix(0.0, -0.0019, 0.0048, 0.0, 31.1, 3.65)" gradientUnits="userSpaceOnUse" id="costume_hair_101_gradient5" spreadMethod="pad" x1="-819.2" x2="819.2">
      <stop offset="0.0" stop-color="#6f574f"/>
      <stop offset="1.0" stop-color="#6f574f" stop-opacity="0.0"/>
    </linearGradient>
    <linearGradient gradientTransform="matrix(0.0, -0.004, 0.0085, 0.0, 30.65, 3.85)" gradientUnits="userSpaceOnUse" id="costume_hair_101_gradient6" spreadMethod="pad" x1="-819.2" x2="819.2">
      <stop offset="0.0" stop-color="#808080"/>
      <stop offset="1.0" stop-color="#808080" stop-opacity="0.0"/>
    </linearGradient>
    <linearGradient gradientTransform="matrix(0.0, -0.0047, 0.0073, 0.0, 7.75, 4.3)" gradientUnits="userSpaceOnUse" id="costume_hair_101_gradient7" spreadMethod="pad" x1="-819.2" x2="819.2">
      <stop offset="0.0" stop-color="#808080"/>
      <stop offset="1.0" stop-color="#808080" stop-opacity="0.0"/>
    </linearGradient>
    <linearGradient gradientTransform="matrix(0.0, -0.0024, 0.0017, 0.0, 1.5, 2.55)" gradientUnits="userSpaceOnUse" id="costume_hair_101_gradient8" spreadMethod="pad" x1="-819.2" x2="819.2">
      <stop offset="0.4" stop-color="#808080"/>
      <stop offset="1.0" stop-color="#808080" stop-opacity="0.0"/>
    </linearGradient>
    <g id="costume_hair_101_sprite6" transform="matrix(1.0, 0.0, 0.0, 1.0, 0.1, 0.2)">
      <use height="38.1" href="#costume_hair_101_shape6" transform="matrix(1.0, 0.0, 0.0, 1.0, -0.1, -0.2)" width="32.6"/>
    </g>
    <g id="costume_hair_101_shape6" transform="matrix(1.0, 0.0, 0.0, 1.0, 0.1, 0.2)">
      <path d="M24.75 13.0 L24.1 11.8 24.4 12.6 Q24.6 14.7 23.85 14.95 L23.55 13.95 23.1 12.9 Q23.75 14.85 23.05 15.25 L21.45 15.4 Q21.25 13.75 20.55 12.0 L20.25 14.25 20.0 15.35 18.35 15.45 18.0 15.5 17.85 13.0 18.0 15.5 16.5 15.8 16.0 13.25 15.55 10.8 Q20.35 7.45 27.05 9.45 L28.05 10.8 Q28.65 11.85 28.9 13.15 29.15 14.45 29.05 16.05 L28.0 15.8 26.7 12.0 Q27.3 14.3 27.35 15.55 L26.05 15.25 Q25.4 13.65 24.75 13.0" fill="url(#costume_hair_101_gradient9)" fill-rule="evenodd" stroke="none"/>
      <path d="M27.35 16.15 L25.45 15.85 Q25.35 14.45 24.75 13.0 25.4 13.65 26.05 15.25 L27.35 15.55 27.35 16.15 27.35 15.55 Q27.3 14.3 26.7 12.0 L28.0 15.8 29.05 16.05 29.0 16.65 27.35 16.15 M24.4 12.6 Q24.95 14.15 24.85 15.75 L23.95 15.75 21.5 16.0 21.45 15.4 23.05 15.25 Q23.75 14.85 23.1 12.9 L23.55 13.95 23.85 14.95 Q24.6 14.7 24.4 12.6 M20.55 12.0 L20.55 16.1 20.25 16.1 18.45 16.2 18.1 16.25 16.65 16.7 16.5 15.8 18.0 15.5 18.35 15.45 20.0 15.35 20.25 14.25 20.55 12.0 M23.95 15.75 L23.85 14.95 23.95 15.75 M18.1 16.25 L18.0 15.5 18.1 16.25" fill="#6f574f" fill-rule="evenodd" stroke="none"/>
      <path d="M16.0 13.25 Q15.6 14.3 15.35 15.75 L15.0 18.3 Q14.8 21.0 15.35 23.6 15.7 25.15 16.35 26.7 L16.4 26.9 18.0 29.95 Q15.65 28.45 15.05 26.45 15.65 29.45 17.1 30.45 15.1 30.8 13.1 28.05 12.0 26.5 11.8 25.1 12.05 27.6 13.1 29.45 11.35 28.35 10.4 25.8 9.85 23.65 9.6 21.75 L9.35 22.6 9.1 23.65 Q8.7 26.05 9.1 29.25 9.6 33.8 13.8 35.25 11.5 35.8 10.25 34.05 10.7 35.05 11.55 35.9 L13.7 37.55 Q8.85 38.05 6.8 33.8 6.65 35.75 8.2 37.65 5.15 37.05 3.95 32.6 4.2 35.7 6.55 37.75 2.45 36.55 2.4 31.85 0.55 31.15 0.1 29.3 -0.1 28.65 0.1 26.85 0.45 23.35 2.05 15.5 4.0 6.15 7.75 5.4 L6.3 3.4 9.1 3.7 10.9 4.25 10.65 2.3 10.65 0.5 12.85 2.45 14.05 4.25 Q14.75 5.75 14.4 7.35 L15.35 7.0 19.75 6.8 Q19.45 5.35 19.8 4.05 19.95 3.4 20.25 2.8 L20.8 1.9 22.15 0.5 22.75 0.0 22.8 0.5 22.8 2.3 22.5 3.8 23.25 3.45 26.0 3.15 24.85 4.85 Q27.05 5.4 28.5 8.95 L28.65 9.3 29.2 11.05 29.4 11.95 29.8 13.85 32.2 26.85 Q33.0 30.0 30.6 31.8 30.8 35.65 26.65 37.45 28.45 36.15 28.9 33.65 27.6 37.25 24.8 37.6 25.9 36.45 26.1 34.6 25.1 36.2 22.75 35.7 26.7 33.85 25.4 29.6 L24.1 30.2 Q24.95 29.3 25.05 27.2 24.65 28.3 23.25 29.25 L24.05 26.95 24.6 26.7 26.9 25.35 28.55 24.1 28.85 23.8 29.15 23.45 29.75 22.6 Q30.6 21.0 30.0 19.2 28.3 18.55 27.35 16.15 L25.45 15.85 Q25.35 14.45 24.75 13.0 L24.1 11.8 24.4 12.6 Q24.95 14.15 24.85 15.75 L23.95 15.75 21.5 16.0 21.45 15.4 Q21.25 13.75 20.55 12.0 L20.55 16.1 20.25 16.1 18.45 16.2 18.1 16.25 16.65 16.7 16.5 15.8 16.0 13.25 M27.05 9.45 L26.6 9.05 25.45 8.25 Q23.65 7.2 21.9 7.05 L20.55 7.05 20.25 7.1 Q17.35 7.3 15.35 9.7 M22.5 3.8 L22.35 4.4 Q21.8 6.0 20.55 7.05 L19.75 6.8 M21.9 7.05 Q23.0 7.05 24.15 5.75 L24.85 4.85 M27.05 9.45 L28.05 10.8 Q28.65 11.85 28.9 13.15 29.15 14.45 29.05 16.05 L29.0 16.65 27.35 16.15 M30.6 31.8 L30.4 30.45 29.35 24.2 29.15 23.45 M10.9 4.25 L11.5 5.6 Q12.2 6.85 13.5 7.95 L14.4 7.35 M13.5 7.95 L12.75 8.45 Q8.25 12.8 9.6 21.75 M7.75 5.4 Q8.3 6.3 9.2 7.0 10.7 8.15 12.75 8.45 M2.4 31.85 L2.45 30.75 Q0.15 29.3 1.95 25.6 L3.5 23.0 2.45 30.75 M30.4 30.45 Q32.3 29.35 31.3 26.7 L31.2 26.5 Q30.45 25.1 29.35 24.2 M28.55 24.1 L27.75 26.7 Q26.9 28.35 25.4 29.6" fill="none" stroke="#000000" stroke-linecap="round" stroke-linejoin="miter-clip" stroke-miterlimit="3.0" stroke-opacity="0.29803923" stroke-width="0.2"/>
      <path d="M27.35 16.15 L27.35 15.55 Q27.3 14.3 26.7 12.0 M23.85 14.95 L23.55 13.95 23.1 12.9 M23.85 14.95 L23.95 15.75 M18.0 15.5 L18.1 16.25 M17.85 13.0 L18.0 15.5" fill="none" stroke="#000000" stroke-linecap="round" stroke-linejoin="miter-clip" stroke-miterlimit="3.0" stroke-opacity="0.29803923" stroke-width="0.1"/>
    </g>
    <linearGradient gradientTransform="matrix(-2.0E-4, -0.0024, 0.0045, -4.0E-4, 21.7, 12.75)" gradientUnits="userSpaceOnUse" id="costume_hair_101_gradient9" spreadMethod="pad" x1="-819.2" x2="819.2">
      <stop offset="0.10588235294117647" stop-color="#808080"/>
      <stop offset="1.0" stop-color="#808080" stop-opacity="0.0"/>
    </linearGradient>
  </defs><filter id="color_costume_head_208_0" 				x="-20%" y="-20%" width="140%" height="140%" 				filterUnits="objectBoundingBox" 				primitiveUnits="userSpaceOnUse" 				color-interpolation-filters="sRGB"> 								<feColorMatrix type="matrix" values="1 0 0 0 0.4764705882352941 			0 1 0 0 0.4607843137254902 			0 0 1 0 0.4647058823529412 			0 0 0 1 0" 					x="0%" y="0%" width="100%" height="100%" 					in="colormatrix" result="colormatrix1" /> 			</filter><filter id="color_costume_head_208_1" 				x="-20%" y="-20%" width="140%" height="140%" 				filterUnits="objectBoundingBox" 				primitiveUnits="userSpaceOnUse" 				color-interpolation-filters="sRGB"> 								<feColorMatrix type="matrix" values="1 0 0 0 -0.39019607843137255 			0 1 0 0 -0.3941176470588235 			0 0 1 0 -0.3862745098039216 			0 0 0 1 0" 					x="0%" y="0%" width="100%" height="100%" 					in="colormatrix" result="colormatrix1" /> 			</filter><filter id="color_costume_eyes_46_0" 				x="-20%" y="-20%" width="140%" height="140%" 				filterUnits="objectBoundingBox" 				primitiveUnits="userSpaceOnUse" 				color-interpolation-filters="sRGB"> 								<feColorMatrix type="matrix" values="1 0 0 0 0.5 			0 1 0 0 -0.5 			0 0 1 0 -0.303921568627451 			0 0 0 1 0" 					x="0%" y="0%" width="100%" height="100%" 					in="colormatrix" result="colormatrix1" /> 			</filter><filter id="color_costume_mouth_36_1" 				x="-20%" y="-20%" width="140%" height="140%" 				filterUnits="objectBoundingBox" 				primitiveUnits="userSpaceOnUse" 				color-interpolation-filters="sRGB"> 								<feColorMatrix type="matrix" values="1 0 0 0 0.19803921568627447 			0 1 0 0 -0.4647058823529412 			0 0 1 0 -0.4764705882352941 			0 0 0 1 0" 					x="0%" y="0%" width="100%" height="100%" 					in="colormatrix" result="colormatrix1" /> 			</filter><filter id="color_costume_mouth_36_0" 				x="-20%" y="-20%" width="140%" height="140%" 				filterUnits="objectBoundingBox" 				primitiveUnits="userSpaceOnUse" 				color-interpolation-filters="sRGB"> 								<feColorMatrix type="matrix" values="1 0 0 0 0.4137254901960784 			0 1 0 0 0.39803921568627454 			0 0 1 0 0.3509803921568627 			0 0 0 1 0" 					x="0%" y="0%" width="100%" height="100%" 					in="colormatrix" result="colormatrix1" /> 			</filter><filter id="color_costume_mouth_36_3" 				x="-20%" y="-20%" width="140%" height="140%" 				filterUnits="objectBoundingBox" 				primitiveUnits="userSpaceOnUse" 				color-interpolation-filters="sRGB"> 								<feColorMatrix type="matrix" values="1 0 0 0 -0.27254901960784317 			0 1 0 0 -0.06862745098039214 			0 0 1 0 -0.49215686274509807 			0 0 0 1 0" 					x="0%" y="0%" width="100%" height="100%" 					in="colormatrix" result="colormatrix1" /> 			</filter><filter id="color_costume_mouth_36_2" 				x="-20%" y="-20%" width="140%" height="140%" 				filterUnits="objectBoundingBox" 				primitiveUnits="userSpaceOnUse" 				color-interpolation-filters="sRGB"> 								<feColorMatrix type="matrix" values="1 0 0 0 0.3156862745098039 			0 1 0 0 -0.3549019607843137 			0 0 1 0 -0.3666666666666667 			0 0 0 1 0" 					x="0%" y="0%" width="100%" height="100%" 					in="colormatrix" result="colormatrix1" /> 			</filter><filter id="color_costume_hair_101_6" 				x="-20%" y="-20%" width="140%" height="140%" 				filterUnits="objectBoundingBox" 				primitiveUnits="userSpaceOnUse" 				color-interpolation-filters="sRGB"> 								<feColorMatrix type="matrix" values="1 0 0 0 0.3274509803921568 			0 1 0 0 -0.3392156862745098 			0 0 1 0 -0.3392156862745098 			0 0 0 1 0" 					x="0%" y="0%" width="100%" height="100%" 					in="colormatrix" result="colormatrix1" /> 			</filter><filter id="color_costume_hair_101_5" 				x="-20%" y="-20%" width="140%" height="140%" 				filterUnits="objectBoundingBox" 				primitiveUnits="userSpaceOnUse" 				color-interpolation-filters="sRGB"> 								<feColorMatrix type="matrix" values="1 0 0 0 -0.24117647058823527 			0 1 0 0 -0.24117647058823527 			0 0 1 0 -0.24117647058823527 			0 0 0 1 0" 					x="0%" y="0%" width="100%" height="100%" 					in="colormatrix" result="colormatrix1" /> 			</filter><filter id="color_costume_hair_101_4" 				x="-20%" y="-20%" width="140%" height="140%" 				filterUnits="objectBoundingBox" 				primitiveUnits="userSpaceOnUse" 				color-interpolation-filters="sRGB"> 								<feColorMatrix type="matrix" values="1 0 0 0 -0.24117647058823527 			0 1 0 0 -0.24117647058823527 			0 0 1 0 -0.24117647058823527 			0 0 0 1 0" 					x="0%" y="0%" width="100%" height="100%" 					in="colormatrix" result="colormatrix1" /> 			</filter><filter id="color_costume_hair_101_3" 				x="-20%" y="-20%" width="140%" height="140%" 				filterUnits="objectBoundingBox" 				primitiveUnits="userSpaceOnUse" 				color-interpolation-filters="sRGB"> 								<feColorMatrix type="matrix" values="1 0 0 0 -0.24117647058823527 			0 1 0 0 -0.24117647058823527 			0 0 1 0 -0.24117647058823527 			0 0 0 1 0" 					x="0%" y="0%" width="100%" height="100%" 					in="colormatrix" result="colormatrix1" /> 			</filter><filter id="color_costume_hair_101_2" 				x="-20%" y="-20%" width="140%" height="140%" 				filterUnits="objectBoundingBox" 				primitiveUnits="userSpaceOnUse" 				color-interpolation-filters="sRGB"> 								<feColorMatrix type="matrix" values="1 0 0 0 -0.24117647058823527 			0 1 0 0 -0.24117647058823527 			0 0 1 0 -0.24117647058823527 			0 0 0 1 0" 					x="0%" y="0%" width="100%" height="100%" 					in="colormatrix" result="colormatrix1" /> 			</filter><filter id="color_costume_hair_101_1" 				x="-20%" y="-20%" width="140%" height="140%" 				filterUnits="objectBoundingBox" 				primitiveUnits="userSpaceOnUse" 				color-interpolation-filters="sRGB"> 								<feColorMatrix type="matrix" values="1 0 0 0 -0.24117647058823527 			0 1 0 0 -0.24117647058823527 			0 0 1 0 -0.24117647058823527 			0 0 0 1 0" 					x="0%" y="0%" width="100%" height="100%" 					in="colormatrix" result="colormatrix1" /> 			</filter><filter id="color_costume_hair_101_0" 				x="-20%" y="-20%" width="140%" height="140%" 				filterUnits="objectBoundingBox" 				primitiveUnits="userSpaceOnUse" 				color-interpolation-filters="sRGB"> 								<feColorMatrix type="matrix" values="1 0 0 0 -0.24117647058823527 			0 1 0 0 -0.24117647058823527 			0 0 1 0 -0.24117647058823527 			0 0 0 1 0" 					x="0%" y="0%" width="100%" height="100%" 					in="colormatrix" result="colormatrix1" /> 			</filter><defs><g id="PiedG">
    <use height="4.05" href="#fur_175_PiedG_shape0" transform="matrix(1.0, 0.0, 0.0, 1.0, -4.7, -2.0)" width="9.4"/>
  </g><g id="CuisseG">
    <use height="13.8" href="#fur_175_CuisseG_shape0" transform="matrix(1.0, 0.0, 0.0, 1.0, -6.95, -6.8)" width="13.95"/>
  </g><g id="Boule"/><g id="PiedD">
    <use height="3.95" href="#fur_175_PiedD_shape0" transform="matrix(1.0, 0.0, 0.0, 1.0, -4.55, -2.0)" width="8.95"/>
  </g><g id="Corps">
    <use height="21.05" href="#fur_175_Corps_shape0" transform="matrix(1.0, 0.0, 0.0, 1.0, -13.35, -10.05)" width="25.3"/>
  </g><g id="Oeil">
    <use height="4.55" href="#fur_175_Oeil_shape0" transform="matrix(1.0, 0.0, 0.0, 1.0, -2.25, -2.3)" width="4.55"/>
  </g><g id="CuisseD">
    <use height="13.9" href="#fur_175_CuisseD_shape0" transform="matrix(1.0, 0.0, 0.0, 1.0, -11.15, -6.85)" width="18.3"/>
  </g><g id="Tete">
    <use height="25.25" href="#fur_175_Tete_shape0" transform="matrix(1.0, 0.0, 0.0, 1.0, -12.2, -12.9)" width="24.6"/>
  </g><g id="PiedD2">
    <use height="3.95" href="#fur_175_PiedD2_shape0" transform="matrix(1.0, 0.0, 0.0, 1.0, -4.55, -2.0)" width="8.95"/>
  </g><g id="Oeil2">
    <use height="6.7" href="#fur_175_Oeil2_shape0" transform="matrix(1.0, 0.0, 0.0, 1.0, -2.75, -5.25)" width="6.7"/>
  </g><g id="PatteD2">
    <use height="8.7" href="#fur_175_PatteD2_shape0" transform="matrix(1.0, 0.0, 0.0, 1.0, -5.95, -4.75)" width="10.35"/>
  </g><g id="OreilleG">
    <use height="15.7" href="#fur_175_OreilleG_shape0" transform="matrix(1.0, 0.0, 0.0, 1.0, -1.85, -7.85)" width="3.2"/>
  </g><g id="OreilleD">
    <use height="18.75" href="#fur_175_OreilleD_shape0" transform="matrix(1.0, 0.0, 0.0, 1.0, -11.45, -10.6)" width="19.7"/>
  </g><g id="PatteD">
    <use height="9.15" href="#fur_175_PatteD_shape0" transform="matrix(1.0, 0.0, 0.0, 1.0, -5.4, -5.2)" width="9.5"/>
  </g><g id="Oeil3">
    <use height="3.45" href="#fur_175_Oeil3_shape0" transform="matrix(1.0, 0.0, 0.0, 1.0, -2.0, -1.3)" width="4.4"/>
  </g><g id="Queue">
    <use height="40.9" href="#fur_175_Queue_shape0" transform="matrix(1.0, 0.0, 0.0, 1.0, -14.4, -20.0)" width="22.65"/>
  </g><g id="PatteG">
    <use height="9.4" href="#fur_175_PatteG_shape0" transform="matrix(1.0, 0.0, 0.0, 1.0, -4.2, -4.8)" width="8.1"/>
  </g><g id="PatteG2">
    <use height="8.35" href="#fur_175_PatteG2_shape0" transform="matrix(1.0, 0.0, 0.0, 1.0, -4.25, -4.85)" width="10.6"/>
  </g></defs><defs><g id="head">
    <use filter="url(#color_costume_head_208_0)" height="12.25" href="#costume_head_208_sprite0" id="costume_head_208_Couleur0_F9F5F6" transform="matrix(1.0, 0.0, 0.0, 1.0, -4.95, -13.1)" width="13.4"/>
    <use filter="url(#color_costume_head_208_1)" height="3.85" href="#costume_head_208_sprite1" id="costume_head_208_Couleur1_1C1B1D" transform="matrix(1.0, 0.0, 0.0, 1.0, -1.55, -11.6)" width="9.1"/>
  </g><g id="eyes">
    <use filter="url(#color_costume_eyes_46_0)" height="6.4" href="#costume_eyes_46_sprite0" id="costume_eyes_46_Couleur0_FF0032" transform="matrix(1.0, 0.0, 0.0, 1.0, -7.45, -0.6)" width="12.8"/>
  </g><g id="mouth">
    <use filter="url(#color_costume_mouth_36_1)" height="7.85" href="#costume_mouth_36_sprite0" id="costume_mouth_36_Couleur1_B20906" transform="matrix(1.0, 0.0, 0.0, 1.0, 1.0, 0.3)" width="22.05"/>
    <use filter="url(#color_costume_mouth_36_0)" height="8.6" href="#costume_mouth_36_sprite1" id="costume_mouth_36_Couleur0_E9E5D9" transform="matrix(1.0, 0.0, 0.0, 1.0, -0.4, 0.15)" width="23.7"/>
    <use filter="url(#color_costume_mouth_36_3)" height="7.45" href="#costume_mouth_36_sprite2" id="costume_mouth_36_Couleur3_3A6E02" transform="matrix(1.0, 0.0, 0.0, 1.0, 9.1, 3.7)" width="7.45"/>
    <use filter="url(#color_costume_mouth_36_2)" height="3.3" href="#costume_mouth_36_sprite3" id="costume_mouth_36_Couleur2_D02522" transform="matrix(1.0, 0.0, 0.0, 1.0, 11.05, 2.25)" width="4.1"/>
  </g><g id="hair">
    <use filter="url(#color_costume_hair_101_6)" height="8.45" href="#costume_hair_101_sprite0" id="costume_hair_101_Couleur6_AA2014" transform="matrix(1.0, 0.0, 0.0, 1.0, -11.9, -20.15)" width="19.7"/>
    <use filter="url(#color_costume_hair_101_5)" height="23.9" href="#costume_hair_101_sprite1" id="costume_hair_101_Couleur5_F1A24A" transform="matrix(1.0, 0.0, 0.0, 1.0, -8.9, -13.55)" width="19.25"/>
    <use filter="url(#color_costume_hair_101_4)" height="9.7" href="#costume_hair_101_sprite2" id="costume_hair_101_Couleur4_F1A24A" transform="matrix(1.0, 0.0, 0.0, 1.0, -2.85, -13.15)" width="13.75"/>
    <use filter="url(#color_costume_hair_101_3)" height="32.9" href="#costume_hair_101_sprite3" id="costume_hair_101_Couleur3_F1A24A" transform="matrix(1.0, 0.0, 0.0, 1.0, -18.2, -15.3)" width="32.4"/>
    <use filter="url(#color_costume_hair_101_2)" height="9.8" href="#costume_hair_101_sprite4" id="costume_hair_101_Couleur2_F1A24A" transform="matrix(1.0, 0.0, 0.0, 1.0, -8.75, 0.55)" width="19.1"/>
    <use filter="url(#color_costume_hair_101_1)" height="14.3" href="#costume_hair_101_sprite5" id="costume_hair_101_Couleur1_F1A24A" transform="matrix(1.0, 0.0, 0.0, 1.0, -18.2, 3.3)" width="32.4"/>
    <use filter="url(#color_costume_hair_101_0)" height="38.1" href="#costume_hair_101_sprite6" id="costume_hair_101_Couleur0_F1A24A" transform="matrix(1.0, 0.0, 0.0, 1.0, -18.3, -20.35)" width="32.6"/>
  </g></defs><g transform="matrix(1.0, 0.0, 0.0, 1.0, 30.4, 51.55)"><use transform="matrix(1.0, 0.0, 0.0, 1.0, 5.75, -22.8)" href="#OreilleG" /><use transform="matrix(1.0, 0.0, 0.0, 1.0, 3.95, 13.05)" href="#PiedG" /><use transform="matrix(1.0, 0.0, 0.0, 1.0, 1.4, 6.7)" href="#CuisseG" /><use transform="matrix(1.0, 0.0, 0.0, 1.0, 8.3, 1.05)" href="#PatteG" /><use transform="matrix(1.0, 0.0, 0.0, 1.0, 8.3, 1.05)" href="#magic-wand" /><use transform="matrix(1.0, 0.0, 0.0, 1.0, -4.25, 14.2)" href="#PiedD" /><use transform="matrix(1.0, 0.0, 0.0, 1.0, -0.8, 3.5)" href="#Corps" /><use transform="matrix(1.0, 0.0, 0.0, 1.0, -13.5, -8.05)" href="#Queue" /><use transform="matrix(1.0, 0.0087, -0.0087, 1.0, -19.4, -25.2)" href="#tail" /><use transform="matrix(1.0, 0.0, 0.0, 1.0, -4.5, 7.3)" href="#CuisseD" /><use transform="matrix(1.0, 0.0, 0.0, 1.0, 4.9, -9.6)" href="#Tete" /><use transform="matrix(1.0, 0.0, 0.0, 1.0, 4.9, -9.6)" href="#neck" /><use transform="matrix(1.0, 0.0, 0.0, 1.0, 4.9, -9.6)" href="#hair" /><use transform="matrix(1.0, 0.0, 0.0, 1.0, 4.9, -9.6)" href="#head" /><use transform="matrix(1.0, 0.0, 0.0, 1.0, 4.9, -9.6)" href="#mouth" /><use transform="matrix(1.0, 0.0, 0.0, 1.0, 1.85, 1.7)" href="#PatteD" /><use transform="matrix(1.0, 0.0, 0.0, 1.0, 1.85, 1.7)" href="#hands" /><use transform="matrix(1.0, 0.0, 0.0, 1.0, 1.85, 1.7)" href="#button-shield" /><use transform="matrix(1.0, 0.0, 0.0, 1.0, 4.75, -10.95)" href="#Oeil" /><use transform="matrix(1.0, 0.0, 0.0, 1.0, 4.75, -10.95)" href="#contact" /><use transform="matrix(1.0, 0.0, 0.0, 1.0, 4.75, -10.95)" href="#eyes" /><use transform="matrix(1.0, 0.0, 0.0, 1.0, -6.2, -16.6)" href="#OreilleD" /><use transform="matrix(1.0, 0.0, 0.0, 1.0, -6.2, -16.6)" href="#ears" /></g></svg>